<svg xmlns="http://www.w3.org/2000/svg" viewBox="0 0 351.13 359.27"><defs><style>.cls-1{isolation:isolate;}.cls-2{mix-blend-mode:soft-light;}.cls-3{fill:none;stroke:#f8f8f8;stroke-linecap:round;stroke-linejoin:round;stroke-width:3px;}.cls-4{font-size:31.81px;fill:#fff;font-family:Montserrat-SemiBold, Montserrat;font-weight:600;}</style></defs><title>About us topAsset 1</title><g class="cls-1"><g id="Layer_2" data-name="Layer 2"><g id="Guides"><g class="cls-2"><path class="cls-3" d="M182.27,102.15V42c0-24.48,39.13-29,48.25-8,12.17-2.72,26.15-3,35.77,5,5.86,4.84,9.22,12,12,19.12,2.87,7.37,5.26,15.84,1.84,23a19.12,19.12,0,0,1,15.53,25c-.71,2.2-3.36,4.46-3.17,6.88.26,3.33,4.25,4.1,6.6,5.61,10.55,6.77,16,20.62,11.26,32.53-1.69,4.27-5.93,8.57-5.86,13.32,0,2.51,3.32,4.39,5,5.78a16.92,16.92,0,0,1,2.26,23c-3.51,4.43-9.32,8-2.75,12.29A19.5,19.5,0,0,1,317.18,217c2.16,8.85-2.78,14.72-6.73,21.94-3.18,5.82-.82,11.36-1.56,17.55a50.94,50.94,0,0,1-4.05,14.68c-3.78,8.48-10.43,16.57-20,18.37-4.83.9-9.41-.45-10.52,5.47-.82,4.44,1.53,9.05-.33,13.42-2.23,5.24-7.48,9.09-12.8,10.71-6.44,2-12.26-.42-18.48.42-5.59.75-5.81,5.83-8.75,9.34a27.23,27.23,0,0,1-13.88,8.62,30.12,30.12,0,0,1-14.34.31,34.8,34.8,0,0,1-18.54-11.6c-4.59-5.41-4.68-11.38-4.92-18.29,0-.38,0-.75,0-1.13V254"/><path class="cls-3" d="M200.88,69.43a17.14,17.14,0,0,1,19.63,1c8.19,6.63,8.31,23.2-.4,29.57-6.64,4.86-17.31,2.56-21.36-4.6"/><path class="cls-3" d="M210.78,259.51c16.82-1.74,19.49-14.49,17.37-24.07a37.48,37.48,0,0,0,44.32-24.76c2.82-8.44-.61-16.27,1.44-24.61,2.31-9.38,14.72-14.57,23-9.61"/><path class="cls-3" d="M266.7,78.46c0,3.41,0,6.91-1.18,10.1s-3.81,6.08-7.18,6.59c-2.73.41-5.43-.75-8.15-1.21-8.08-1.36-16.7,4.52-18.38,12.54"/><path class="cls-3" d="M272.91,106.48c2.41-3.34,2.74-8.24.28-11.54s-7.76-4.28-10.91-1.64"/><path class="cls-3" d="M261,117.71c3.7.6,7.47,1.29,10.76,3.09s6.08,4.88,6.58,8.6c.32,2.34-.23,4.93,1.06,6.91,2.33,3.56,7.95,1.87,11.86,3.55A7.25,7.25,0,0,1,294,150.47c-2.06,2.65-5.71,3.45-9.07,3.62s-6.85-.09-10,1.17c-4.61,1.86-5.07,6.91-6.5,11.06"/><path class="cls-3" d="M231,53.24c5.74-3.82,15.25-4.57,21.38-1.43,6.71,3.45,10,12.66,5.49,19.14"/><path class="cls-3" d="M203.12,311.11c4.2,3.49,10.23,5.09,15.31,3.08S226.9,306,225,300.93c5.94.84,12,1.69,17.9.71s11.8-4.07,14.64-9.35c2.63-4.88,2.32-10.75,1.93-16.28,0-.59,12.45-4.36,13.59-4.89a41,41,0,0,0,14-10.11c4.37-5,6.88-10.45,6.71-17.22"/><path class="cls-3" d="M293.82,231c3.87-4.12,6.14-10.2,2.35-15.18-1.57-2.06-3.56-2.25-5.48-3.6-2.11-1.47-1.23-3.36-.81-5.83,1.48-8.74-8.61-11.1-15.21-9.87"/><path class="cls-3" d="M268.58,253c-2.66,4.55-8.06,6.34-13.1,5.75-5.27-.61-10.37-3.66-12.75-8.4s-1.79-12.52,3.46-15"/><path class="cls-3" d="M207.91,273.73c4.59-2.55,10.15-3.87,15.13-2.22s8.93,6.88,7.92,12a16.4,16.4,0,0,1,19.62,14.79"/><path class="cls-3" d="M216.54,36.18c-3.87-1.14-8.34-1.38-11.63,1-3.83,2.72-4.8,8.27-3.35,12.74s4.84,8,8.4,11.1,7.41,5.87,10.34,9.54"/><path class="cls-3" d="M169.37,102.15V42c0-24.48-39.13-29-48.25-8C108.94,31.24,95,31,85.35,39c-5.86,4.84-9.22,12-12,19.12-2.87,7.37-5.27,15.84-1.84,23A19.12,19.12,0,0,0,56,106c.72,2.2,3.37,4.46,3.18,6.88-.26,3.33-4.26,4.1-6.6,5.61C42,125.28,36.58,139.13,41.3,151c1.7,4.27,5.93,8.57,5.87,13.32,0,2.51-3.32,4.39-5,5.78a16.91,16.91,0,0,0-2.26,23c3.51,4.43,9.32,8,2.75,12.29A19.51,19.51,0,0,0,34.45,217c-2.15,8.85,2.79,14.72,6.74,21.94,3.18,5.82.81,11.36,1.56,17.55a51.24,51.24,0,0,0,4,14.68c3.78,8.48,10.43,16.57,20,18.37,4.84.9,9.42-.45,10.52,5.47.83,4.44-1.52,9.05.34,13.42,2.23,5.24,7.47,9.09,12.8,10.71,6.44,2,12.26-.42,18.47.42,5.6.75,5.82,5.83,8.76,9.34a27.2,27.2,0,0,0,13.87,8.62,30.12,30.12,0,0,0,14.34.31,34.78,34.78,0,0,0,18.55-11.6c4.59-5.41,4.68-11.38,4.91-18.29,0-.38,0-.75,0-1.13V254"/><path class="cls-3" d="M150.76,69.43a17.14,17.14,0,0,0-19.63,1c-8.2,6.63-8.31,23.2.39,29.57,6.64,4.86,17.32,2.56,21.36-4.6"/><path class="cls-3" d="M140.86,259.51a25.93,25.93,0,0,1-17.37-24.07c-10.11,2.41-23.62,2.42-31.82-4-16.58-12.9-11.89-37.07-14-45.41-2.3-9.38-14.72-14.57-23-9.61"/><path class="cls-3" d="M84.93,78.46c0,3.41,0,6.91,1.18,10.1s3.82,6.08,7.19,6.59c2.73.41,5.42-.75,8.15-1.21,8.08-1.36,16.69,4.52,18.38,12.54"/><path class="cls-3" d="M78.73,106.48c-2.42-3.34-2.74-8.24-.28-11.54s7.75-4.28,10.91-1.64"/><path class="cls-3" d="M90.64,117.71c-3.7.6-7.46,1.29-10.75,3.09s-6.09,4.88-6.59,8.6c-.31,2.34.24,4.93-1.06,6.91-2.33,3.56-7.95,1.87-11.86,3.55a7.25,7.25,0,0,0-2.73,10.61c2.07,2.65,5.72,3.45,9.08,3.62s6.84-.09,10,1.17c4.61,1.86,5.07,6.91,6.51,11.06"/><path class="cls-3" d="M120.61,53.24c-5.75-3.82-15.25-4.57-21.38-1.43-6.72,3.45-10,12.66-5.49,19.14"/><path class="cls-3" d="M148.52,311.11c-4.21,3.49-10.23,5.09-15.31,3.08s-8.47-8.15-6.56-13.26c-5.94.84-12,1.69-17.91.71S97,297.57,94.11,292.29c-2.63-4.88-2.32-10.75-1.94-16.28,0-.59-12.44-4.36-13.59-4.89a41.1,41.1,0,0,1-14-10.11c-4.37-5-6.87-10.45-6.7-17.22"/><path class="cls-3" d="M57.82,231c-3.87-4.12-6.15-10.2-2.36-15.18,1.58-2.06,3.56-2.25,5.49-3.6,2.11-1.47,1.23-3.36.81-5.83-1.48-8.74,8.61-11.1,15.21-9.87"/><path class="cls-3" d="M82.86,252.45c2.43,4.14,7.36,5.77,12,5.24,4.8-.56,9.45-3.34,11.62-7.66s1.63-11.41-3.15-13.68"/><path class="cls-3" d="M143.72,273.73c-4.58-2.55-10.14-3.87-15.12-2.22s-8.93,6.88-7.93,12a16.4,16.4,0,0,0-19.62,14.79"/><path class="cls-3" d="M135.1,36.18c3.86-1.14,8.34-1.38,11.62,1,3.84,2.72,4.81,8.27,3.35,12.74s-4.84,8-8.39,11.1-7.42,5.87-10.35,9.54"/><line class="cls-3" x1="308.43" y1="99.13" x2="296.64" y2="99.13"/><line class="cls-3" x1="241.66" y1="31.89" x2="241.66" y2="20.09"/><path class="cls-3" d="M308.43,127.64h18.78a4,4,0,0,0,4-4v-7.54a4,4,0,0,1,4-4h5.82"/><path class="cls-3" d="M280.08,61.15h27.77a4,4,0,0,1,4,4v6.15"/><line class="cls-3" x1="332.85" y1="174.54" x2="313.23" y2="174.54"/><line class="cls-3" x1="323.44" y1="274.55" x2="303.82" y2="274.55"/><line class="cls-3" x1="327.6" y1="182.44" x2="315.81" y2="182.44"/><line class="cls-3" x1="221.08" y1="357.77" x2="221.08" y2="338.15"/><line class="cls-3" x1="213.19" y1="350.84" x2="213.19" y2="339.05"/><line class="cls-3" x1="340.2" y1="201.4" x2="306.02" y2="201.4"/><path class="cls-3" d="M309.72,242.85h15.6a4,4,0,0,1,4,4v8a4,4,0,0,0,4,4h6.05"/><path class="cls-3" d="M348,258.93a4.28,4.28,0,1,0-4.27,4.27A4.27,4.27,0,0,0,348,258.93Z"/><path class="cls-3" d="M249.79,32.23V24.15a4,4,0,0,1,4-4h8a4,4,0,0,0,4-4v-6"/><path class="cls-3" d="M265.86,1.5a4.28,4.28,0,1,0,4.28,4.28A4.28,4.28,0,0,0,265.86,1.5Z"/><path class="cls-3" d="M349.27,201.4a4.28,4.28,0,1,0-4.28,4.28A4.28,4.28,0,0,0,349.27,201.4Z"/><path class="cls-3" d="M316.15,75.6a4.28,4.28,0,1,0-4.28,4.28A4.28,4.28,0,0,0,316.15,75.6Z"/><path class="cls-3" d="M286.73,289.75v27.77a4,4,0,0,0,4,4h6.15"/><path class="cls-3" d="M301.18,325.82a4.28,4.28,0,1,1,4.28-4.28A4.28,4.28,0,0,1,301.18,325.82Z"/><path class="cls-3" d="M349.63,112.06a4.28,4.28,0,1,0-4.28,4.28A4.28,4.28,0,0,0,349.63,112.06Z"/><path class="cls-3" d="M245.89,320.4v12a4,4,0,0,0,4,4h7.54a4,4,0,0,1,4,4v5.83"/><path class="cls-3" d="M261.47,354.84a4.28,4.28,0,1,0-4.28-4.28A4.28,4.28,0,0,0,261.47,354.84Z"/><line class="cls-3" x1="30.47" y1="260.14" x2="42.27" y2="260.14"/><line class="cls-3" x1="107.62" y1="320.75" x2="107.62" y2="332.54"/><path class="cls-3" d="M36.37,231.63H29.55a4,4,0,0,0-4,4v7.55a4,4,0,0,1-4,4H15.69"/><path class="cls-3" d="M76.68,302.4H40.43a4,4,0,0,1-4-4v-6.16"/><line class="cls-3" x1="16.75" y1="184.72" x2="36.37" y2="184.72"/><line class="cls-3" x1="49.64" y1="73.52" x2="69.26" y2="73.52"/><line class="cls-3" x1="25.54" y1="176.83" x2="37.33" y2="176.83"/><line class="cls-3" x1="58.52" y1="66.28" x2="70.32" y2="66.28"/><line class="cls-3" x1="152" y1="1.5" x2="152" y2="21.12"/><line class="cls-3" x1="146.02" y1="8.42" x2="146.02" y2="20.22"/><line class="cls-3" x1="10.57" y1="157.87" x2="44.75" y2="157.87"/><path class="cls-3" d="M58.48,112.73H49.89a4,4,0,0,1-4-4v-8a4,4,0,0,0-4-4H35.8"/><path class="cls-3" d="M27.25,96.65a4.28,4.28,0,1,0,4.27-4.27A4.27,4.27,0,0,0,27.25,96.65Z"/><path class="cls-3" d="M99.5,320.4v8.09a4,4,0,0,1-4,4h-8a4,4,0,0,0-4,4v6.05"/><path class="cls-3" d="M83.42,351.13a4.28,4.28,0,1,0-4.28-4.27A4.27,4.27,0,0,0,83.42,351.13Z"/><path class="cls-3" d="M1.5,157.87a4.28,4.28,0,1,0,4.28-4.28A4.28,4.28,0,0,0,1.5,157.87Z"/><path class="cls-3" d="M32.14,288a4.28,4.28,0,1,0,4.27-4.28A4.27,4.27,0,0,0,32.14,288Z"/><path class="cls-3" d="M86.35,37.64V26.21a4,4,0,0,0-4-4H76.18"/><path class="cls-3" d="M71.9,17.91a4.28,4.28,0,1,1-4.28,4.28A4.28,4.28,0,0,1,71.9,17.91Z"/><path class="cls-3" d="M7.13,247.21a4.28,4.28,0,1,0,4.28-4.28A4.28,4.28,0,0,0,7.13,247.21Z"/><path class="cls-3" d="M132.74,22.83H115.63a4,4,0,0,1-4-4V13"/><path class="cls-3" d="M111.61,4.43a4.28,4.28,0,1,0,4.28,4.28A4.28,4.28,0,0,0,111.61,4.43Z"/></g><rect class="cls-3" x="142.45" y="146.55" width="66.07" height="66.07" rx="4.68"/><rect class="cls-3" x="135.49" y="139.6" width="79.97" height="79.97" rx="5.67"/><line class="cls-3" x1="227.6" y1="210.1" x2="215.81" y2="210.1"/><path class="cls-3" d="M215.81,199.93h18.77a4,4,0,0,1,4,4v7.54a4,4,0,0,0,4,4h5.83"/><path class="cls-3" d="M215.81,189.76h27.77a4,4,0,0,0,4-4v-6.15"/><line class="cls-3" x1="235.43" y1="179.59" x2="215.81" y2="179.59"/><line class="cls-3" x1="227.6" y1="169.41" x2="215.81" y2="169.41"/><line class="cls-3" x1="249.99" y1="159.24" x2="215.81" y2="159.24"/><path class="cls-3" d="M215.81,149.07h15.6a4,4,0,0,0,4-4v-8a4,4,0,0,1,4-4h6.06"/><path class="cls-3" d="M254.05,133a4.28,4.28,0,1,1-4.28-4.28A4.28,4.28,0,0,1,254.05,133Z"/><path class="cls-3" d="M259.06,159.24a4.28,4.28,0,1,1-4.28-4.28A4.28,4.28,0,0,1,259.06,159.24Z"/><path class="cls-3" d="M251.88,175.31A4.28,4.28,0,1,1,247.6,171,4.28,4.28,0,0,1,251.88,175.31Z"/><path class="cls-3" d="M257,215.51a4.28,4.28,0,1,1-4.28-4.28A4.28,4.28,0,0,1,257,215.51Z"/><line class="cls-3" x1="123.13" y1="143.73" x2="134.92" y2="143.73"/><path class="cls-3" d="M134.92,153.91H116.15a4,4,0,0,1-4-4v-7.55a4,4,0,0,0-4-4h-5.83"/><path class="cls-3" d="M134.92,164.08H107.15a4,4,0,0,0-4,4v6.15"/><line class="cls-3" x1="115.3" y1="174.25" x2="134.92" y2="174.25"/><line class="cls-3" x1="123.13" y1="184.42" x2="134.92" y2="184.42"/><line class="cls-3" x1="100.74" y1="194.6" x2="134.92" y2="194.6"/><path class="cls-3" d="M134.92,204.77h-15.6a4,4,0,0,0-4,4v8a4,4,0,0,1-4,4h-6"/><path class="cls-3" d="M96.68,220.85a4.28,4.28,0,1,1,4.27,4.27A4.27,4.27,0,0,1,96.68,220.85Z"/><circle class="cls-3" cx="95.95" cy="194.6" r="4.28"/><path class="cls-3" d="M98.85,178.53a4.28,4.28,0,1,1,4.28,4.28A4.28,4.28,0,0,1,98.85,178.53Z"/><path class="cls-3" d="M93.73,138.33A4.28,4.28,0,1,1,98,142.6,4.27,4.27,0,0,1,93.73,138.33Z"/><line class="cls-3" x1="208.52" y1="132.99" x2="208.52" y2="139.07"/><path class="cls-3" d="M198.34,139.07v-12a4,4,0,0,1,4-4h12.92"/><path class="cls-3" d="M188.17,139.07V120.12a4,4,0,0,0-4-4H178"/><line class="cls-3" x1="178" y1="127.54" x2="178" y2="139.07"/><line class="cls-3" x1="167.82" y1="127.54" x2="167.82" y2="139.07"/><line class="cls-3" x1="157.65" y1="116.29" x2="157.65" y2="139.07"/><path class="cls-3" d="M147.48,139.07v-3.28a4,4,0,0,0-4-4h-8a4,4,0,0,1-4-4V121.7"/><path class="cls-3" d="M131.4,113.15a4.28,4.28,0,1,1-4.28,4.28A4.27,4.27,0,0,1,131.4,113.15Z"/><path class="cls-3" d="M157.65,107.22a4.28,4.28,0,1,1-4.28,4.28A4.28,4.28,0,0,1,157.65,107.22Z"/><path class="cls-3" d="M173.72,111.82a4.28,4.28,0,1,1-4.28,4.28A4.28,4.28,0,0,1,173.72,111.82Z"/><path class="cls-3" d="M219.56,118.77a4.28,4.28,0,1,1-4.28,4.28A4.28,4.28,0,0,1,219.56,118.77Z"/><line class="cls-3" x1="142.45" y1="226.03" x2="142.45" y2="219.95"/><path class="cls-3" d="M152.62,219.57V237.2a4,4,0,0,1-4,4h-1.88"/><path class="cls-3" d="M162.79,220v19a4,4,0,0,0,4,4H173"/><line class="cls-3" x1="172.96" y1="231.48" x2="172.96" y2="219.95"/><line class="cls-3" x1="183.14" y1="231.48" x2="183.14" y2="219.95"/><line class="cls-3" x1="193.31" y1="250.27" x2="193.31" y2="219.95"/><path class="cls-3" d="M203.48,220v3.28a4,4,0,0,0,4,4h.66a4,4,0,0,1,4,4v9.48"/><path class="cls-3" d="M212.17,249.3a4.28,4.28,0,1,1,4.28-4.28A4.28,4.28,0,0,1,212.17,249.3Z"/><path class="cls-3" d="M193.31,258.83a4.28,4.28,0,1,1,4.28-4.28A4.28,4.28,0,0,1,193.31,258.83Z"/><path class="cls-3" d="M177.24,247.2a4.28,4.28,0,1,1,4.28-4.28A4.28,4.28,0,0,1,177.24,247.2Z"/><path class="cls-3" d="M142.45,245.08a4.28,4.28,0,1,1,4.27-4.28A4.28,4.28,0,0,1,142.45,245.08Z"/><text class="cls-4" transform="translate(152.02 192.11)">A.I.</text></g></g></g></svg>