<svg xmlns="http://www.w3.org/2000/svg" viewBox="0 0 54.19 85.35"><defs><style>.cls-1{fill:#1e1f2e;}.cls-2{fill:#6cc6ee;}.cls-3{fill:#fff;}</style></defs><title>About us lication iconAsset 3</title><g id="Layer_2" data-name="Layer 2"><g id="Guides"><path class="cls-1" d="M27.17,0a27,27,0,0,1,25,16.69,27.63,27.63,0,0,1-5.72,29.57,32.43,32.43,0,0,0-5,6.84c-3.54,6.44-6.8,13-10.19,19.53a16.22,16.22,0,0,1-1.59,2.67c-1.27,1.56-2.89,1.79-4.39.45a11.54,11.54,0,0,1-2.43-3.2C19,65.27,15.28,57.93,11.47,50.64A11.82,11.82,0,0,0,9,47.47a27.44,27.44,0,0,1-7.26-30A27,27,0,0,1,27.17,0ZM27.1,40.67A14.21,14.21,0,1,0,12.89,26.78,14.16,14.16,0,0,0,27.1,40.67Z"/><path class="cls-2" d="M18.16,69.53a76,76,0,0,0-7.5,3.72c-2.28,1.48-2.25,3.23,0,4.72a20,20,0,0,0,5.61,2.6,41.83,41.83,0,0,0,23.16-.31,16.34,16.34,0,0,0,3.89-1.79c3.11-1.94,3.12-3.82,0-5.75A20.53,20.53,0,0,0,40,71.09c-1.16-.46-2.39-.78-3.59-1.16,1.13-3,1.29-3.14,4.11-2.1a23.89,23.89,0,0,1,5.37,2.56c4.28,3,4.35,7.64-.1,10.35a30.5,30.5,0,0,1-9.28,3.57A41.61,41.61,0,0,1,14,83.22,19.8,19.8,0,0,1,8,80c-3.1-2.48-3.09-6.43.09-8.83a23.61,23.61,0,0,1,6.78-3.36C15.59,67.52,16.86,68.81,18.16,69.53Z"/><path class="cls-3" d="M27.1,40.67A14.13,14.13,0,0,1,12.89,26.78,14.28,14.28,0,0,1,27,12.26a14.21,14.21,0,0,1,.09,28.41Zm-.29-6.38a7.81,7.81,0,0,0,7.93-7.86,8,8,0,0,0-7.87-8,8,8,0,0,0-7.8,7.84A7.78,7.78,0,0,0,26.81,34.29Z"/><path class="cls-2" d="M26.81,34.29a7.78,7.78,0,0,1-7.74-8,8,8,0,0,1,7.8-7.84,8,8,0,0,1,7.87,8A7.81,7.81,0,0,1,26.81,34.29Z"/></g></g></svg>