<svg xmlns="http://www.w3.org/2000/svg" viewBox="0 0 112.14 94.52"><defs><style>.cls-1{fill:#fff;}.cls-2{fill:#6cc5ed;}.cls-3{fill:#666;}</style></defs><title>Asset 7</title><g id="Layer_2" data-name="Layer 2"><g id="Layer_1-2" data-name="Layer 1"><polygon class="cls-1" points="66.51 25.34 66.51 40.54 63.15 44.53 45.2 44.53 45.2 53.63 73.37 53.63 84.71 60.73 83.84 52.38 88.45 52.38 88.45 25.34 66.51 25.34"/><polygon class="cls-2" points="24.39 18.36 66.89 18.36 66.89 41.04 63.27 43.91 38.6 43.91 28.88 51.38 26.88 43.91 23.14 42.41 24.39 18.36"/><polygon class="cls-3" points="23.73 87.91 25.25 87.91 25.25 94.52 28.61 94.52 28.61 87.91 30.13 87.91 30.13 79.34 23.73 79.34 23.73 87.91"/><polygon class="cls-3" points="38.3 87.91 39.82 87.91 39.82 94.52 43.18 94.52 43.18 87.91 44.7 87.91 44.7 79.34 38.3 79.34 38.3 87.91"/><polygon class="cls-3" points="52.87 87.91 54.39 87.91 54.39 94.52 57.75 94.52 57.75 87.91 59.28 87.91 59.28 79.34 52.87 79.34 52.87 87.91"/><polygon class="cls-3" points="67.44 87.91 68.97 87.91 68.97 94.52 72.32 94.52 72.32 87.91 73.85 87.91 73.85 79.34 67.44 79.34 67.44 87.91"/><polygon class="cls-3" points="82.01 87.91 83.53 87.91 83.53 94.52 86.89 94.52 86.89 87.91 88.42 87.91 88.42 79.34 82.01 79.34 82.01 87.91"/><polygon class="cls-3" points="6.61 65.91 0 65.91 0 69.27 6.61 69.27 6.61 70.8 15.18 70.8 15.18 64.39 6.61 64.39 6.61 65.91"/><polygon class="cls-3" points="6.61 51.34 0 51.34 0 54.7 6.61 54.7 6.61 56.23 15.18 56.23 15.18 49.82 6.61 49.82 6.61 51.34"/><polygon class="cls-3" points="6.61 36.77 0 36.77 0 40.13 6.61 40.13 6.61 41.65 15.18 41.65 15.18 35.24 6.61 35.24 6.61 36.77"/><polygon class="cls-3" points="6.61 22.2 0 22.2 0 25.56 6.61 25.56 6.61 27.08 15.18 27.08 15.18 20.68 6.61 20.68 6.61 22.2"/><polygon class="cls-3" points="6.61 7.63 0 7.63 0 10.99 6.61 10.99 6.61 12.51 15.18 12.51 15.18 6.1 6.61 6.1 6.61 7.63"/><polygon class="cls-3" points="105.53 64.39 96.96 64.39 96.96 70.8 105.53 70.8 105.53 69.27 112.14 69.27 112.14 65.91 105.53 65.91 105.53 64.39"/><polygon class="cls-3" points="105.53 49.82 96.96 49.82 96.96 56.23 105.53 56.23 105.53 54.7 112.14 54.7 112.14 51.34 105.53 51.34 105.53 49.82"/><polygon class="cls-3" points="105.53 35.24 96.96 35.24 96.96 41.65 105.53 41.65 105.53 40.13 112.14 40.13 112.14 36.77 105.53 36.77 105.53 35.24"/><polygon class="cls-3" points="105.53 20.68 96.96 20.68 96.96 27.08 105.53 27.08 105.53 25.56 112.14 25.56 112.14 22.2 105.53 22.2 105.53 20.68"/><polygon class="cls-3" points="105.53 7.63 105.53 6.1 96.96 6.1 96.96 12.51 105.53 12.51 105.53 10.99 112.14 10.99 112.14 7.63 105.53 7.63"/><path class="cls-3" d="M90.86,0H21.28a3.66,3.66,0,0,0-3.66,3.66V73.24a3.66,3.66,0,0,0,3.66,3.66H90.86a3.66,3.66,0,0,0,3.66-3.66V3.66A3.66,3.66,0,0,0,90.86,0ZM29,43.06a3.56,3.56,0,0,1-3.48-3.63V23.08A3.56,3.56,0,0,1,29,19.46H62.08a3.56,3.56,0,0,1,3.49,3.62V39.43a3.56,3.56,0,0,1-3.49,3.63H38.54L29,49.42l1.74-6.36Zm57.72,4.4a3.55,3.55,0,0,1-3.48,3.62H81.45l1.74,6.36L73.6,51.08H50.07a3.55,3.55,0,0,1-3.49-3.62v-2h15.5A6,6,0,0,0,68,39.43V27.48H83.19a3.56,3.56,0,0,1,3.48,3.63V47.46Z"/></g></g></svg>