<svg xmlns="http://www.w3.org/2000/svg" viewBox="0 0 76.55 76.55"><defs><style>.cls-1{fill:#6cc5ed;}.cls-2{fill:#666;}.cls-3{fill:#4d4d4d;}</style></defs><title>Asset 8</title><g id="Layer_2" data-name="Layer 2"><g id="Layer_1-2" data-name="Layer 1"><rect class="cls-1" x="7.02" y="1.86" width="25.14" height="14.87"/><rect class="cls-1" x="43.73" y="1.86" width="25.14" height="14.87"/><path class="cls-2" d="M25.58,29.41A28.21,28.21,0,0,0,14.75,39l-1.29,1.93,1.29,1.93a28.31,28.31,0,0,0,10.83,9.58,17.07,17.07,0,0,1,0-23Z"/><circle class="cls-3" cx="38.27" cy="40.91" r="1.32"/><path class="cls-2" d="M6.6,18.48H11l6.2,4.13V18.48H33a1.33,1.33,0,0,0,1.32-1.32V1.32A1.32,1.32,0,0,0,33,0H6.6A1.32,1.32,0,0,0,5.28,1.32V17.16A1.33,1.33,0,0,0,6.6,18.48ZM13.2,2.64H31.67V5.28H13.2Zm-5.28,0h2.64V5.28H7.92Zm0,5.28H31.67v2.64H7.92Zm0,5.28H31.67v2.64H7.92Z"/><path class="cls-2" d="M43.55,18.48H59.39v4.13l6.2-4.13H70a1.33,1.33,0,0,0,1.32-1.32V1.32A1.32,1.32,0,0,0,70,0H43.55a1.32,1.32,0,0,0-1.32,1.32V17.16A1.33,1.33,0,0,0,43.55,18.48Zm6.6-15.84H68.63V5.28H50.15Zm-5.28,0h2.64V5.28H44.87Zm0,5.28H68.63v2.64H44.87Zm0,5.28H63.35v2.64H44.87Z"/><path class="cls-3" d="M38.27,34.31a6.6,6.6,0,1,0,6.6,6.6A6.61,6.61,0,0,0,38.27,34.31Zm0,10.56a4,4,0,1,1,4-4A4,4,0,0,1,38.27,44.87Z"/><path class="cls-2" d="M15.44,60.71H0v4a4,4,0,0,0,4,4H72.59a4,4,0,0,0,4-4V63.35H19.4ZM5.28,66H2.64V63.35H5.28Zm5.28,0H7.92V63.35h2.64Zm5.28,0H13.2V63.35h2.64Z"/><polygon class="cls-2" points="52.79 71.27 23.76 71.27 23.76 73.91 18.48 73.91 18.48 76.55 23.76 76.55 52.79 76.55 58.07 76.55 58.07 73.91 52.79 73.91 52.79 71.27"/><path class="cls-1" d="M38.27,26.4A14.52,14.52,0,1,0,52.79,40.91,14.53,14.53,0,0,0,38.27,26.4Zm0,23.75a9.24,9.24,0,1,1,9.24-9.24A9.25,9.25,0,0,1,38.27,50.15Z"/><path class="cls-2" d="M73.62,18.63A4,4,0,0,1,70,21.12H66.39l-9.64,6.42V21.12H43.55a3.94,3.94,0,0,1-3.71-2.64H36.71A4,4,0,0,1,33,21.12H19.8v6.42l-9.64-6.42H6.6a4,4,0,0,1-3.67-2.49A4,4,0,0,0,0,22.44V58.07H16.24l4,2.64H76.55V22.44A4,4,0,0,0,73.62,18.63ZM13.2,55.43H2.64V52.79H13.2Zm0-5.28H2.64V47.51H13.2Zm25.07,7.92A30.86,30.86,0,0,1,12.55,44.3l-2.26-3.39,2.26-3.39a30.92,30.92,0,0,1,51.44,0l2.26,3.39L64,44.3A30.84,30.84,0,0,1,38.27,58.07Zm35.64,0H63.35V55.43H73.91Zm0-5.28H63.35V50.15H73.91Z"/><path class="cls-2" d="M51,29.41a17.07,17.07,0,0,1,0,23A28.31,28.31,0,0,0,61.8,42.84l1.28-1.93L61.8,39A28.28,28.28,0,0,0,51,29.41Z"/></g></g></svg>