<svg xmlns="http://www.w3.org/2000/svg" viewBox="0 0 76.18 76.85"><defs><style>.cls-1{fill:#6cc5ed;}.cls-2{fill:#666;}</style></defs><title>Asset 9</title><g id="Layer_2" data-name="Layer 2"><g id="Layer_1-2" data-name="Layer 1"><rect class="cls-1" x="19.24" y="42.36" width="55.21" height="33.47"/><path class="cls-2" d="M43.34,0H9.19A1.34,1.34,0,0,0,7.88,1.37v11a1.34,1.34,0,0,0,1.31,1.37H43.34a1.34,1.34,0,0,0,1.32-1.37v-11A1.34,1.34,0,0,0,43.34,0ZM14.45,11a4,4,0,0,1-3.94-4.12,4,4,0,0,1,3.94-4.12,4,4,0,0,1,3.94,4.12A4,4,0,0,1,14.45,11ZM26.27,8.23H23.64V5.49h2.63Zm5.25,0H28.9V5.49h2.62Zm5.26,0H34.15V5.49h2.63Zm5.25,0H39.4V5.49H42Z"/><ellipse class="cls-2" cx="14.45" cy="23.33" rx="1.31" ry="1.37"/><path class="cls-2" d="M39.4,68.5a8.07,8.07,0,0,0,6.46-6.74H39.4Z"/><path class="cls-2" d="M19.7,27.45h25V17.84a1.34,1.34,0,0,0-1.32-1.37H9.19a1.34,1.34,0,0,0-1.31,1.37v11a1.34,1.34,0,0,0,1.31,1.37H16A4,4,0,0,1,19.7,27.45ZM39.4,22H42V24.7H39.4Zm-5.25,0h2.63V24.7H34.15ZM28.9,22h2.62V24.7H28.9Zm-5.26,0h2.63V24.7H23.64ZM10.51,23.33a4,4,0,0,1,3.94-4.12,4.12,4.12,0,0,1,0,8.24A4,4,0,0,1,10.51,23.33Z"/><path class="cls-2" d="M18.39,31.56v6.87H76.18V31.56a1.35,1.35,0,0,0-1.31-1.37H19.7A1.35,1.35,0,0,0,18.39,31.56Zm13.13,1.38h2.63v2.74H31.52Zm-5.25,0H28.9v2.74H26.27Zm-5.25,0h2.62v2.74H21Z"/><ellipse class="cls-2" cx="14.45" cy="6.86" rx="1.31" ry="1.37"/><path class="cls-2" d="M15.76,32.94H9.19a1.34,1.34,0,0,0-1.31,1.37v11a1.34,1.34,0,0,0,1.31,1.37h6.57v-3a3.68,3.68,0,0,1-1.31.26,4.12,4.12,0,0,1,0-8.24,3.9,3.9,0,0,1,1.31.25Z"/><path class="cls-2" d="M19.7,76.85H74.87a1.34,1.34,0,0,0,1.31-1.37V41.17H18.39V75.48A1.34,1.34,0,0,0,19.7,76.85Zm18.39-5.49A1.33,1.33,0,0,1,36.78,70V60.38A1.34,1.34,0,0,1,38.09,59h9.19a1.35,1.35,0,0,1,1.32,1.37A10.76,10.76,0,0,1,38.09,71.36Zm25-11h10.5v2.75H63.05ZM55.16,46.66h5.26V49.4H55.16Zm0,5.49h5.26v2.74H55.16Zm0,8.23h5.26v2.75H55.16Zm0,5.49H73.55v2.75H55.16ZM47.67,47.06a1.26,1.26,0,0,1,.93-.4h3.94V49.4h-3.4L46.9,51.75,45,49.81ZM34.15,45.29a10.76,10.76,0,0,1,10.51,11,1.35,1.35,0,0,1-1.32,1.37H35.46v8.23a1.35,1.35,0,0,1-1.31,1.38,11,11,0,0,1,0-22ZM21,65.87h5.25v2.75H21Zm0,5.49h5.25v2.75H21Z"/><path class="cls-2" d="M32.84,64.39V56.27a1.34,1.34,0,0,1,1.31-1.38h7.77a7.92,7.92,0,0,0-9.08-6.74,8.2,8.2,0,0,0-6.46,9.49A8.07,8.07,0,0,0,32.84,64.39Z"/><ellipse class="cls-2" cx="14.45" cy="39.8" rx="1.31" ry="1.37"/><path class="cls-2" d="M51.22,5.49H47.28V8.23h2.63V22H47.28V24.7h2.63v2.75h2.63V6.86A1.34,1.34,0,0,0,51.22,5.49Z"/><path class="cls-2" d="M0,6.86V39.8a1.34,1.34,0,0,0,1.31,1.37H5.25V38.43H2.63V24.7H5.25V22H2.63V8.23H5.25V5.49H1.31A1.34,1.34,0,0,0,0,6.86Z"/></g></g></svg>