<?xml version="1.0" encoding="UTF-8"?> <svg xmlns="http://www.w3.org/2000/svg" width="76" height="76" viewBox="0 0 76 76" fill="none"><circle cx="38" cy="38" r="30" fill="#1A2328"></circle><g opacity="0.78"><mask id="mask0" maskUnits="userSpaceOnUse" x="0" y="0" width="76" height="76"><circle cx="38" cy="38" r="38" fill="#C4C4C4"></circle></mask><g mask="url(#mask0)"><path d="M0.0717163 -0.972973C1.68113 -1.00877 3.29054 -0.937179 4.86419 -0.650827C5.65101 -0.507651 6.43783 -0.292887 7.22466 -0.149711C8.01148 0.0292588 8.76254 0.172435 9.54936 0.244023C11.123 0.422993 12.7324 0.422993 14.3061 0.315611C15.8797 0.244023 17.4176 -0.0781231 18.9555 -0.507651C19.7423 -0.722415 20.5291 -0.937179 21.316 -1.04456C22.1028 -1.18774 22.9254 -1.25932 23.748 -1.29512C25.3574 -1.36671 26.9668 -1.36671 28.612 -1.18774C29.4345 -1.11615 30.2214 -0.937179 31.0082 -0.758209C31.795 -0.579239 32.5461 -0.364475 33.3329 -0.221299C34.8708 0.100847 36.4087 0.208229 38.0181 0.172435C39.5917 0.172435 41.1654 0.0650529 42.7033 -0.221299C43.4543 -0.364475 44.2411 -0.579239 45.028 -0.758209C45.8148 -0.937179 46.6374 -1.11615 47.4242 -1.18774C49.0336 -1.36671 50.6788 -1.36671 52.2882 -1.29512C53.1108 -1.25932 53.8976 -1.15194 54.7202 -1.04456C55.507 -0.901385 56.3296 -0.686621 57.0807 -0.507651C58.6185 -0.0781231 60.1564 0.208229 61.7301 0.315611C63.3037 0.422993 64.9131 0.422993 66.451 0.244023C67.2378 0.172435 68.0247 0.0292588 68.7757 -0.149711C69.5625 -0.328681 70.3136 -0.507651 71.1362 -0.650827C72.7098 -0.937179 74.3193 -1.00877 75.9287 -0.972973V-0.901385C74.3193 -0.901385 72.7456 -0.794003 71.172 -0.471857C70.3851 -0.292887 69.6341 -0.113917 68.8473 0.100847C68.0604 0.279817 67.2736 0.458787 66.4868 0.530375C64.9131 0.709345 63.3037 0.745139 61.6943 0.673551C60.0849 0.601963 58.5113 0.315611 56.9734 -0.0781232C55.4355 -0.507651 53.8618 -0.758209 52.2524 -0.829797C50.643 -0.901385 49.0694 -0.901385 47.46 -0.686621C46.6731 -0.579239 45.8863 -0.436063 45.0995 -0.257093C44.3127 -0.0781232 43.5616 0.136641 42.7748 0.315611C41.2011 0.637757 39.5917 0.745139 38.0181 0.745139C36.4087 0.745139 34.7993 0.637757 33.2614 0.315611C32.4745 0.136641 31.7235 -0.0781232 30.9367 -0.257093C30.1498 -0.436063 29.363 -0.615033 28.5762 -0.686621C27.0025 -0.865591 25.3931 -0.901385 23.7837 -0.829797C22.1743 -0.758209 20.6007 -0.471857 19.0628 -0.0781232C17.5249 0.315611 15.9155 0.601963 14.3061 0.673551C12.6967 0.745139 11.0872 0.745139 9.5136 0.530375C8.72678 0.422993 7.93995 0.279817 7.15313 0.100847C6.3663 -0.0781232 5.61525 -0.292887 4.82842 -0.471857C3.29054 -0.794003 1.68113 -0.901385 0.0717163 -0.901385V-0.972973Z" fill="#1A2328"></path><path d="M0.0715332 1.13836C1.68095 1.10256 3.29036 1.17415 4.864 1.4605C5.65083 1.60368 6.43765 1.81844 7.22448 1.96162C8.0113 2.14059 8.76236 2.28376 9.54918 2.35535C11.1228 2.53432 12.6965 2.49853 14.2701 2.42694C15.8438 2.35535 17.3817 2.03321 18.9195 1.60368C19.7064 1.38891 20.4932 1.17415 21.28 1.06677C22.0668 0.923591 22.8894 0.852003 23.712 0.816209C25.3214 0.744621 26.9308 0.744621 28.576 0.923591C29.3986 0.995179 30.1854 1.17415 30.9722 1.35312C31.7591 1.53209 32.5101 1.74685 33.297 1.89003C34.8348 2.21218 36.3727 2.31956 37.9821 2.28376C39.5558 2.28376 41.1294 2.17638 42.6673 1.89003C43.4184 1.74685 44.2052 1.53209 44.992 1.35312C45.7788 1.17415 46.6014 0.995179 47.3882 0.923591C48.9977 0.744621 50.6428 0.744621 52.2523 0.816209C53.0748 0.852003 53.8617 0.959385 54.6842 1.06677C55.4711 1.20994 56.2937 1.42471 57.0447 1.60368C58.5826 2.03321 60.1205 2.31956 61.6941 2.42694C63.2678 2.53432 64.8772 2.53432 66.4151 2.35535C67.2019 2.28376 67.9887 2.14059 68.7398 1.96162C69.5266 1.78265 70.2777 1.60368 71.1003 1.4605C72.6739 1.17415 74.2833 1.10256 75.8927 1.13836V1.17415C74.2833 1.17415 72.7097 1.28153 71.136 1.60368C70.3492 1.78265 69.5981 1.96162 68.8113 2.17638C68.0245 2.35535 67.2377 2.53432 66.4508 2.60591C64.8772 2.78488 63.2678 2.82067 61.6584 2.74908C60.049 2.6775 58.4753 2.39114 56.9374 1.99741C55.3995 1.56788 53.8259 1.31733 52.2165 1.24574C50.6071 1.17415 49.0334 1.17415 47.424 1.38891C46.6372 1.49629 45.8504 1.63947 45.0635 1.81844C44.2767 1.99741 43.5257 2.21217 42.7388 2.39114C41.1652 2.71329 39.5558 2.82067 37.9821 2.82067C36.3727 2.82067 34.7633 2.71329 33.2254 2.39114C32.4386 2.21217 31.6875 1.99741 30.9007 1.81844C30.1139 1.63947 29.3271 1.4605 28.5402 1.38891C26.9666 1.20994 25.3572 1.17415 23.7478 1.24574C22.1384 1.31733 20.5647 1.60368 19.0268 1.99741C17.4889 2.42694 15.8795 2.71329 14.3059 2.74908C12.6965 2.82067 11.0871 2.82067 9.51342 2.60591C8.72659 2.49853 7.93977 2.35535 7.15295 2.17638C6.36612 1.99741 5.61506 1.78265 4.82824 1.60368C3.29036 1.31733 1.68095 1.20994 0.0715332 1.20994V1.13836Z" fill="#1A2328"></path><path d="M0.0715332 3.28679C1.68095 3.251 3.29036 3.32259 4.864 3.60894C5.65083 3.75211 6.43765 3.96688 7.22448 4.11005C8.0113 4.28902 8.76236 4.4322 9.54918 4.50379C11.1228 4.68276 12.6965 4.64696 14.2701 4.57538C15.8438 4.50379 17.3817 4.18164 18.9195 3.75211C19.7064 3.53735 20.4932 3.32259 21.28 3.2152C22.0668 3.07203 22.8894 3.00044 23.712 2.96465C25.3214 2.89306 26.9308 2.89306 28.576 3.07203C29.3986 3.14362 30.1854 3.32259 30.9722 3.50156C31.7591 3.68053 32.5101 3.89529 33.297 4.03847C34.8348 4.36061 36.3727 4.46799 37.9821 4.4322C39.5558 4.4322 41.1294 4.32482 42.6673 4.03847C43.4184 3.89529 44.2052 3.68053 44.992 3.50156C45.7788 3.32259 46.6014 3.14362 47.3882 3.07203C48.9977 2.89306 50.6428 2.89306 52.2523 2.96465C53.0748 3.00044 53.8617 3.10782 54.6842 3.2152C55.4711 3.35838 56.2937 3.57314 57.0447 3.75211C58.5826 4.18164 60.1205 4.46799 61.6941 4.57538C63.2678 4.68276 64.8772 4.68276 66.4151 4.50379C67.2019 4.4322 67.9887 4.28902 68.7398 4.11005C69.5266 3.93108 70.2777 3.75211 71.1003 3.60894C72.6739 3.32259 74.2833 3.251 75.8927 3.28679V3.32259C74.2833 3.32259 72.7097 3.42997 71.136 3.75211C70.3492 3.93108 69.5981 4.11005 68.8113 4.32482C68.0245 4.50379 67.2377 4.68276 66.4508 4.75435C64.8772 4.93332 63.2678 4.96911 61.6584 4.89752C60.049 4.82593 58.4753 4.53958 56.9374 4.14585C55.3995 3.71632 53.8259 3.46576 52.2165 3.39417C50.6071 3.32259 49.0334 3.32259 47.424 3.53735C46.6372 3.64473 45.8504 3.78791 45.0635 3.96688C44.2767 4.14585 43.5257 4.36061 42.7388 4.53958C41.1652 4.86173 39.5558 4.96911 37.9821 4.96911C36.3727 4.96911 34.7633 4.86173 33.2254 4.53958C32.4386 4.36061 31.6875 4.14585 30.9007 3.96688C30.1139 3.78791 29.3271 3.60894 28.5402 3.53735C26.9666 3.35838 25.3572 3.32259 23.7478 3.39417C22.1384 3.46576 20.5647 3.75211 19.0268 4.14585C17.4889 4.57538 15.8795 4.86173 14.3059 4.89752C12.6965 4.96911 11.0871 4.96911 9.51342 4.75435C8.72659 4.64696 7.93977 4.50379 7.15295 4.32482C6.36612 4.14585 5.61506 3.93108 4.82824 3.75211C3.25459 3.42997 1.68095 3.32259 0.0715332 3.32259V3.28679Z" fill="#1A2328"></path><path d="M0.0715332 5.39812C1.68095 5.36233 3.29036 5.43391 4.864 5.72027C5.65083 5.86344 6.43765 6.07821 7.22448 6.22138C8.0113 6.40035 8.76236 6.54353 9.54918 6.61512C11.1228 6.79409 12.6965 6.75829 14.2701 6.6867C15.8438 6.61512 17.3817 6.29297 18.9195 5.86344C19.7064 5.64868 20.4932 5.43392 21.28 5.32653C22.0668 5.18336 22.8894 5.11177 23.712 5.07597C25.3214 5.00439 26.9308 5.00439 28.576 5.18336C29.3986 5.25494 30.1854 5.43391 30.9722 5.61288C31.7591 5.79185 32.5101 6.00662 33.297 6.14979C34.8348 6.47194 36.3727 6.57932 37.9821 6.54353C39.5558 6.54353 41.1294 6.43615 42.6673 6.14979C43.4184 6.00662 44.2052 5.79185 44.992 5.61288C45.7788 5.43391 46.6014 5.25494 47.3882 5.18336C48.9977 5.00439 50.6428 5.00439 52.2523 5.07597C53.0748 5.11177 53.8617 5.21915 54.6842 5.32653C55.4711 5.46971 56.2937 5.68447 57.0447 5.86344C58.5826 6.29297 60.1205 6.57932 61.6941 6.6867C63.2678 6.79409 64.8772 6.79409 66.4151 6.61512C67.2019 6.54353 67.9887 6.40035 68.7398 6.22138C69.5266 6.04241 70.2777 5.86344 71.1003 5.72027C72.6739 5.43391 74.2833 5.36233 75.8927 5.39812V5.43391C74.2833 5.43391 72.7097 5.5413 71.136 5.86344C70.3492 6.04241 69.5981 6.22138 68.8113 6.43615C68.0245 6.61512 67.2377 6.79409 66.4508 6.86567C64.8772 7.04465 63.2678 7.08044 61.6584 7.00885C60.049 6.93726 58.4753 6.65091 56.9374 6.25718C55.3995 5.82765 53.8259 5.57709 52.2165 5.5055C50.6071 5.43392 49.0334 5.43392 47.424 5.64868C46.6372 5.75606 45.8504 5.89924 45.0635 6.07821C44.2767 6.25718 43.5257 6.47194 42.7388 6.65091C41.1652 6.97306 39.5558 7.08044 37.9821 7.08044C36.3727 7.08044 34.7633 6.97306 33.2254 6.65091C32.4386 6.47194 31.6875 6.25718 30.9007 6.07821C30.1139 5.89924 29.3271 5.72027 28.5402 5.64868C26.9666 5.46971 25.3572 5.43392 23.7478 5.5055C22.1384 5.57709 20.5647 5.86344 19.0268 6.25718C17.4889 6.6867 15.8795 6.97306 14.3059 7.00885C12.6965 7.08044 11.0871 7.08044 9.51342 6.86567C8.72659 6.75829 7.93977 6.61512 7.15295 6.43615C6.36612 6.25718 5.61506 6.04241 4.82824 5.86344C3.29036 5.5413 1.68095 5.46971 0.0715332 5.43391V5.39812Z" fill="#1A2328"></path><path d="M0.0715332 7.50945C1.68095 7.47365 3.29036 7.54524 4.864 7.83159C5.65083 7.97477 6.43765 8.18953 7.22448 8.33271C8.0113 8.51168 8.76236 8.65486 9.54918 8.72644C11.1228 8.90541 12.6965 8.86962 14.2701 8.79803C15.8438 8.72644 17.3817 8.4043 18.9195 7.97477C19.7064 7.76001 20.4932 7.54524 21.28 7.43786C22.0668 7.29469 22.8894 7.2231 23.712 7.1873C25.3214 7.11571 26.9308 7.11572 28.576 7.29469C29.3986 7.36627 30.1854 7.54524 30.9722 7.72421C31.7591 7.90318 32.5101 8.11795 33.297 8.26112C34.8348 8.58327 36.3727 8.69065 37.9821 8.65486C39.5558 8.65486 41.1294 8.54747 42.6673 8.26112C43.4184 8.11795 44.2052 7.90318 44.992 7.72421C45.7788 7.54524 46.6014 7.36627 47.3882 7.29469C48.9977 7.11572 50.6428 7.11571 52.2523 7.1873C53.0748 7.2231 53.8617 7.33048 54.6842 7.43786C55.4711 7.58104 56.2937 7.7958 57.0447 7.97477C58.5826 8.4043 60.1205 8.69065 61.6941 8.79803C63.2678 8.90541 64.8772 8.90541 66.4151 8.72644C67.2019 8.65486 67.9887 8.51168 68.7398 8.33271C69.5266 8.15374 70.2777 7.97477 71.1003 7.83159C72.6739 7.54524 74.2833 7.47365 75.8927 7.50945V7.58104C74.2833 7.58104 72.7097 7.68842 71.136 8.01056C70.3492 8.18953 69.5981 8.3685 68.8113 8.58327C68.0245 8.76224 67.2377 8.94121 66.4508 9.0128C64.8772 9.19177 63.2678 9.22756 61.6584 9.15597C60.049 9.08438 58.4753 8.79803 56.9374 8.4043C55.3995 7.97477 53.8259 7.72421 52.2165 7.65262C50.6071 7.58104 49.0334 7.58104 47.424 7.7958C46.6372 7.90318 45.8504 8.04636 45.0635 8.22533C44.2767 8.4043 43.5257 8.61906 42.7388 8.79803C41.1652 9.12018 39.5558 9.22756 37.9821 9.22756C36.3727 9.22756 34.7633 9.12018 33.2254 8.79803C32.4386 8.61906 31.6875 8.4043 30.9007 8.22533C30.1139 8.04636 29.3271 7.86739 28.5402 7.7958C26.9666 7.61683 25.3572 7.58104 23.7478 7.65262C22.1384 7.72421 20.5647 8.01056 19.0268 8.4043C17.4889 8.83383 15.8795 9.12018 14.3059 9.15597C12.6965 9.22756 11.0871 9.22756 9.51342 9.0128C8.72659 8.90541 7.93977 8.76224 7.15295 8.58327C6.36612 8.4043 5.61506 8.18953 4.82824 8.01056C3.29036 7.68842 1.68095 7.58104 0.0715332 7.58104V7.50945Z" fill="#1A2328"></path><path d="M0.0715332 9.62273C1.68095 9.58694 3.29036 9.65852 4.864 9.94488C5.65083 10.0881 6.43765 10.3028 7.22448 10.446C8.0113 10.625 8.76236 10.7681 9.54918 10.8397C11.1228 11.0187 12.6965 10.9829 14.2701 10.9113C15.8438 10.8397 17.3817 10.5176 18.9195 10.0881C19.7064 9.87329 20.4932 9.65852 21.28 9.55114C22.0668 9.40797 22.8894 9.33638 23.712 9.30058C25.3214 9.229 26.9308 9.229 28.576 9.40797C29.3986 9.47955 30.1854 9.65852 30.9722 9.83749C31.7591 10.0165 32.5101 10.2312 33.297 10.3744C34.8348 10.6965 36.3727 10.8039 37.9821 10.7681C39.5558 10.7681 41.1294 10.6608 42.6673 10.3744C43.4184 10.2312 44.2052 10.0165 44.992 9.83749C45.7788 9.65852 46.6014 9.47955 47.3882 9.40797C48.9977 9.229 50.6428 9.229 52.2523 9.30058C53.0748 9.33638 53.8617 9.44376 54.6842 9.55114C55.4711 9.69432 56.2937 9.90908 57.0447 10.0881C58.5826 10.5176 60.1205 10.8039 61.6941 10.9113C63.2678 11.0187 64.8772 11.0187 66.4151 10.8397C67.2019 10.7681 67.9887 10.625 68.7398 10.446C69.5266 10.267 70.2777 10.0881 71.1003 9.94488C72.6739 9.65852 74.2833 9.58694 75.8927 9.62273V9.65852C74.2833 9.65852 72.7097 9.76591 71.136 10.0881C70.3492 10.267 69.5981 10.446 68.8113 10.6608C68.0245 10.8397 67.2377 11.0187 66.4508 11.0903C64.8772 11.2693 63.2678 11.305 61.6584 11.2335C60.049 11.1619 58.4753 10.8755 56.9374 10.4818C55.3995 10.0523 53.8259 9.8017 52.2165 9.73011C50.6071 9.65852 49.0334 9.65852 47.424 9.87329C46.6372 9.98067 45.8504 10.1238 45.0635 10.3028C44.2767 10.4818 43.5257 10.6966 42.7388 10.8755C41.1652 11.1977 39.5558 11.305 37.9821 11.305C36.3727 11.305 34.7633 11.1977 33.2254 10.8755C32.4386 10.6966 31.6875 10.4818 30.9007 10.3028C30.1139 10.1238 29.3271 9.94488 28.5402 9.87329C26.9666 9.69432 25.3572 9.65852 23.7478 9.73011C22.1384 9.8017 20.5647 10.0881 19.0268 10.4818C17.4889 10.9113 15.8795 11.1977 14.3059 11.2335C12.6965 11.305 11.0871 11.305 9.51342 11.0903C8.72659 10.9829 7.93977 10.8397 7.15295 10.6608C6.36612 10.4818 5.61506 10.267 4.82824 10.0881C3.25459 9.76591 1.68095 9.65852 0.0715332 9.65852V9.62273Z" fill="#1A2328"></path><path d="M0.0715332 11.7692C1.68095 11.7334 3.29036 11.805 4.864 12.0914C5.65083 12.2345 6.43765 12.4493 7.22448 12.5925C8.0113 12.7714 8.76236 12.9146 9.54918 12.9862C11.1228 13.1652 12.6965 13.1294 14.2701 13.0578C15.8438 12.9862 17.3817 12.6641 18.9195 12.2345C19.7064 12.0198 20.4932 11.805 21.28 11.6976C22.0668 11.5545 22.8894 11.4829 23.712 11.4471C25.3214 11.3755 26.9308 11.3755 28.576 11.5545C29.3986 11.626 30.1854 11.805 30.9722 11.984C31.7591 12.1629 32.5101 12.3777 33.297 12.5209C34.8348 12.843 36.3727 12.9504 37.9821 12.9146C39.5558 12.9146 41.1294 12.8072 42.6673 12.5209C43.4184 12.3777 44.2052 12.1629 44.992 11.984C45.7788 11.805 46.6014 11.626 47.3882 11.5545C48.9977 11.3755 50.6428 11.3755 52.2523 11.4471C53.0748 11.4829 53.8617 11.5902 54.6842 11.6976C55.4711 11.8408 56.2937 12.0556 57.0447 12.2345C58.5826 12.6641 60.1205 12.9504 61.6941 13.0578C63.2678 13.1652 64.8772 13.1652 66.4151 12.9862C67.2019 12.9146 67.9887 12.7714 68.7398 12.5925C69.5266 12.4135 70.2777 12.2345 71.1003 12.0914C72.6739 11.805 74.2833 11.7334 75.8927 11.7692V11.8408C74.2833 11.8408 72.7097 11.9482 71.136 12.2703C70.3492 12.4493 69.5981 12.6283 68.8113 12.843C68.0245 13.022 67.2377 13.201 66.4508 13.2726C64.8772 13.4515 63.2678 13.4873 61.6584 13.4157C60.049 13.3442 58.4753 13.0578 56.9374 12.6641C55.3995 12.2345 53.8259 11.984 52.2165 11.9124C50.6071 11.8408 49.0334 11.8408 47.424 12.0556C46.6372 12.1629 45.8504 12.3061 45.0635 12.4851C44.2767 12.6641 43.5257 12.8788 42.7388 13.0578C41.1652 13.3799 39.5558 13.4873 37.9821 13.4873C36.3727 13.4873 34.7633 13.3799 33.2254 13.0578C32.4386 12.8788 31.6875 12.6641 30.9007 12.4851C30.1139 12.3061 29.3271 12.1272 28.5402 12.0556C26.9666 11.8766 25.3572 11.8408 23.7478 11.9124C22.1384 11.984 20.5647 12.2703 19.0268 12.6641C17.4889 13.0936 15.8795 13.3799 14.3059 13.4157C12.6965 13.4873 11.0871 13.4873 9.51342 13.2726C8.72659 13.1652 7.93977 13.022 7.15295 12.843C6.36612 12.6641 5.61506 12.4493 4.82824 12.2703C3.25459 11.9482 1.68095 11.8408 0.0715332 11.8408V11.7692Z" fill="#1A2328"></path><path d="M0.0715332 13.8825C1.68095 13.8467 3.29036 13.9183 4.864 14.2046C5.65083 14.3478 6.43765 14.5626 7.22448 14.7058C8.0113 14.8847 8.76236 15.0279 9.54918 15.0995C11.1228 15.2785 12.6965 15.2427 14.2701 15.1711C15.8438 15.0995 17.3817 14.7773 18.9195 14.3478C19.7064 14.1331 20.4932 13.9183 21.28 13.8109C22.0668 13.6677 22.8894 13.5961 23.712 13.5603C25.3214 13.4888 26.9308 13.4888 28.576 13.6677C29.3986 13.7393 30.1854 13.9183 30.9722 14.0973C31.7591 14.2762 32.5101 14.491 33.297 14.6342C34.8348 14.9563 36.3727 15.0637 37.9821 15.0279C39.5558 15.0279 41.1294 14.9205 42.6673 14.6342C43.4184 14.491 44.2052 14.2762 44.992 14.0973C45.7788 13.9183 46.6014 13.7393 47.3882 13.6677C48.9977 13.4888 50.6428 13.4888 52.2523 13.5603C53.0748 13.5961 53.8617 13.7035 54.6842 13.8109C55.4711 13.9541 56.2937 14.1688 57.0447 14.3478C58.5826 14.7773 60.1205 15.0637 61.6941 15.1711C63.2678 15.2785 64.8772 15.2785 66.4151 15.0995C67.2019 15.0279 67.9887 14.8847 68.7398 14.7058C69.5266 14.5268 70.2777 14.3478 71.1003 14.2046C72.6739 13.9183 74.2833 13.8467 75.8927 13.8825V13.9541C74.2833 13.9541 72.7097 14.0615 71.136 14.3836C70.3492 14.5626 69.5981 14.7416 68.8113 14.9563C68.0245 15.1353 67.2377 15.3143 66.4508 15.3858C64.8772 15.5648 63.2678 15.6006 61.6584 15.529C60.049 15.4574 58.4753 15.1711 56.9374 14.7773C55.3995 14.3478 53.8259 14.0973 52.2165 14.0257C50.6071 13.9541 49.0334 13.9541 47.424 14.1688C46.6372 14.2762 45.8504 14.4194 45.0635 14.5984C44.2767 14.7773 43.5257 14.9921 42.7388 15.1711C41.1652 15.4932 39.5558 15.6006 37.9821 15.6006C36.3727 15.6006 34.7633 15.4932 33.2254 15.1711C32.4386 14.9921 31.6875 14.7773 30.9007 14.5984C30.1139 14.4194 29.3271 14.2404 28.5402 14.1688C26.9666 13.9899 25.3572 13.9541 23.7478 14.0257C22.1384 14.0973 20.5647 14.3836 19.0268 14.7773C17.4889 15.2069 15.8795 15.4932 14.3059 15.529C12.6965 15.6006 11.0871 15.6006 9.51342 15.3858C8.72659 15.2785 7.93977 15.1353 7.15295 14.9563C6.36612 14.7773 5.61506 14.5626 4.82824 14.3836C3.25459 14.0615 1.68095 13.9541 0.0715332 13.9541V13.8825Z" fill="#1A2328"></path><path d="M0.0715332 15.9938C1.68095 15.958 3.29036 16.0296 4.864 16.316C5.65083 16.4591 6.43765 16.6739 7.22448 16.8171C8.0113 16.9961 8.76236 17.1392 9.54918 17.2108C11.1228 17.3898 12.6965 17.354 14.2701 17.2824C15.8438 17.2108 17.3817 16.8887 18.9195 16.4591C19.7064 16.2444 20.4932 16.0296 21.28 15.9222C22.0668 15.7791 22.8894 15.7075 23.712 15.6717C25.3214 15.6001 26.9308 15.6001 28.576 15.7791C29.3986 15.8506 30.1854 16.0296 30.9722 16.2086C31.7591 16.3876 32.5101 16.6023 33.297 16.7455C34.8348 17.0676 36.3727 17.175 37.9821 17.1392C39.5558 17.1392 41.1294 17.0318 42.6673 16.7455C43.4184 16.6023 44.2052 16.3876 44.992 16.2086C45.7788 16.0296 46.6014 15.8506 47.3882 15.7791C48.9977 15.6001 50.6428 15.6001 52.2523 15.6717C53.0748 15.7075 53.8617 15.8149 54.6842 15.9222C55.4711 16.0654 56.2937 16.2802 57.0447 16.4591C58.5826 16.8887 60.1205 17.175 61.6941 17.2824C63.2678 17.3898 64.8772 17.3898 66.4151 17.2108C67.2019 17.1392 67.9887 16.9961 68.7398 16.8171C69.5266 16.6381 70.2777 16.4591 71.1003 16.316C72.6739 16.0296 74.2833 15.958 75.8927 15.9938V16.0654C74.2833 16.0654 72.7097 16.1728 71.136 16.4949C70.3492 16.6739 69.5981 16.8529 68.8113 17.0676C68.0245 17.2466 67.2377 17.4256 66.4508 17.4972C64.8772 17.6761 63.2678 17.7119 61.6584 17.6403C60.049 17.5688 58.4753 17.2824 56.9374 16.8887C55.3995 16.4591 53.8259 16.2086 52.2165 16.137C50.6071 16.0654 49.0334 16.0654 47.424 16.2802C46.6372 16.3876 45.8504 16.5307 45.0635 16.7097C44.2767 16.8887 43.5257 17.1034 42.7388 17.2824C41.1652 17.6046 39.5558 17.7119 37.9821 17.7119C36.3727 17.7119 34.7633 17.6046 33.2254 17.2824C32.4386 17.1034 31.6875 16.8887 30.9007 16.7097C30.1139 16.5307 29.3271 16.3518 28.5402 16.2802C26.9666 16.1012 25.3572 16.0654 23.7478 16.137C22.1384 16.2086 20.5647 16.4949 19.0268 16.8887C17.4889 17.3182 15.8795 17.6046 14.3059 17.6403C12.6965 17.7119 11.0871 17.7119 9.51342 17.4972C8.72659 17.3898 7.93977 17.2466 7.15295 17.0676C6.36612 16.8887 5.61506 16.6739 4.82824 16.4949C3.29036 16.1728 1.68095 16.0654 0.0715332 16.0654V15.9938Z" fill="#1A2328"></path><path d="M0.0715332 18.1403C1.68095 18.1045 3.29036 18.1761 4.864 18.4625C5.65083 18.6056 6.43765 18.8204 7.22448 18.9636C8.0113 19.1425 8.76236 19.2857 9.54918 19.3573C11.1228 19.5363 12.6965 19.5005 14.2701 19.4289C15.8438 19.3573 17.3817 19.0352 18.9195 18.6056C19.7064 18.3909 20.4932 18.1761 21.28 18.0687C22.0668 17.9255 22.8894 17.854 23.712 17.8182C25.3214 17.7466 26.9308 17.7466 28.576 17.9255C29.3986 17.9971 30.1854 18.1761 30.9722 18.3551C31.7591 18.534 32.5101 18.7488 33.297 18.892C34.8348 19.2141 36.3727 19.3215 37.9821 19.2857C39.5558 19.2857 41.1294 19.1783 42.6673 18.892C43.4184 18.7488 44.2052 18.534 44.992 18.3551C45.7788 18.1761 46.6014 17.9971 47.3882 17.9255C48.9977 17.7466 50.6428 17.7466 52.2523 17.8182C53.0748 17.854 53.8617 17.9613 54.6842 18.0687C55.4711 18.2119 56.2937 18.4267 57.0447 18.6056C58.5826 19.0352 60.1205 19.3215 61.6941 19.4289C63.2678 19.5363 64.8772 19.5363 66.4151 19.3573C67.2019 19.2857 67.9887 19.1425 68.7398 18.9636C69.5266 18.7846 70.2777 18.6056 71.1003 18.4625C72.6739 18.1761 74.2833 18.1045 75.8927 18.1403V18.2119C74.2833 18.2119 72.7097 18.3193 71.136 18.6414C70.3492 18.8204 69.5981 18.9994 68.8113 19.2141C68.0245 19.3931 67.2377 19.5721 66.4508 19.6437C64.8772 19.8226 63.2678 19.8584 61.6584 19.7868C60.049 19.7152 58.4753 19.4289 56.9374 19.0352C55.3995 18.6056 53.8259 18.3551 52.2165 18.2835C50.6071 18.2119 49.0334 18.2119 47.424 18.4267C46.6372 18.534 45.8504 18.6772 45.0635 18.8562C44.2767 19.0352 43.5257 19.2499 42.7388 19.4289C41.1652 19.751 39.5558 19.8584 37.9821 19.8584C36.3727 19.8584 34.7633 19.751 33.2254 19.4289C32.4386 19.2499 31.6875 19.0352 30.9007 18.8562C30.1139 18.6772 29.3271 18.4982 28.5402 18.4267C26.9666 18.2477 25.3572 18.2119 23.7478 18.2835C22.1384 18.3551 20.5647 18.6414 19.0268 19.0352C17.4889 19.4647 15.8795 19.751 14.3059 19.7868C12.6965 19.8584 11.0871 19.8584 9.51342 19.6437C8.72659 19.5363 7.93977 19.3931 7.15295 19.2141C6.36612 19.0352 5.61506 18.8204 4.82824 18.6414C3.25459 18.3193 1.68095 18.2119 0.0715332 18.2119V18.1403Z" fill="#1A2328"></path><path d="M0.0715332 20.2536C1.68095 20.2178 3.29036 20.2894 4.864 20.5757C5.65083 20.7189 6.43765 20.9337 7.22448 21.0769C8.0113 21.2558 8.76236 21.399 9.54918 21.4706C11.1228 21.6496 12.6965 21.6138 14.2701 21.5422C15.8438 21.4706 17.3817 21.1484 18.9195 20.7189C19.7064 20.5041 20.4932 20.2894 21.28 20.182C22.0668 20.0388 22.8894 19.9672 23.712 19.9314C25.3214 19.8599 26.9308 19.8599 28.576 20.0388C29.3986 20.1104 30.1854 20.2894 30.9722 20.4684C31.7591 20.6473 32.5101 20.8621 33.297 21.0053C34.8348 21.3274 36.3727 21.4348 37.9821 21.399C39.5558 21.399 41.1294 21.2916 42.6673 21.0053C43.4184 20.8621 44.2052 20.6473 44.992 20.4684C45.7788 20.2894 46.6014 20.1104 47.3882 20.0388C48.9977 19.8599 50.6428 19.8599 52.2523 19.9314C53.0748 19.9672 53.8617 20.0746 54.6842 20.182C55.4711 20.3252 56.2937 20.5399 57.0447 20.7189C58.5826 21.1484 60.1205 21.4348 61.6941 21.5422C63.2678 21.6496 64.8772 21.6496 66.4151 21.4706C67.2019 21.399 67.9887 21.2558 68.7398 21.0769C69.5266 20.8979 70.2777 20.7189 71.1003 20.5757C72.6739 20.2894 74.2833 20.2178 75.8927 20.2536V20.3252C74.2833 20.3252 72.7097 20.4326 71.136 20.7547C70.3492 20.9337 69.5981 21.1126 68.8113 21.3274C68.0245 21.5064 67.2377 21.6853 66.4508 21.7569C64.8772 21.9359 63.2678 21.9717 61.6584 21.9001C60.049 21.8285 58.4753 21.5422 56.9374 21.1484C55.3995 20.7189 53.8259 20.4684 52.2165 20.3968C50.6071 20.3252 49.0334 20.3252 47.424 20.5399C46.6372 20.6473 45.8504 20.7905 45.0635 20.9695C44.2767 21.1484 43.5257 21.3632 42.7388 21.5422C41.1652 21.8643 39.5558 21.9717 37.9821 21.9717C36.3727 21.9717 34.7633 21.8643 33.2254 21.5422C32.4386 21.3632 31.6875 21.1484 30.9007 20.9695C30.1139 20.7905 29.3271 20.6115 28.5402 20.5399C26.9666 20.361 25.3572 20.3252 23.7478 20.3968C22.1384 20.4684 20.5647 20.7547 19.0268 21.1484C17.5247 21.5422 15.9153 21.8285 14.3059 21.9001C12.6965 21.9717 11.0871 21.9717 9.51342 21.7569C8.72659 21.6496 7.93977 21.5064 7.15295 21.3274C6.36612 21.1484 5.61506 20.9337 4.82824 20.7547C3.25459 20.4326 1.68095 20.3252 0.0715332 20.3252V20.2536Z" fill="#1A2328"></path><path d="M0.0715332 22.3649C1.68095 22.3291 3.29036 22.4007 4.864 22.6871C5.65083 22.8302 6.43765 23.045 7.22448 23.1882C8.0113 23.3671 8.76236 23.5103 9.54918 23.5819C11.1228 23.7609 12.6965 23.7251 14.2701 23.6535C15.8438 23.5819 17.3817 23.2598 18.9195 22.8302C19.7064 22.6155 20.4932 22.4007 21.28 22.2933C22.0668 22.1502 22.8894 22.0786 23.712 22.0428C25.3214 21.9712 26.9308 21.9712 28.576 22.1502C29.3986 22.2217 30.1854 22.4007 30.9722 22.5797C31.7591 22.7587 32.5101 22.9734 33.297 23.1166C34.8348 23.4387 36.3727 23.5461 37.9821 23.5103C39.5558 23.5103 41.1294 23.4029 42.6673 23.1166C43.4184 22.9734 44.2052 22.7587 44.992 22.5797C45.7788 22.4007 46.6014 22.2217 47.3882 22.1502C48.9977 21.9712 50.6428 21.9712 52.2523 22.0428C53.0748 22.0786 53.8617 22.1859 54.6842 22.2933C55.4711 22.4365 56.2937 22.6513 57.0447 22.8302C58.5826 23.2598 60.1205 23.5461 61.6941 23.6535C63.2678 23.7609 64.8772 23.7609 66.4151 23.5819C67.2019 23.5103 67.9887 23.3671 68.7398 23.1882C69.5266 23.0092 70.2777 22.8302 71.1003 22.6871C72.6739 22.4007 74.2833 22.3291 75.8927 22.3649V22.4007C74.2833 22.4007 72.7097 22.5081 71.136 22.8302C70.3492 23.0092 69.5981 23.1882 68.8113 23.4029C68.0245 23.5819 67.2377 23.7609 66.4508 23.8325C64.8772 24.0114 63.2678 24.0472 61.6584 23.9756C60.049 23.9041 58.4753 23.6177 56.9374 23.224C55.3995 22.7944 53.8259 22.5439 52.2165 22.4723C50.6071 22.4007 49.0334 22.4007 47.424 22.6155C46.6372 22.7229 45.8504 22.866 45.0635 23.045C44.2767 23.224 43.5257 23.4387 42.7388 23.6177C41.1652 23.9399 39.5558 24.0472 37.9821 24.0472C36.3727 24.0472 34.7633 23.9399 33.2254 23.6177C32.4386 23.4387 31.6875 23.224 30.9007 23.045C30.1139 22.866 29.3271 22.6871 28.5402 22.6155C26.9666 22.4365 25.3572 22.4007 23.7478 22.4723C22.1384 22.5439 20.5647 22.8302 19.0268 23.224C17.4889 23.6535 15.8795 23.9399 14.3059 23.9756C12.6965 24.0472 11.0871 24.0472 9.51342 23.8325C8.72659 23.7251 7.93977 23.5819 7.15295 23.4029C6.36612 23.224 5.61506 23.0092 4.82824 22.8302C3.25459 22.5081 1.68095 22.4007 0.0715332 22.4007V22.3649Z" fill="#1A2328"></path><path d="M0.0715332 24.4762C1.68095 24.4405 3.29036 24.512 4.864 24.7984C5.65083 24.9416 6.43765 25.1563 7.22448 25.2995C8.0113 25.4785 8.76236 25.6217 9.54918 25.6932C11.1228 25.8722 12.6965 25.8364 14.2701 25.7648C15.8438 25.6932 17.3817 25.3711 18.9195 24.9416C19.7064 24.7268 20.4932 24.512 21.28 24.4047C22.0668 24.2615 22.8894 24.1899 23.712 24.1541C25.3214 24.0825 26.9308 24.0825 28.576 24.2615C29.3986 24.3331 30.1854 24.512 30.9722 24.691C31.7591 24.87 32.5101 25.0847 33.297 25.2279C34.8348 25.5501 36.3727 25.6574 37.9821 25.6217C39.5558 25.6217 41.1294 25.5143 42.6673 25.2279C43.4184 25.0847 44.2052 24.87 44.992 24.691C45.7788 24.512 46.6014 24.3331 47.3882 24.2615C48.9977 24.0825 50.6428 24.0825 52.2523 24.1541C53.0748 24.1899 53.8617 24.2973 54.6842 24.4047C55.4711 24.5478 56.2937 24.7626 57.0447 24.9416C58.5826 25.3711 60.1205 25.6574 61.6941 25.7648C63.2678 25.8722 64.8772 25.8722 66.4151 25.6932C67.2019 25.6217 67.9887 25.4785 68.7398 25.2995C69.5266 25.1205 70.2777 24.9416 71.1003 24.7984C72.6739 24.512 74.2833 24.4405 75.8927 24.4762V24.512C74.2833 24.512 72.7097 24.6194 71.136 24.9416C70.3492 25.1205 69.5981 25.2995 68.8113 25.5143C68.0245 25.6932 67.2377 25.8722 66.4508 25.9438C64.8772 26.1228 63.2678 26.1586 61.6584 26.087C60.049 26.0154 58.4753 25.729 56.9374 25.3353C55.3995 24.9058 53.8259 24.6552 52.2165 24.5836C50.6071 24.512 49.0334 24.512 47.424 24.7268C46.6372 24.8342 45.8504 24.9774 45.0635 25.1563C44.2767 25.3353 43.5257 25.5501 42.7388 25.729C41.1652 26.0512 39.5558 26.1586 37.9821 26.1586C36.3727 26.1586 34.7633 26.0512 33.2254 25.729C32.4386 25.5501 31.6875 25.3353 30.9007 25.1563C30.1139 24.9774 29.3271 24.7984 28.5402 24.7268C26.9666 24.5478 25.3572 24.512 23.7478 24.5836C22.1384 24.6552 20.5647 24.9416 19.0268 25.3353C17.4889 25.7648 15.8795 26.0512 14.3059 26.087C12.6965 26.1586 11.0871 26.1586 9.51342 25.9438C8.72659 25.8364 7.93977 25.6932 7.15295 25.5143C6.36612 25.3353 5.61506 25.1205 4.82824 24.9416C3.25459 24.6194 1.68095 24.512 0.0715332 24.512V24.4762Z" fill="#1A2328"></path><path d="M0.0715332 26.6247C1.68095 26.5889 3.29036 26.6605 4.864 26.9468C5.65083 27.09 6.43765 27.3048 7.22447 27.4479C8.0113 27.6269 8.76236 27.7701 9.54918 27.8417C11.1228 27.9849 12.7322 27.9849 14.3059 27.9133C15.8795 27.8417 17.4174 27.5195 18.9553 27.09C19.7421 26.8752 20.5289 26.6605 21.3158 26.5531C22.1026 26.4099 22.9252 26.3383 23.7478 26.3025C25.3572 26.2309 26.9666 26.2309 28.6118 26.4099C29.4344 26.4815 30.2212 26.6605 31.008 26.8394C31.7948 27.0184 32.5459 27.2332 33.3327 27.3764C34.8706 27.6985 36.4085 27.8059 38.0179 27.7701C39.5915 27.7701 41.1652 27.6627 42.7031 27.3764C43.4541 27.2332 44.241 27.0184 45.0278 26.8394C45.8146 26.6605 46.6372 26.4815 47.424 26.4099C49.0334 26.2309 50.6786 26.2309 52.288 26.3025C53.1106 26.3383 53.8974 26.4457 54.72 26.5531C55.5068 26.6963 56.3294 26.911 57.0805 27.09C58.6184 27.5195 60.1562 27.8059 61.7299 27.9133C63.3035 28.0207 64.913 28.0206 66.4508 27.8417C67.2377 27.7701 68.0245 27.6269 68.7755 27.4479C69.5624 27.269 70.3134 27.09 71.136 26.9468C72.7097 26.6605 74.3191 26.5889 75.9285 26.6247V26.6605C74.3191 26.6605 72.7454 26.7679 71.1718 27.09C70.3849 27.269 69.6339 27.4479 68.8471 27.6627C68.0602 27.8417 67.2734 28.0207 66.4866 28.0922C64.9129 28.2712 63.3035 28.307 61.6941 28.2354C60.0847 28.1638 58.5111 27.8775 56.9732 27.4837C55.4353 27.0542 53.8617 26.8037 52.2522 26.7321C50.6428 26.6605 49.0692 26.6605 47.4598 26.8752C46.673 26.9826 45.8861 27.1258 45.0993 27.3048C44.3125 27.4837 43.5614 27.6985 42.7746 27.8775C41.201 28.1996 39.5915 28.307 38.0179 28.307C36.4085 28.307 34.7991 28.1996 33.2612 27.8775C32.4744 27.6985 31.7233 27.4837 30.9365 27.3048C30.1497 27.1258 29.3628 26.9468 28.576 26.8752C27.0024 26.6963 25.3929 26.6605 23.7835 26.7321C22.1741 26.8037 20.6005 27.09 19.0626 27.4837C17.5247 27.9133 15.9153 28.1996 14.3417 28.2354C12.7322 28.307 11.1228 28.307 9.54918 28.0922C8.76236 27.9849 7.97553 27.8417 7.18871 27.6627C6.40189 27.4837 5.65083 27.269 4.864 27.09C3.29036 26.7679 1.71671 26.6605 0.107298 26.6605V26.6247H0.0715332Z" fill="#1A2328"></path><path d="M0.0715332 28.736C1.68095 28.7002 3.29036 28.7718 4.864 29.0582C5.65083 29.2013 6.43765 29.4161 7.22448 29.5593C8.0113 29.7382 8.76236 29.8814 9.54918 29.953C11.1228 30.132 12.6965 30.0962 14.2701 30.0246C15.8438 29.953 17.3817 29.6309 18.9195 29.2013C19.7064 28.9866 20.4932 28.7718 21.28 28.6644C22.0668 28.5212 22.8894 28.4497 23.712 28.4139C25.3214 28.3423 26.9308 28.3423 28.576 28.5212C29.3986 28.5928 30.1854 28.7718 30.9722 28.9508C31.7591 29.1297 32.5101 29.3445 33.297 29.4877C34.8348 29.8098 36.3727 29.9172 37.9821 29.8814C39.5558 29.8814 41.1294 29.774 42.6673 29.4877C43.4184 29.3445 44.2052 29.1297 44.992 28.9508C45.7788 28.7718 46.6014 28.5928 47.3882 28.5212C48.9977 28.3423 50.6428 28.3423 52.2523 28.4139C53.0748 28.4497 53.8617 28.557 54.6842 28.6644C55.4711 28.8076 56.2937 29.0224 57.0447 29.2013C58.5826 29.6309 60.1205 29.9172 61.6941 30.0246C63.2678 30.132 64.8772 30.132 66.4151 29.953C67.2019 29.8814 67.9887 29.7382 68.7398 29.5593C69.5266 29.3803 70.2777 29.2013 71.1003 29.0582C72.6739 28.7718 74.2833 28.7002 75.8927 28.736V28.7718C74.2833 28.7718 72.7097 28.8792 71.136 29.2013C70.3492 29.3803 69.5981 29.5593 68.8113 29.774C68.0245 29.953 67.2377 30.132 66.4508 30.2036C64.8772 30.3825 63.2678 30.4183 61.6584 30.3467C60.049 30.2752 58.4753 29.9888 56.9374 29.5951C55.3995 29.1655 53.8259 28.915 52.2165 28.8434C50.6071 28.7718 49.0334 28.7718 47.424 28.9866C46.6372 29.094 45.8504 29.2371 45.0635 29.4161C44.2767 29.5951 43.5257 29.8098 42.7388 29.9888C41.1652 30.3109 39.5558 30.4183 37.9821 30.4183C36.3727 30.4183 34.7633 30.3109 33.2254 29.9888C32.4386 29.8098 31.6875 29.5951 30.9007 29.4161C30.1139 29.2371 29.3271 29.0582 28.5402 28.9866C26.9666 28.8076 25.3572 28.7718 23.7478 28.8434C22.1384 28.915 20.5647 29.2013 19.0268 29.5951C17.4889 30.0246 15.8795 30.3109 14.3059 30.3467C12.6965 30.4183 11.0871 30.4183 9.51342 30.2036C8.72659 30.0962 7.93977 29.953 7.15295 29.774C6.36612 29.5951 5.61506 29.3803 4.82824 29.2013C3.25459 28.8792 1.68095 28.7718 0.0715332 28.7718V28.736Z" fill="#1A2328"></path><path d="M0.0715332 30.8473C1.68095 30.8115 3.29036 30.8831 4.864 31.1695C5.65083 31.3127 6.43765 31.5274 7.22448 31.6706C8.0113 31.8496 8.76236 31.9927 9.54918 32.0643C11.1228 32.2433 12.6965 32.2075 14.2701 32.1359C15.8438 32.0643 17.3817 31.7422 18.9195 31.3127C19.7064 31.0979 20.4932 30.8831 21.28 30.7758C22.0668 30.6326 22.8894 30.561 23.712 30.5252C25.3214 30.4536 26.9308 30.4536 28.576 30.6326C29.3986 30.7042 30.1854 30.8831 30.9722 31.0621C31.7591 31.2411 32.5101 31.4558 33.297 31.599C34.8348 31.9212 36.3727 32.0285 37.9821 31.9927C39.5558 31.9927 41.1294 31.8854 42.6673 31.599C43.4184 31.4558 44.2052 31.2411 44.992 31.0621C45.7788 30.8831 46.6014 30.7042 47.3882 30.6326C48.9977 30.4536 50.6428 30.4536 52.2523 30.5252C53.0748 30.561 53.8617 30.6684 54.6842 30.7758C55.4711 30.9189 56.2937 31.1337 57.0447 31.3127C58.5826 31.7422 60.1205 32.0285 61.6941 32.1359C63.2678 32.2433 64.8772 32.2433 66.4151 32.0643C67.2019 31.9927 67.9887 31.8496 68.7398 31.6706C69.5266 31.4916 70.2777 31.3127 71.1003 31.1695C72.6739 30.8831 74.2833 30.8115 75.8927 30.8473V30.8831C74.2833 30.8831 72.7097 30.9905 71.136 31.3127C70.3492 31.4916 69.5981 31.6706 68.8113 31.8854C68.0245 32.0643 67.2377 32.2433 66.4508 32.3149C64.8772 32.4939 63.2678 32.5297 61.6584 32.4581C60.049 32.3865 58.4753 32.1001 56.9374 31.7064C55.3995 31.2769 53.8259 31.0263 52.2165 30.9547C50.6071 30.8831 49.0334 30.8831 47.424 31.0979C46.6372 31.2053 45.8504 31.3485 45.0635 31.5274C44.2767 31.7064 43.5257 31.9212 42.7388 32.1001C41.1652 32.4223 39.5558 32.5297 37.9821 32.5297C36.3727 32.5297 34.7633 32.4223 33.2254 32.1001C32.4386 31.9212 31.6875 31.7064 30.9007 31.5274C30.1139 31.3485 29.3271 31.1695 28.5402 31.0979C26.9666 30.9189 25.3572 30.8831 23.7478 30.9547C22.1384 31.0263 20.5647 31.3127 19.0268 31.7064C17.4889 32.1359 15.8795 32.4223 14.3059 32.4581C12.6965 32.5297 11.0871 32.5297 9.51342 32.3149C8.72659 32.2075 7.93977 32.0643 7.15295 31.8854C6.36612 31.7064 5.61506 31.4916 4.82824 31.3127C3.25459 30.9905 1.68095 30.8831 0.0715332 30.8831V30.8473Z" fill="#1A2328"></path><path d="M0.0715332 32.9587C1.68095 32.9229 3.29036 32.9945 4.864 33.2808C5.65083 33.424 6.43765 33.6388 7.22448 33.7819C8.0113 33.9609 8.76236 34.1041 9.54918 34.1757C11.1228 34.3546 12.6965 34.3188 14.2701 34.2473C15.8438 34.1757 17.3817 33.8535 18.9195 33.424C19.7064 33.2092 20.4932 32.9945 21.28 32.8871C22.0668 32.7439 22.8894 32.6723 23.712 32.6365C25.3214 32.5649 26.9308 32.5649 28.576 32.7439C29.3986 32.8155 30.1854 32.9945 30.9722 33.1734C31.7591 33.3524 32.5101 33.5672 33.297 33.7103C34.8348 34.0325 36.3727 34.1399 37.9821 34.1041C39.5558 34.1041 41.1294 33.9967 42.6673 33.7103C43.4184 33.5672 44.2052 33.3524 44.992 33.1734C45.7788 32.9945 46.6014 32.8155 47.3882 32.7439C48.9977 32.5649 50.6428 32.5649 52.2523 32.6365C53.0748 32.6723 53.8617 32.7797 54.6842 32.8871C55.4711 33.0303 56.2937 33.245 57.0447 33.424C58.5826 33.8535 60.1205 34.1399 61.6941 34.2473C63.2678 34.3546 64.8772 34.3546 66.4151 34.1757C67.2019 34.1041 67.9887 33.9609 68.7398 33.7819C69.5266 33.603 70.2777 33.424 71.1003 33.2808C72.6739 32.9945 74.2833 32.9229 75.8927 32.9587V33.0303C74.2833 33.0303 72.7097 33.1376 71.136 33.4598C70.3492 33.6388 69.5981 33.8177 68.8113 34.0325C68.0245 34.2115 67.2377 34.3904 66.4508 34.462C64.8772 34.641 63.2678 34.6768 61.6584 34.6052C60.049 34.5336 58.4753 34.2473 56.9374 33.8535C55.3995 33.424 53.8259 33.1734 52.2165 33.1018C50.6071 33.0303 49.0334 33.0303 47.424 33.245C46.6372 33.3524 45.8504 33.4956 45.0635 33.6745C44.2767 33.8535 43.5257 34.0683 42.7388 34.2473C41.1652 34.5694 39.5558 34.6768 37.9821 34.6768C36.3727 34.6768 34.7633 34.5694 33.2254 34.2473C32.4386 34.0683 31.6875 33.8535 30.9007 33.6745C30.1139 33.4956 29.3271 33.3166 28.5402 33.245C26.9666 33.066 25.3572 33.0303 23.7478 33.1018C22.1384 33.1734 20.5647 33.4598 19.0268 33.8535C17.4889 34.283 15.8795 34.5694 14.3059 34.6052C12.6965 34.6768 11.0871 34.6768 9.51342 34.462C8.72659 34.3546 7.93977 34.2115 7.15295 34.0325C6.36612 33.8535 5.61506 33.6388 4.82824 33.4598C3.25459 33.1376 1.68095 33.0303 0.0715332 33.0303V32.9587Z" fill="#1A2328"></path><path d="M0.0715332 35.1071C1.68095 35.0713 3.29036 35.1429 4.864 35.4293C5.65083 35.5724 6.43765 35.7872 7.22448 35.9304C8.0113 36.1093 8.76236 36.2525 9.54918 36.3241C11.1228 36.5031 12.6965 36.4673 14.2701 36.3957C15.8438 36.3241 17.3817 36.002 18.9195 35.5724C19.7064 35.3577 20.4932 35.1429 21.28 35.0355C22.0668 34.8923 22.8894 34.8208 23.712 34.785C25.3214 34.7134 26.9308 34.7134 28.576 34.8923C29.3986 34.9639 30.1854 35.1429 30.9722 35.3219C31.7591 35.5008 32.5101 35.7156 33.297 35.8588C34.8348 36.1809 36.3727 36.2883 37.9821 36.2525C39.5558 36.2525 41.1294 36.1451 42.6673 35.8588C43.4184 35.7156 44.2052 35.5008 44.992 35.3219C45.7788 35.1429 46.6014 34.9639 47.3882 34.8923C48.9977 34.7134 50.6428 34.7134 52.2523 34.785C53.0748 34.8208 53.8617 34.9281 54.6842 35.0355C55.4711 35.1787 56.2937 35.3935 57.0447 35.5724C58.5826 36.002 60.1205 36.2883 61.6941 36.3957C63.2678 36.5031 64.8772 36.5031 66.4151 36.3241C67.2019 36.2525 67.9887 36.1093 68.7398 35.9304C69.5266 35.7514 70.2777 35.5724 71.1003 35.4293C72.6739 35.1429 74.2833 35.0713 75.8927 35.1071V35.1429C74.2833 35.1429 72.7097 35.2503 71.136 35.5724C70.3492 35.7514 69.5981 35.9304 68.8113 36.1451C68.0245 36.3241 67.2377 36.5031 66.4508 36.5747C64.8772 36.7536 63.2678 36.7894 61.6584 36.7178C60.049 36.6462 58.4753 36.3599 56.9374 35.9662C55.3995 35.5366 53.8259 35.2861 52.2165 35.2145C50.6071 35.1429 49.0334 35.1429 47.424 35.3577C46.6372 35.465 45.8504 35.6082 45.0635 35.7872C44.2767 35.9662 43.5257 36.1809 42.7388 36.3599C41.1652 36.682 39.5558 36.7894 37.9821 36.7894C36.3727 36.7894 34.7633 36.682 33.2254 36.3599C32.4386 36.1809 31.6875 35.9662 30.9007 35.7872C30.1139 35.6082 29.3271 35.4293 28.5402 35.3577C26.9666 35.1787 25.3572 35.1429 23.7478 35.2145C22.1384 35.2861 20.5647 35.5724 19.0268 35.9662C17.4889 36.3957 15.8795 36.682 14.3059 36.7178C12.6965 36.7894 11.0871 36.7894 9.51342 36.5747C8.72659 36.4673 7.93977 36.3241 7.15295 36.1451C6.36612 35.9662 5.61506 35.7514 4.82824 35.5724C3.25459 35.2503 1.68095 35.1429 0.0715332 35.1429V35.1071Z" fill="#1A2328"></path><path d="M0.0715332 37.2184C1.68095 37.1826 3.29036 37.2542 4.864 37.5406C5.65083 37.6838 6.43765 37.8985 7.22448 38.0417C8.0113 38.2207 8.76236 38.3638 9.54918 38.4354C11.1228 38.6144 12.6965 38.5786 14.2701 38.507C15.8438 38.4354 17.3817 38.1133 18.9195 37.6838C19.7064 37.469 20.4932 37.2542 21.28 37.1468C22.0668 37.0037 22.8894 36.9321 23.712 36.8963C25.3214 36.8247 26.9308 36.8247 28.576 37.0037C29.3986 37.0753 30.1854 37.2542 30.9722 37.4332C31.7591 37.6122 32.5101 37.8269 33.297 37.9701C34.8348 38.2923 36.3727 38.3996 37.9821 38.3638C39.5558 38.3638 41.1294 38.2565 42.6673 37.9701C43.4184 37.8269 44.2052 37.6122 44.992 37.4332C45.7788 37.2542 46.6014 37.0753 47.3882 37.0037C48.9977 36.8247 50.6428 36.8247 52.2523 36.8963C53.0748 36.9321 53.8617 37.0395 54.6842 37.1468C55.4711 37.29 56.2937 37.5048 57.0447 37.6838C58.5826 38.1133 60.1205 38.3996 61.6941 38.507C63.2678 38.6144 64.8772 38.6144 66.4151 38.4354C67.2019 38.3638 67.9887 38.2207 68.7398 38.0417C69.5266 37.8627 70.2777 37.6838 71.1003 37.5406C72.6739 37.2542 74.2833 37.1826 75.8927 37.2184V37.2542C74.2833 37.2542 72.7097 37.3616 71.136 37.6838C70.3492 37.8627 69.5981 38.0417 68.8113 38.2565C68.0245 38.4354 67.2377 38.6144 66.4508 38.686C64.8772 38.865 63.2678 38.9008 61.6584 38.8292C60.049 38.7576 58.4753 38.4712 56.9374 38.0775C55.3995 37.648 53.8259 37.3974 52.2165 37.3258C50.6071 37.2542 49.0334 37.2542 47.424 37.469C46.6372 37.5764 45.8504 37.7195 45.0635 37.8985C44.2767 38.0775 43.5257 38.2923 42.7388 38.4712C41.1652 38.7934 39.5558 38.9008 37.9821 38.9008C36.3727 38.9008 34.7633 38.7934 33.2254 38.4712C32.4386 38.2923 31.6875 38.0775 30.9007 37.8985C30.1139 37.7195 29.3271 37.5406 28.5402 37.469C26.9666 37.29 25.3572 37.2542 23.7478 37.3258C22.1384 37.3974 20.5647 37.6838 19.0268 38.0775C17.4889 38.507 15.8795 38.7934 14.3059 38.8292C12.6965 38.9008 11.0871 38.9008 9.51342 38.686C8.72659 38.5786 7.93977 38.4354 7.15295 38.2565C6.36612 38.0775 5.61506 37.8627 4.82824 37.6838C3.25459 37.3616 1.68095 37.2542 0.0715332 37.2542V37.2184Z" fill="#1A2328"></path><path d="M0.0715332 39.3317C1.68095 39.2959 3.29036 39.3675 4.864 39.6539C5.65083 39.797 6.43765 40.0118 7.22448 40.155C8.0113 40.3339 8.76236 40.4771 9.54918 40.5487C11.1228 40.7277 12.6965 40.6919 14.2701 40.6203C15.8438 40.5487 17.3817 40.2266 18.9195 39.797C19.7064 39.5823 20.4932 39.3675 21.28 39.2601C22.0668 39.117 22.8894 39.0454 23.712 39.0096C25.3214 38.938 26.9308 38.938 28.576 39.1169C29.3986 39.1885 30.1854 39.3675 30.9722 39.5465C31.7591 39.7254 32.5101 39.9402 33.297 40.0834C34.8348 40.4055 36.3727 40.5129 37.9821 40.4771C39.5558 40.4771 41.1294 40.3697 42.6673 40.0834C43.4184 39.9402 44.2052 39.7254 44.992 39.5465C45.7788 39.3675 46.6014 39.1885 47.3882 39.1169C48.9977 38.938 50.6428 38.938 52.2523 39.0096C53.0748 39.0454 53.8617 39.1527 54.6842 39.2601C55.4711 39.4033 56.2937 39.6181 57.0447 39.797C58.5826 40.2266 60.1205 40.5129 61.6941 40.6203C63.2678 40.7277 64.8772 40.7277 66.4151 40.5487C67.2019 40.4771 67.9887 40.3339 68.7398 40.155C69.5266 39.976 70.2777 39.797 71.1003 39.6539C72.6739 39.3675 74.2833 39.2959 75.8927 39.3317V39.4033C74.2833 39.4033 72.7097 39.5107 71.136 39.8328C70.3492 40.0118 69.5981 40.1908 68.8113 40.4055C68.0245 40.5845 67.2377 40.7635 66.4508 40.8351C64.8772 41.014 63.2678 41.0498 61.6584 40.9782C60.049 40.9067 58.4753 40.6203 56.9374 40.2266C55.3995 39.797 53.8259 39.5465 52.2165 39.4749C50.6071 39.4033 49.0334 39.4033 47.424 39.6181C46.6372 39.7254 45.8504 39.8686 45.0635 40.0476C44.2767 40.2266 43.5257 40.4413 42.7388 40.6203C41.1652 40.9424 39.5558 41.0498 37.9821 41.0498C36.3727 41.0498 34.7633 40.9424 33.2254 40.6203C32.4386 40.4413 31.6875 40.2266 30.9007 40.0476C30.1139 39.8686 29.3271 39.6897 28.5402 39.6181C26.9666 39.4391 25.3572 39.4033 23.7478 39.4749C22.1384 39.5465 20.5647 39.8328 19.0268 40.2266C17.4889 40.6561 15.8795 40.9424 14.3059 40.9782C12.6965 41.0498 11.0871 41.0498 9.51342 40.8351C8.72659 40.7277 7.93977 40.5845 7.15295 40.4055C6.36612 40.2266 5.61506 40.0118 4.82824 39.8328C3.25459 39.5107 1.68095 39.4033 0.0715332 39.4033V39.3317Z" fill="#1A2328"></path><path d="M0.0715332 41.443C1.68095 41.4072 3.29036 41.4788 4.864 41.7652C5.65083 41.9084 6.43765 42.1231 7.22448 42.2663C8.0113 42.4453 8.76236 42.5885 9.54918 42.66C11.1228 42.839 12.6965 42.8032 14.2701 42.7316C15.8438 42.66 17.3817 42.3379 18.9195 41.9084C19.7064 41.6936 20.4932 41.4788 21.28 41.3715C22.0668 41.2283 22.8894 41.1567 23.712 41.1209C25.3214 41.0493 26.9308 41.0493 28.576 41.2283C29.3986 41.2999 30.1854 41.4788 30.9722 41.6578C31.7591 41.8368 32.5101 42.0515 33.297 42.1947C34.8348 42.5169 36.3727 42.6242 37.9821 42.5885C39.5558 42.5885 41.1294 42.4811 42.6673 42.1947C43.4184 42.0515 44.2052 41.8368 44.992 41.6578C45.7788 41.4788 46.6014 41.2999 47.3882 41.2283C48.9977 41.0493 50.6428 41.0493 52.2523 41.1209C53.0748 41.1567 53.8617 41.2641 54.6842 41.3715C55.4711 41.5146 56.2937 41.7294 57.0447 41.9084C58.5826 42.3379 60.1205 42.6242 61.6941 42.7316C63.2678 42.839 64.8772 42.839 66.4151 42.66C67.2019 42.5885 67.9887 42.4453 68.7398 42.2663C69.5266 42.0873 70.2777 41.9084 71.1003 41.7652C72.6739 41.4788 74.2833 41.4072 75.8927 41.443V41.4788C74.2833 41.4788 72.7097 41.5862 71.136 41.9084C70.3492 42.0873 69.5981 42.2663 68.8113 42.4811C68.0245 42.66 67.2377 42.839 66.4508 42.9106C64.8772 43.0896 63.2678 43.1254 61.6584 43.0538C60.049 42.9822 58.4753 42.6958 56.9374 42.3021C55.3995 41.8726 53.8259 41.622 52.2165 41.5504C50.6071 41.4788 49.0334 41.4788 47.424 41.6936C46.6372 41.801 45.8504 41.9442 45.0635 42.1231C44.2767 42.3021 43.5257 42.5169 42.7388 42.6958C41.1652 43.018 39.5558 43.1254 37.9821 43.1254C36.3727 43.1254 34.7633 43.018 33.2254 42.6958C32.4386 42.5169 31.6875 42.3021 30.9007 42.1231C30.1139 41.9442 29.3271 41.7652 28.5402 41.6936C26.9666 41.5146 25.3572 41.4788 23.7478 41.5504C22.1384 41.622 20.5647 41.9084 19.0268 42.3021C17.4889 42.7316 15.8795 43.018 14.3059 43.0538C12.6965 43.1254 11.0871 43.1254 9.51342 42.9106C8.72659 42.8032 7.93977 42.66 7.15295 42.4811C6.36612 42.3021 5.61506 42.0873 4.82824 41.9084C3.25459 41.5862 1.68095 41.4788 0.0715332 41.4788V41.443Z" fill="#1A2328"></path><path d="M0.0715332 43.5915C1.68095 43.5557 3.29036 43.6273 4.864 43.9136C5.65083 44.0568 6.43765 44.2716 7.22448 44.4147C8.0113 44.5937 8.76236 44.7369 9.54918 44.8085C11.1228 44.9874 12.6965 44.9517 14.2701 44.8801C15.8438 44.8085 17.3817 44.4863 18.9195 44.0568C19.7064 43.842 20.4932 43.6273 21.28 43.5199C22.0668 43.3767 22.8894 43.3051 23.712 43.2693C25.3214 43.1977 26.9308 43.1977 28.576 43.3767C29.3986 43.4483 30.1854 43.6273 30.9722 43.8062C31.7591 43.9852 32.5101 44.2 33.297 44.3432C34.8348 44.6653 36.3727 44.7727 37.9821 44.7369C39.5558 44.7369 41.1294 44.6295 42.6673 44.3432C43.4184 44.2 44.2052 43.9852 44.992 43.8062C45.7788 43.6273 46.6014 43.4483 47.3882 43.3767C48.9977 43.1977 50.6428 43.1977 52.2523 43.2693C53.0748 43.3051 53.8617 43.4125 54.6842 43.5199C55.4711 43.6631 56.2937 43.8778 57.0447 44.0568C58.5826 44.4863 60.1205 44.7727 61.6941 44.8801C63.2678 44.9874 64.8772 44.9874 66.4151 44.8085C67.2019 44.7369 67.9887 44.5937 68.7398 44.4147C69.5266 44.2358 70.2777 44.0568 71.1003 43.9136C72.6739 43.6273 74.2833 43.5557 75.8927 43.5915V43.6273C74.2833 43.6273 72.7097 43.7347 71.136 44.0568C70.3492 44.2358 69.5981 44.4147 68.8113 44.6295C68.0245 44.8085 67.2377 44.9874 66.4508 45.059C64.8772 45.238 63.2678 45.2738 61.6584 45.2022C60.049 45.1306 58.4753 44.8443 56.9374 44.4505C55.3995 44.021 53.8259 43.7705 52.2165 43.6989C50.6071 43.6273 49.0334 43.6273 47.424 43.842C46.6372 43.9494 45.8504 44.0926 45.0635 44.2716C44.2767 44.4505 43.5257 44.6653 42.7388 44.8443C41.1652 45.1664 39.5558 45.2738 37.9821 45.2738C36.3727 45.2738 34.7633 45.1664 33.2254 44.8443C32.4386 44.6653 31.6875 44.4505 30.9007 44.2716C30.1139 44.0926 29.3271 43.9136 28.5402 43.842C26.9666 43.6631 25.3572 43.6273 23.7478 43.6989C22.1384 43.7705 20.5647 44.0568 19.0268 44.4505C17.4889 44.8801 15.8795 45.1664 14.3059 45.2022C12.6965 45.2738 11.0871 45.2738 9.51342 45.059C8.72659 44.9517 7.93977 44.8085 7.15295 44.6295C6.36612 44.4505 5.61506 44.2358 4.82824 44.0568C3.25459 43.7347 1.68095 43.6273 0.0715332 43.6273V43.5915Z" fill="#1A2328"></path><path d="M0.0715332 45.7028C1.68095 45.667 3.29036 45.7386 4.864 46.025C5.65083 46.1681 6.43765 46.3829 7.22448 46.5261C8.0113 46.705 8.76236 46.8482 9.54918 46.9198C11.1228 47.0988 12.6965 47.063 14.2701 46.9914C15.8438 46.9198 17.3817 46.5977 18.9195 46.1681C19.7064 45.9534 20.4932 45.7386 21.28 45.6312C22.0668 45.488 22.8894 45.4165 23.712 45.3807C25.3214 45.3091 26.9308 45.3091 28.576 45.488C29.3986 45.5596 30.1854 45.7386 30.9722 45.9176C31.7591 46.0965 32.5101 46.3113 33.297 46.4545C34.8348 46.7766 36.3727 46.884 37.9821 46.8482C39.5558 46.8482 41.1294 46.7408 42.6673 46.4545C43.4184 46.3113 44.2052 46.0965 44.992 45.9176C45.7788 45.7386 46.6014 45.5596 47.3882 45.488C48.9977 45.3091 50.6428 45.3091 52.2523 45.3807C53.0748 45.4165 53.8617 45.5238 54.6842 45.6312C55.4711 45.7744 56.2937 45.9892 57.0447 46.1681C58.5826 46.5977 60.1205 46.884 61.6941 46.9914C63.2678 47.0988 64.8772 47.0988 66.4151 46.9198C67.2019 46.8482 67.9887 46.705 68.7398 46.5261C69.5266 46.3471 70.2777 46.1681 71.1003 46.025C72.6739 45.7386 74.2833 45.667 75.8927 45.7028V45.7744C74.2833 45.7744 72.7097 45.8818 71.136 46.2039C70.3492 46.3829 69.5981 46.5619 68.8113 46.7766C68.0245 46.9556 67.2377 47.1346 66.4508 47.2062C64.8772 47.3851 63.2678 47.4209 61.6584 47.3493C60.049 47.2777 58.4753 46.9914 56.9374 46.5977C55.3995 46.1681 53.8259 45.9176 52.2165 45.846C50.6071 45.7744 49.0334 45.7744 47.424 45.9892C46.6372 46.0965 45.8504 46.2397 45.0635 46.4187C44.2767 46.5977 43.5257 46.8124 42.7388 46.9914C41.1652 47.3135 39.5558 47.4209 37.9821 47.4209C36.3727 47.4209 34.7633 47.3135 33.2254 46.9914C32.4386 46.8124 31.6875 46.5977 30.9007 46.4187C30.1139 46.2397 29.3271 46.0607 28.5402 45.9892C26.9666 45.8102 25.3572 45.7744 23.7478 45.846C22.1384 45.9176 20.5647 46.2039 19.0268 46.5977C17.4889 47.0272 15.8795 47.3135 14.3059 47.3493C12.6965 47.4209 11.0871 47.4209 9.51342 47.2062C8.72659 47.0988 7.93977 46.9556 7.15295 46.7766C6.36612 46.5977 5.61506 46.3829 4.82824 46.2039C3.25459 45.8818 1.68095 45.7744 0.0715332 45.7744V45.7028Z" fill="#1A2328"></path><path d="M0.0715332 47.8141C1.68095 47.7783 3.29036 47.8499 4.864 48.1363C5.65083 48.2795 6.43765 48.4942 7.22448 48.6374C8.0113 48.8164 8.76236 48.9595 9.54918 49.0311C11.1228 49.2101 12.6965 49.1743 14.2701 49.1027C15.8438 49.0311 17.3817 48.709 18.9195 48.2795C19.7064 48.0647 20.4932 47.8499 21.28 47.7425C22.0668 47.5994 22.8894 47.5278 23.712 47.492C25.3214 47.4204 26.9308 47.4204 28.576 47.5994C29.3986 47.671 30.1854 47.8499 30.9722 48.0289C31.7591 48.2079 32.5101 48.4226 33.297 48.5658C34.8348 48.888 36.3727 48.9953 37.9821 48.9595C39.5558 48.9595 41.1294 48.8522 42.6673 48.5658C43.4184 48.4226 44.2052 48.2079 44.992 48.0289C45.7788 47.8499 46.6014 47.671 47.3882 47.5994C48.9977 47.4204 50.6428 47.4204 52.2523 47.492C53.0748 47.5278 53.8617 47.6352 54.6842 47.7425C55.4711 47.8857 56.2937 48.1005 57.0447 48.2795C58.5826 48.709 60.1205 48.9953 61.6941 49.1027C63.2678 49.2101 64.8772 49.2101 66.4151 49.0311C67.2019 48.9595 67.9887 48.8164 68.7398 48.6374C69.5266 48.4584 70.2777 48.2795 71.1003 48.1363C72.6739 47.8499 74.2833 47.7783 75.8927 47.8141V47.8499C74.2833 47.8499 72.7097 47.9573 71.136 48.2795C70.3492 48.4584 69.5981 48.6374 68.8113 48.8522C68.0245 49.0311 67.2377 49.2101 66.4508 49.2817C64.8772 49.4607 63.2678 49.4965 61.6584 49.4249C60.049 49.3533 58.4753 49.0669 56.9374 48.6732C55.3995 48.2437 53.8259 47.9931 52.2165 47.9215C50.6071 47.8499 49.0334 47.8499 47.424 48.0647C46.6372 48.1721 45.8504 48.3153 45.0635 48.4942C44.2767 48.6732 43.5257 48.888 42.7388 49.0669C41.1652 49.3891 39.5558 49.4965 37.9821 49.4965C36.3727 49.4965 34.7633 49.3891 33.2254 49.0669C32.4386 48.888 31.6875 48.6732 30.9007 48.4942C30.1139 48.3153 29.3271 48.1363 28.5402 48.0647C26.9666 47.8857 25.3572 47.8499 23.7478 47.9215C22.1384 47.9931 20.5647 48.2795 19.0268 48.6732C17.4889 49.1027 15.8795 49.3891 14.3059 49.4249C12.6965 49.4965 11.0871 49.4965 9.51342 49.2817C8.72659 49.1743 7.93977 49.0311 7.15295 48.8522C6.36612 48.6732 5.61506 48.4584 4.82824 48.2795C3.25459 47.9573 1.68095 47.8499 0.0715332 47.8499V47.8141Z" fill="#1A2328"></path><path d="M0.0715332 49.9626C1.68095 49.9268 3.29036 49.9984 4.864 50.2847C5.65083 50.4279 6.43765 50.6427 7.22448 50.7858C8.0113 50.9648 8.76236 51.108 9.54918 51.1796C11.1228 51.3585 12.6965 51.3227 14.2701 51.2512C15.8438 51.1796 17.3817 50.8574 18.9195 50.4279C19.7064 50.2131 20.4932 49.9984 21.28 49.891C22.0668 49.7478 22.8894 49.6762 23.712 49.6404C25.3214 49.5688 26.9308 49.5688 28.576 49.7478C29.3986 49.8194 30.1854 49.9984 30.9722 50.1773C31.7591 50.3563 32.5101 50.5711 33.297 50.7143C34.8348 51.0364 36.3727 51.1438 37.9821 51.108C39.5558 51.108 41.1294 51.0006 42.6673 50.7143C43.4184 50.5711 44.2052 50.3563 44.992 50.1773C45.7788 49.9984 46.6014 49.8194 47.3882 49.7478C48.9977 49.5688 50.6428 49.5688 52.2523 49.6404C53.0748 49.6762 53.8617 49.7836 54.6842 49.891C55.4711 50.0342 56.2937 50.2489 57.0447 50.4279C58.5826 50.8574 60.1205 51.1438 61.6941 51.2512C63.2678 51.3585 64.8772 51.3585 66.4151 51.1796C67.2019 51.108 67.9887 50.9648 68.7398 50.7858C69.5266 50.6069 70.2777 50.4279 71.1003 50.2847C72.6739 49.9984 74.2833 49.9268 75.8927 49.9626V49.9984C74.2833 49.9984 72.7097 50.1057 71.136 50.4279C70.3492 50.6069 69.5981 50.7858 68.8113 51.0006C68.0245 51.1796 67.2377 51.3585 66.4508 51.4301C64.8772 51.6091 63.2678 51.6449 61.6584 51.5733C60.049 51.5017 58.4753 51.2154 56.9374 50.8216C55.3995 50.3921 53.8259 50.1415 52.2165 50.07C50.6071 49.9984 49.0334 49.9984 47.424 50.2131C46.6372 50.3205 45.8504 50.4637 45.0635 50.6427C44.2767 50.8216 43.5257 51.0364 42.7388 51.2154C41.1652 51.5375 39.5558 51.6449 37.9821 51.6449C36.3727 51.6449 34.7633 51.5375 33.2254 51.2154C32.4386 51.0364 31.6875 50.8216 30.9007 50.6427C30.1139 50.4637 29.3271 50.2847 28.5402 50.2131C26.9666 50.0342 25.3572 49.9984 23.7478 50.07C22.1384 50.1415 20.5647 50.4279 19.0268 50.8216C17.4889 51.2512 15.8795 51.5375 14.3059 51.5733C12.6965 51.6449 11.0871 51.6449 9.51342 51.4301C8.72659 51.3227 7.93977 51.1796 7.15295 51.0006C6.36612 50.8216 5.61506 50.6069 4.82824 50.4279C3.25459 50.1057 1.68095 49.9984 0.0715332 49.9984V49.9626Z" fill="#1A2328"></path><path d="M0.0715332 52.0739C1.68095 52.0381 3.29036 52.1097 4.864 52.396C5.65083 52.5392 6.43765 52.754 7.22448 52.8972C8.0113 53.0761 8.76236 53.2193 9.54918 53.2909C11.1228 53.4699 12.6965 53.4341 14.2701 53.3625C15.8438 53.2909 17.3817 52.9688 18.9195 52.5392C19.7064 52.3245 20.4932 52.1097 21.28 52.0023C22.0668 51.8591 22.8894 51.7875 23.712 51.7518C25.3214 51.6802 26.9308 51.6802 28.576 51.8591C29.3986 51.9307 30.1854 52.1097 30.9722 52.2887C31.7591 52.4676 32.5101 52.6824 33.297 52.8256C34.8348 53.1477 36.3727 53.2551 37.9821 53.2193C39.5558 53.2193 41.1294 53.1119 42.6673 52.8256C43.4184 52.6824 44.2052 52.4676 44.992 52.2887C45.7788 52.1097 46.6014 51.9307 47.3882 51.8591C48.9977 51.6802 50.6428 51.6802 52.2523 51.7518C53.0748 51.7875 53.8617 51.8949 54.6842 52.0023C55.4711 52.1455 56.2937 52.3603 57.0447 52.5392C58.5826 52.9688 60.1205 53.2551 61.6941 53.3625C63.2678 53.4699 64.8772 53.4699 66.4151 53.2909C67.2019 53.2193 67.9887 53.0761 68.7398 52.8972C69.5266 52.7182 70.2777 52.5392 71.1003 52.396C72.6739 52.1097 74.2833 52.0381 75.8927 52.0739V52.1455C74.2833 52.1455 72.7097 52.2529 71.136 52.575C70.3492 52.754 69.5981 52.933 68.8113 53.1477C68.0245 53.3267 67.2377 53.5057 66.4508 53.5773C64.8772 53.7562 63.2678 53.792 61.6584 53.7204C60.049 53.6488 58.4753 53.3625 56.9374 52.9688C55.3995 52.5392 53.8259 52.2887 52.2165 52.2171C50.6071 52.1455 49.0334 52.1455 47.424 52.3603C46.6372 52.4676 45.8504 52.6108 45.0635 52.7898C44.2767 52.9688 43.5257 53.1835 42.7388 53.3625C41.1652 53.6846 39.5558 53.792 37.9821 53.792C36.3727 53.792 34.7633 53.6846 33.2254 53.3625C32.4386 53.1835 31.6875 52.9688 30.9007 52.7898C30.1139 52.6108 29.3271 52.4318 28.5402 52.3603C26.9666 52.1813 25.3572 52.1455 23.7478 52.2171C22.1384 52.2887 20.5647 52.575 19.0268 52.9688C17.4889 53.3983 15.8795 53.6846 14.3059 53.7204C12.6965 53.792 11.0871 53.792 9.51342 53.5773C8.72659 53.4699 7.93977 53.3267 7.15295 53.1477C6.36612 52.9688 5.61506 52.754 4.82824 52.575C3.25459 52.2529 1.68095 52.1455 0.0715332 52.1455V52.0739Z" fill="#1A2328"></path><path d="M0.0715332 54.1852C1.68095 54.1494 3.29036 54.221 4.864 54.5074C5.65083 54.6506 6.43765 54.8653 7.22448 55.0085C8.0113 55.1875 8.76236 55.3306 9.54918 55.4022C11.1228 55.5812 12.6965 55.5454 14.2701 55.4738C15.8438 55.4022 17.3817 55.0801 18.9195 54.6505C19.7064 54.4358 20.4932 54.221 21.28 54.1136C22.0668 53.9705 22.8894 53.8989 23.712 53.8631C25.3214 53.7915 26.9308 53.7915 28.576 53.9705C29.3986 54.0421 30.1854 54.221 30.9722 54.4C31.7591 54.579 32.5101 54.7937 33.297 54.9369C34.8348 55.259 36.3727 55.3664 37.9821 55.3306C39.5558 55.3306 41.1294 55.2233 42.6673 54.9369C43.4184 54.7937 44.2052 54.579 44.992 54.4C45.7788 54.221 46.6014 54.0421 47.3882 53.9705C48.9977 53.7915 50.6428 53.7915 52.2523 53.8631C53.0748 53.8989 53.8617 54.0063 54.6842 54.1136C55.4711 54.2568 56.2937 54.4716 57.0447 54.6505C58.5826 55.0801 60.1205 55.3664 61.6941 55.4738C63.2678 55.5812 64.8772 55.5812 66.4151 55.4022C67.2019 55.3306 67.9887 55.1875 68.7398 55.0085C69.5266 54.8295 70.2777 54.6506 71.1003 54.5074C72.6739 54.221 74.2833 54.1494 75.8927 54.1852V54.2568C74.2833 54.2568 72.7097 54.3642 71.136 54.6863C70.3492 54.8653 69.5981 55.0443 68.8113 55.259C68.0245 55.438 67.2377 55.617 66.4508 55.6886C64.8772 55.8675 63.2678 55.9033 61.6584 55.8318C60.049 55.7602 58.4753 55.4738 56.9374 55.0801C55.3995 54.6505 53.8259 54.4 52.2165 54.3284C50.6071 54.2568 49.0334 54.2568 47.424 54.4716C46.6372 54.579 45.8504 54.7221 45.0635 54.9011C44.2767 55.0801 43.5257 55.2948 42.7388 55.4738C41.1652 55.796 39.5558 55.9033 37.9821 55.9033C36.3727 55.9033 34.7633 55.796 33.2254 55.4738C32.4386 55.2948 31.6875 55.0801 30.9007 54.9011C30.1139 54.7221 29.3271 54.5432 28.5402 54.4716C26.9666 54.2926 25.3572 54.2568 23.7478 54.3284C22.1384 54.4 20.5647 54.6863 19.0268 55.0801C17.4889 55.5096 15.8795 55.796 14.3059 55.8318C12.6965 55.9033 11.0871 55.9033 9.51342 55.6886C8.72659 55.5812 7.93977 55.438 7.15295 55.259C6.36612 55.0801 5.61506 54.8653 4.82824 54.6863C3.25459 54.3642 1.68095 54.2568 0.0715332 54.2568V54.1852Z" fill="#1A2328"></path><path d="M0.0715332 56.2985C1.68095 56.2627 3.29036 56.3343 4.864 56.6207C5.65083 56.7638 6.43765 56.9786 7.22448 57.1218C8.0113 57.3007 8.76236 57.4439 9.54918 57.5155C11.1228 57.6945 12.6965 57.6587 14.2701 57.5871C15.8438 57.5155 17.3817 57.1934 18.9195 56.7638C19.7064 56.5491 20.4932 56.3343 21.28 56.2269C22.0668 56.0837 22.8894 56.0122 23.712 55.9764C25.3214 55.9048 26.9308 55.9048 28.576 56.0837C29.3986 56.1553 30.1854 56.3343 30.9722 56.5133C31.7591 56.6922 32.5101 56.907 33.297 57.0502C34.8348 57.3723 36.3727 57.4797 37.9821 57.4439C39.5558 57.4439 41.1294 57.3365 42.6673 57.0502C43.4184 56.907 44.2052 56.6922 44.992 56.5133C45.7788 56.3343 46.6014 56.1553 47.3882 56.0837C48.9977 55.9048 50.6428 55.9048 52.2523 55.9764C53.0748 56.0122 53.8617 56.1195 54.6842 56.2269C55.4711 56.3701 56.2937 56.5849 57.0447 56.7638C58.5826 57.1934 60.1205 57.4797 61.6941 57.5871C63.2678 57.6945 64.8772 57.6945 66.4151 57.5155C67.2019 57.4439 67.9887 57.3007 68.7398 57.1218C69.5266 56.9428 70.2777 56.7638 71.1003 56.6207C72.6739 56.3343 74.2833 56.2627 75.8927 56.2985V56.3701C74.2833 56.3701 72.7097 56.4775 71.136 56.7996C70.3492 56.9786 69.5981 57.1576 68.8113 57.3723C68.0245 57.5513 67.2377 57.7303 66.4508 57.8019C64.8772 57.9808 63.2678 58.0166 61.6584 57.945C60.049 57.8735 58.4753 57.5871 56.9374 57.1934C55.3995 56.7638 53.8259 56.5133 52.2165 56.4417C50.6071 56.3701 49.0334 56.3701 47.424 56.5849C46.6372 56.6922 45.8504 56.8354 45.0635 57.0144C44.2767 57.1934 43.5257 57.4081 42.7388 57.5871C41.1652 57.9092 39.5558 58.0166 37.9821 58.0166C36.3727 58.0166 34.7633 57.9092 33.2254 57.5871C32.4386 57.4081 31.6875 57.1934 30.9007 57.0144C30.1139 56.8354 29.3271 56.6565 28.5402 56.5849C26.9666 56.4059 25.3572 56.3701 23.7478 56.4417C22.1384 56.5133 20.5647 56.7996 19.0268 57.1934C17.4889 57.6229 15.8795 57.9092 14.3059 57.945C12.6965 58.0166 11.0871 58.0166 9.51342 57.8019C8.72659 57.6945 7.93977 57.5513 7.15295 57.3723C6.36612 57.1934 5.61506 56.9786 4.82824 56.7996C3.25459 56.4775 1.68095 56.3701 0.0715332 56.3701V56.2985Z" fill="#1A2328"></path><path d="M0.0715332 58.445C1.68095 58.4092 3.29036 58.4808 4.864 58.7671C5.65083 58.9103 6.43765 59.1251 7.22448 59.2683C8.0113 59.4472 8.76236 59.5904 9.54918 59.662C11.1228 59.841 12.6965 59.8052 14.2701 59.7336C15.8438 59.662 17.3817 59.3398 18.9195 58.9103C19.7064 58.6956 20.4932 58.4808 21.28 58.3734C22.0668 58.2302 22.8894 58.1586 23.712 58.1228C25.3214 58.0513 26.9308 58.0513 28.576 58.2302C29.3986 58.3018 30.1854 58.4808 30.9722 58.6598C31.7591 58.8387 32.5101 59.0535 33.297 59.1967C34.8348 59.5188 36.3727 59.6262 37.9821 59.5904C39.5558 59.5904 41.1294 59.483 42.6673 59.1967C43.4184 59.0535 44.2052 58.8387 44.992 58.6598C45.7788 58.4808 46.6014 58.3018 47.3882 58.2302C48.9977 58.0513 50.6428 58.0513 52.2523 58.1228C53.0748 58.1586 53.8617 58.266 54.6842 58.3734C55.4711 58.5166 56.2937 58.7313 57.0447 58.9103C58.5826 59.3398 60.1205 59.6262 61.6941 59.7336C63.2678 59.841 64.8772 59.841 66.4151 59.662C67.2019 59.5904 67.9887 59.4472 68.7398 59.2683C69.5266 59.0893 70.2777 58.9103 71.1003 58.7671C72.6739 58.4808 74.2833 58.4092 75.8927 58.445V58.5166C74.2833 58.5166 72.7097 58.624 71.136 58.9461C70.3492 59.1251 69.5981 59.3041 68.8113 59.5188C68.0245 59.6978 67.2377 59.8768 66.4508 59.9483C64.8772 60.1273 63.2678 60.1631 61.6584 60.0915C60.049 60.0199 58.4753 59.7336 56.9374 59.3398C55.3995 58.9103 53.8259 58.6598 52.2165 58.5882C50.6071 58.5166 49.0334 58.5166 47.424 58.7313C46.6372 58.8387 45.8504 58.9819 45.0635 59.1609C44.2767 59.3398 43.5257 59.5546 42.7388 59.7336C41.1652 60.0557 39.5558 60.1631 37.9821 60.1631C36.3727 60.1631 34.7633 60.0557 33.2254 59.7336C32.4386 59.5546 31.6875 59.3398 30.9007 59.1609C30.1139 58.9819 29.3271 58.8029 28.5402 58.7313C26.9666 58.5524 25.3572 58.5166 23.7478 58.5882C22.1384 58.6598 20.5647 58.9461 19.0268 59.3398C17.4889 59.7694 15.8795 60.0557 14.3059 60.0915C12.6965 60.1631 11.0871 60.1631 9.51342 59.9483C8.72659 59.841 7.93977 59.6978 7.15295 59.5188C6.36612 59.3398 5.61506 59.1251 4.82824 58.9461C3.25459 58.624 1.68095 58.5166 0.0715332 58.5166V58.445Z" fill="#1A2328"></path><path d="M0.0715332 60.5563C1.68095 60.5205 3.29036 60.5921 4.864 60.8785C5.65083 61.0216 6.43765 61.2364 7.22448 61.3796C8.0113 61.5586 8.76236 61.7017 9.54918 61.7733C11.1228 61.9523 12.6965 61.9165 14.2701 61.8449C15.8438 61.7733 17.3817 61.4512 18.9195 61.0216C19.7064 60.8069 20.4932 60.5921 21.28 60.4847C22.0668 60.3416 22.8894 60.27 23.712 60.2342C25.3214 60.1626 26.9308 60.1626 28.576 60.3416C29.3986 60.4131 30.1854 60.5921 30.9722 60.7711C31.7591 60.9501 32.5101 61.1648 33.297 61.308C34.8348 61.6301 36.3727 61.7375 37.9821 61.7017C39.5558 61.7017 41.1294 61.5944 42.6673 61.308C43.4184 61.1648 44.2052 60.9501 44.992 60.7711C45.7788 60.5921 46.6014 60.4131 47.3882 60.3416C48.9977 60.1626 50.6428 60.1626 52.2523 60.2342C53.0748 60.27 53.8617 60.3774 54.6842 60.4847C55.4711 60.6279 56.2937 60.8427 57.0447 61.0216C58.5826 61.4512 60.1205 61.7375 61.6941 61.8449C63.2678 61.9523 64.8772 61.9523 66.4151 61.7733C67.2019 61.7017 67.9887 61.5586 68.7398 61.3796C69.5266 61.2006 70.2777 61.0216 71.1003 60.8785C72.6739 60.5921 74.2833 60.5205 75.8927 60.5563V60.6279C74.2833 60.6279 72.7097 60.7353 71.136 61.0574C70.3492 61.2364 69.5981 61.4154 68.8113 61.6301C68.0245 61.8091 67.2377 61.9881 66.4508 62.0597C64.8772 62.2386 63.2678 62.2744 61.6584 62.2028C60.049 62.1313 58.4753 61.8449 56.9374 61.4512C55.3995 61.0216 53.8259 60.7711 52.2165 60.6995C50.6071 60.6279 49.0334 60.6279 47.424 60.8427C46.6372 60.9501 45.8504 61.0932 45.0635 61.2722C44.2767 61.4512 43.5257 61.6659 42.7388 61.8449C41.1652 62.1671 39.5558 62.2744 37.9821 62.2744C36.3727 62.2744 34.7633 62.1671 33.2254 61.8449C32.4386 61.6659 31.6875 61.4512 30.9007 61.2722C30.1139 61.0932 29.3271 60.9143 28.5402 60.8427C26.9666 60.6637 25.3572 60.6279 23.7478 60.6995C22.1384 60.7711 20.5647 61.0574 19.0268 61.4512C17.4889 61.8807 15.8795 62.1671 14.3059 62.2028C12.6965 62.2744 11.0871 62.2744 9.51342 62.0597C8.72659 61.9523 7.93977 61.8091 7.15295 61.6301C6.36612 61.4512 5.61506 61.2364 4.82824 61.0574C3.25459 60.7353 1.68095 60.6279 0.0715332 60.6279V60.5563Z" fill="#1A2328"></path><path d="M0.0715332 62.6696C1.68095 62.6338 3.29036 62.7054 4.864 62.9918C5.65083 63.1349 6.43765 63.3497 7.22448 63.4929C8.0113 63.6718 8.76236 63.815 9.54918 63.8866C11.1228 64.0656 12.6965 64.0298 14.2701 63.9582C15.8438 63.8866 17.3817 63.5645 18.9195 63.1349C19.7064 62.9202 20.4932 62.7054 21.28 62.598C22.0668 62.4548 22.8894 62.3833 23.712 62.3475C25.3214 62.2759 26.9308 62.2759 28.576 62.4548C29.3986 62.5264 30.1854 62.7054 30.9722 62.8844C31.7591 63.0633 32.5101 63.2781 33.297 63.4213C34.8348 63.7434 36.3727 63.8508 37.9821 63.815C39.5558 63.815 41.1294 63.7076 42.6673 63.4213C43.4184 63.2781 44.2052 63.0633 44.992 62.8844C45.7788 62.7054 46.6014 62.5264 47.3882 62.4548C48.9977 62.2759 50.6428 62.2759 52.2523 62.3475C53.0748 62.3833 53.8617 62.4906 54.6842 62.598C55.4711 62.7412 56.2937 62.956 57.0447 63.1349C58.5826 63.5645 60.1205 63.8508 61.6941 63.9582C63.2678 64.0656 64.8772 64.0656 66.4151 63.8866C67.2019 63.815 67.9887 63.6718 68.7398 63.4929C69.5266 63.3139 70.2777 63.1349 71.1003 62.9918C72.6739 62.7054 74.2833 62.6338 75.8927 62.6696V62.7054C74.2833 62.7054 72.7097 62.8128 71.136 63.1349C70.3492 63.3139 69.5981 63.4929 68.8113 63.7076C68.0245 63.8866 67.2377 64.0656 66.4508 64.1372C64.8772 64.3161 63.2678 64.3519 61.6584 64.2803C60.049 64.2087 58.4753 63.9224 56.9374 63.5287C55.3995 63.0991 53.8259 62.8486 52.2165 62.777C50.6071 62.7054 49.0334 62.7054 47.424 62.9202C46.6372 63.0275 45.8504 63.1707 45.0635 63.3497C44.2767 63.5287 43.5257 63.7434 42.7388 63.9224C41.1652 64.2445 39.5558 64.3519 37.9821 64.3519C36.3727 64.3519 34.7633 64.2445 33.2254 63.9224C32.4386 63.7434 31.6875 63.5287 30.9007 63.3497C30.1139 63.1707 29.3271 62.9918 28.5402 62.9202C26.9666 62.7412 25.3572 62.7054 23.7478 62.777C22.1384 62.8486 20.5647 63.1349 19.0268 63.5287C17.4889 63.9582 15.8795 64.2445 14.3059 64.2803C12.6965 64.3519 11.0871 64.3519 9.51342 64.1372C8.72659 64.0298 7.93977 63.8866 7.15295 63.7076C6.36612 63.5287 5.61506 63.3139 4.82824 63.1349C3.25459 62.8128 1.68095 62.7054 0.0715332 62.7054V62.6696Z" fill="#1A2328"></path><path d="M0.0715332 64.7809C1.68095 64.7451 3.29036 64.8167 4.864 65.1031C5.65083 65.2463 6.43765 65.461 7.22448 65.6042C8.0113 65.7832 8.76236 65.9263 9.54918 65.9979C11.1228 66.1769 12.6965 66.1411 14.2701 66.0695C15.8438 65.9979 17.3817 65.6758 18.9195 65.2463C19.7064 65.0315 20.4932 64.8167 21.28 64.7093C22.0668 64.5662 22.8894 64.4946 23.712 64.4588C25.3214 64.3872 26.9308 64.3872 28.576 64.5662C29.3986 64.6378 30.1854 64.8167 30.9722 64.9957C31.7591 65.1747 32.5101 65.3894 33.297 65.5326C34.8348 65.8548 36.3727 65.9621 37.9821 65.9263C39.5558 65.9263 41.1294 65.819 42.6673 65.5326C43.4184 65.3894 44.2052 65.1747 44.992 64.9957C45.7788 64.8167 46.6014 64.6378 47.3882 64.5662C48.9977 64.3872 50.6428 64.3872 52.2523 64.4588C53.0748 64.4946 53.8617 64.602 54.6842 64.7093C55.4711 64.8525 56.2937 65.0673 57.0447 65.2463C58.5826 65.6758 60.1205 65.9621 61.6941 66.0695C63.2678 66.1769 64.8772 66.1769 66.4151 65.9979C67.2019 65.9263 67.9887 65.7832 68.7398 65.6042C69.5266 65.4252 70.2777 65.2463 71.1003 65.1031C72.6739 64.8167 74.2833 64.7451 75.8927 64.7809V64.8525C74.2833 64.8525 72.7097 64.9599 71.136 65.2821C70.3492 65.461 69.5981 65.64 68.8113 65.8548C68.0245 66.0337 67.2377 66.2127 66.4508 66.2843C64.8772 66.4633 63.2678 66.499 61.6584 66.4275C60.049 66.3559 58.4753 66.0695 56.9374 65.6758C55.3995 65.2463 53.8259 64.9957 52.2165 64.9241C50.6071 64.8525 49.0334 64.8525 47.424 65.0673C46.6372 65.1747 45.8504 65.3178 45.0635 65.4968C44.2767 65.6758 43.5257 65.8905 42.7388 66.0695C41.1652 66.3917 39.5558 66.4991 37.9821 66.4991C36.3727 66.4991 34.7633 66.3917 33.2254 66.0695C32.4386 65.8905 31.6875 65.6758 30.9007 65.4968C30.1139 65.3178 29.3271 65.1389 28.5402 65.0673C26.9666 64.8883 25.3572 64.8525 23.7478 64.9241C22.1384 64.9957 20.5647 65.2821 19.0268 65.6758C17.4889 66.1053 15.8795 66.3917 14.3059 66.4275C12.6965 66.499 11.0871 66.4991 9.51342 66.2843C8.72659 66.1769 7.93977 66.0337 7.15295 65.8548C6.36612 65.6758 5.61506 65.461 4.82824 65.2821C3.25459 64.9599 1.68095 64.8525 0.0715332 64.8525V64.7809Z" fill="#1A2328"></path><path d="M0.0715332 66.9274C1.68095 66.8916 3.29036 66.9632 4.864 67.2496C5.65083 67.3927 6.43765 67.6075 7.22448 67.7507C8.0113 67.9297 8.76236 68.0728 9.54918 68.1444C11.1228 68.3234 12.6965 68.2876 14.2701 68.216C15.8438 68.1444 17.3817 67.8223 18.9195 67.3927C19.7064 67.178 20.4932 66.9632 21.28 66.8558C22.0668 66.7127 22.8894 66.6411 23.712 66.6053C25.3214 66.5337 26.9308 66.5337 28.576 66.7127C29.3986 66.7842 30.1854 66.9632 30.9722 67.1422C31.7591 67.3212 32.5101 67.5359 33.297 67.6791C34.8348 68.0012 36.3727 68.1086 37.9821 68.0728C39.5558 68.0728 41.1294 67.9654 42.6673 67.6791C43.4184 67.5359 44.2052 67.3212 44.992 67.1422C45.7788 66.9632 46.6014 66.7842 47.3882 66.7127C48.9977 66.5337 50.6428 66.5337 52.2523 66.6053C53.0748 66.6411 53.8617 66.7485 54.6842 66.8558C55.4711 66.999 56.2937 67.2138 57.0447 67.3927C58.5826 67.8223 60.1205 68.1086 61.6941 68.216C63.2678 68.3234 64.8772 68.3234 66.4151 68.1444C67.2019 68.0728 67.9887 67.9297 68.7398 67.7507C69.5266 67.5717 70.2777 67.3927 71.1003 67.2496C72.6739 66.9632 74.2833 66.8916 75.8927 66.9274V66.9632C74.2833 66.9632 72.7097 67.0706 71.136 67.3927C70.3492 67.5717 69.5981 67.7507 68.8113 67.9654C68.0245 68.1444 67.2377 68.3234 66.4508 68.395C64.8772 68.5739 63.2678 68.6097 61.6584 68.5382C60.049 68.4666 58.4753 68.1802 56.9374 67.7865C55.3995 67.3569 53.8259 67.1064 52.2165 67.0348C50.6071 66.9632 49.0334 66.9632 47.424 67.178C46.6372 67.2854 45.8504 67.4285 45.0635 67.6075C44.2767 67.7865 43.5257 68.0012 42.7388 68.1802C41.1652 68.5024 39.5558 68.6097 37.9821 68.6097C36.3727 68.6097 34.7633 68.5024 33.2254 68.1802C32.4386 68.0012 31.6875 67.7865 30.9007 67.6075C30.1139 67.4285 29.3271 67.2496 28.5402 67.178C26.9666 66.999 25.3572 66.9632 23.7478 67.0348C22.1384 67.1064 20.5647 67.3927 19.0268 67.7865C17.4889 68.216 15.8795 68.5024 14.3059 68.5382C12.6965 68.6097 11.0871 68.6097 9.51342 68.395C8.72659 68.2876 7.93977 68.1444 7.15295 67.9654C6.36612 67.7865 5.61506 67.5717 4.82824 67.3927C3.25459 67.0706 1.68095 66.9632 0.0715332 66.9632V66.9274Z" fill="#1A2328"></path><path d="M0.0715332 69.0407C1.68095 69.0049 3.29036 69.0765 4.864 69.3628C5.65083 69.506 6.43765 69.7208 7.22448 69.864C8.0113 70.0429 8.76236 70.1861 9.54918 70.2577C11.1228 70.4367 12.6965 70.4009 14.2701 70.3293C15.8438 70.2577 17.3817 69.9355 18.9195 69.506C19.7064 69.2913 20.4932 69.0765 21.28 68.9691C22.0668 68.8259 22.8894 68.7543 23.712 68.7186C25.3214 68.647 26.9308 68.647 28.576 68.8259C29.3986 68.8975 30.1854 69.0765 30.9722 69.2555C31.7591 69.4344 32.5101 69.6492 33.297 69.7924C34.8348 70.1145 36.3727 70.2219 37.9821 70.1861C39.5558 70.1861 41.1294 70.0787 42.6673 69.7924C43.4184 69.6492 44.2052 69.4344 44.992 69.2555C45.7788 69.0765 46.6014 68.8975 47.3882 68.8259C48.9977 68.647 50.6428 68.647 52.2523 68.7186C53.0748 68.7543 53.8617 68.8617 54.6842 68.9691C55.4711 69.1123 56.2937 69.327 57.0447 69.506C58.5826 69.9355 60.1205 70.2219 61.6941 70.3293C63.2678 70.4367 64.8772 70.4367 66.4151 70.2577C67.2019 70.1861 67.9887 70.0429 68.7398 69.864C69.5266 69.685 70.2777 69.506 71.1003 69.3628C72.6739 69.0765 74.2833 69.0049 75.8927 69.0407V69.0765C74.2833 69.0765 72.7097 69.1839 71.136 69.506C70.3492 69.685 69.5981 69.864 68.8113 70.0787C68.0245 70.2577 67.2377 70.4367 66.4508 70.5083C64.8772 70.6872 63.2678 70.723 61.6584 70.6514C60.049 70.5798 58.4753 70.2935 56.9374 69.8998C55.3995 69.4702 53.8259 69.2197 52.2165 69.1481C50.6071 69.0765 49.0334 69.0765 47.424 69.2913C46.6372 69.3986 45.8504 69.5418 45.0635 69.7208C44.2767 69.8998 43.5257 70.1145 42.7388 70.2935C41.1652 70.6156 39.5558 70.723 37.9821 70.723C36.3727 70.723 34.7633 70.6156 33.2254 70.2935C32.4386 70.1145 31.6875 69.8998 30.9007 69.7208C30.1139 69.5418 29.3271 69.3628 28.5402 69.2913C26.9666 69.1123 25.3572 69.0765 23.7478 69.1481C22.1384 69.2197 20.5647 69.506 19.0268 69.8998C17.4889 70.3293 15.8795 70.6156 14.3059 70.6514C12.6965 70.723 11.0871 70.723 9.51342 70.5083C8.72659 70.4009 7.93977 70.2577 7.15295 70.0787C6.36612 69.8998 5.61506 69.685 4.82824 69.506C3.25459 69.1839 1.68095 69.0765 0.0715332 69.0765V69.0407Z" fill="#1A2328"></path><path d="M0.0715332 71.152C1.68095 71.1162 3.29036 71.1878 4.864 71.4742C5.65083 71.6174 6.43765 71.8321 7.22448 71.9753C8.0113 72.1543 8.76236 72.2974 9.54918 72.369C11.1228 72.548 12.6965 72.5122 14.2701 72.4406C15.8438 72.369 17.3817 72.0469 18.9195 71.6173C19.7064 71.4026 20.4932 71.1878 21.28 71.0804C22.0668 70.9373 22.8894 70.8657 23.712 70.8299C25.3214 70.7583 26.9308 70.7583 28.576 70.9373C29.3986 71.0089 30.1854 71.1878 30.9722 71.3668C31.7591 71.5458 32.5101 71.7605 33.297 71.9037C34.8348 72.2258 36.3727 72.3332 37.9821 72.2974C39.5558 72.2974 41.1294 72.1901 42.6673 71.9037C43.4184 71.7605 44.2052 71.5458 44.992 71.3668C45.7788 71.1878 46.6014 71.0089 47.3882 70.9373C48.9977 70.7583 50.6428 70.7583 52.2523 70.8299C53.0748 70.8657 53.8617 70.9731 54.6842 71.0804C55.4711 71.2236 56.2937 71.4384 57.0447 71.6173C58.5826 72.0469 60.1205 72.3332 61.6941 72.4406C63.2678 72.548 64.8772 72.548 66.4151 72.369C67.2019 72.2974 67.9887 72.1543 68.7398 71.9753C69.5266 71.7963 70.2777 71.6174 71.1003 71.4742C72.6739 71.1878 74.2833 71.1162 75.8927 71.152V71.1878C74.2833 71.1878 72.7097 71.2952 71.136 71.6173C70.3492 71.7963 69.5981 71.9753 68.8113 72.1901C68.0245 72.369 67.2377 72.548 66.4508 72.6196C64.8772 72.7986 63.2678 72.8343 61.6584 72.7628C60.049 72.6912 58.4753 72.4048 56.9374 72.0111C55.3995 71.5816 53.8259 71.331 52.2165 71.2594C50.6071 71.1878 49.0334 71.1878 47.424 71.4026C46.6372 71.51 45.8504 71.6531 45.0635 71.8321C44.2767 72.0111 43.5257 72.2259 42.7388 72.4048C41.1652 72.727 39.5558 72.8343 37.9821 72.8343C36.3727 72.8343 34.7633 72.727 33.2254 72.4048C32.4386 72.2259 31.6875 72.0111 30.9007 71.8321C30.1139 71.6531 29.3271 71.4742 28.5402 71.4026C26.9666 71.2236 25.3572 71.1878 23.7478 71.2594C22.1384 71.331 20.5647 71.6174 19.0268 72.0111C17.4889 72.4406 15.8795 72.727 14.3059 72.7628C12.6965 72.8343 11.0871 72.8343 9.51342 72.6196C8.72659 72.5122 7.93977 72.369 7.15295 72.1901C6.36612 72.0111 5.61506 71.7963 4.82824 71.6173C3.25459 71.2952 1.68095 71.1878 0.0715332 71.1878V71.152Z" fill="#1A2328"></path><path d="M0.0715332 73.2634C1.68095 73.2276 3.29036 73.2991 4.864 73.5855C5.65083 73.7287 6.43765 73.9434 7.22448 74.0866C8.0113 74.2656 8.76236 74.4088 9.54918 74.4803C11.1228 74.6593 12.6965 74.6235 14.2701 74.5519C15.8438 74.4804 17.3817 74.1582 18.9195 73.7287C19.7064 73.5139 20.4932 73.2991 21.28 73.1918C22.0668 73.0486 22.8894 72.977 23.712 72.9412C25.3214 72.8696 26.9308 72.8696 28.576 73.0486C29.3986 73.1202 30.1854 73.2992 30.9722 73.4781C31.7591 73.6571 32.5101 73.8719 33.297 74.015C34.8348 74.3372 36.3727 74.4446 37.9821 74.4088C39.5558 74.4088 41.1294 74.3014 42.6673 74.015C43.4184 73.8719 44.2052 73.6571 44.992 73.4781C45.7788 73.2992 46.6014 73.1202 47.3882 73.0486C48.9977 72.8696 50.6428 72.8696 52.2523 72.9412C53.0748 72.977 53.8617 73.0844 54.6842 73.1918C55.4711 73.3349 56.2937 73.5497 57.0447 73.7287C58.5826 74.1582 60.1205 74.4446 61.6941 74.5519C63.2678 74.6593 64.8772 74.6593 66.4151 74.4803C67.2019 74.4088 67.9887 74.2656 68.7398 74.0866C69.5266 73.9076 70.2777 73.7287 71.1003 73.5855C72.6739 73.2991 74.2833 73.2276 75.8927 73.2634V73.3349C74.2833 73.3349 72.7097 73.4423 71.136 73.7645C70.3492 73.9434 69.5981 74.1224 68.8113 74.3372C68.0245 74.5161 67.2377 74.6951 66.4508 74.7667C64.8772 74.9457 63.2678 74.9815 61.6584 74.9099C60.049 74.8383 58.4753 74.5519 56.9374 74.1582C55.3995 73.7287 53.8259 73.4781 52.2165 73.4065C50.6071 73.3349 49.0334 73.3349 47.424 73.5497C46.6372 73.6571 45.8504 73.8003 45.0635 73.9792C44.2767 74.1582 43.5257 74.373 42.7388 74.5519C41.1652 74.8741 39.5558 74.9815 37.9821 74.9815C36.3727 74.9815 34.7633 74.8741 33.2254 74.5519C32.4386 74.373 31.6875 74.1582 30.9007 73.9792C30.1139 73.8003 29.3271 73.6213 28.5402 73.5497C26.9666 73.3707 25.3572 73.3349 23.7478 73.4065C22.1384 73.4781 20.5647 73.7645 19.0268 74.1582C17.4889 74.5877 15.8795 74.8741 14.3059 74.9099C12.6965 74.9815 11.0871 74.9815 9.51342 74.7667C8.72659 74.6593 7.93977 74.5161 7.15295 74.3372C6.36612 74.1582 5.61506 73.9434 4.82824 73.7645C3.25459 73.4423 1.68095 73.3349 0.0715332 73.3349V73.2634Z" fill="#1A2328"></path><path d="M0.0715332 75.4118C1.68095 75.376 3.29036 75.4476 4.864 75.7339C5.65083 75.8771 6.43765 76.0919 7.22448 76.2351C8.0113 76.414 8.76236 76.5572 9.54918 76.6288C11.1228 76.8078 12.6965 76.772 14.2701 76.7004C15.8438 76.6288 17.3817 76.3066 18.9195 75.8771C19.7064 75.6624 20.4932 75.4476 21.28 75.3402C22.0668 75.197 22.8894 75.1254 23.712 75.0896C25.3214 75.0181 26.9308 75.0181 28.576 75.197C29.3986 75.2686 30.1854 75.4476 30.9722 75.6266C31.7591 75.8055 32.5101 76.0203 33.297 76.1635C34.8348 76.4856 36.3727 76.593 37.9821 76.5572C39.5558 76.5572 41.1294 76.4498 42.6673 76.1635C43.4184 76.0203 44.2052 75.8055 44.992 75.6266C45.7788 75.4476 46.6014 75.2686 47.3882 75.197C48.9977 75.0181 50.6428 75.0181 52.2523 75.0896C53.0748 75.1254 53.8617 75.2328 54.6842 75.3402C55.4711 75.4834 56.2937 75.6981 57.0447 75.8771C58.5826 76.3066 60.1205 76.593 61.6941 76.7004C63.2678 76.8078 64.8772 76.8078 66.4151 76.6288C67.2019 76.5572 67.9887 76.414 68.7398 76.2351C69.5266 76.0561 70.2777 75.8771 71.1003 75.7339C72.6739 75.4476 74.2833 75.376 75.8927 75.4118V75.4834C74.2833 75.4834 72.7097 75.5908 71.136 75.9129C70.3492 76.0919 69.5981 76.2709 68.8113 76.4856C68.0245 76.6646 67.2377 76.8436 66.4508 76.9151C64.8772 77.0941 63.2678 77.1299 61.6584 77.0583C60.049 76.9867 58.4753 76.7004 56.9374 76.3066C55.3995 75.8771 53.8259 75.6266 52.2165 75.555C50.6071 75.4834 49.0334 75.4834 47.424 75.6981C46.6372 75.8055 45.8504 75.9487 45.0635 76.1277C44.2767 76.3066 43.5257 76.5214 42.7388 76.7004C41.1652 77.0225 39.5558 77.1299 37.9821 77.1299C36.3727 77.1299 34.7633 77.0225 33.2254 76.7004C32.4386 76.5214 31.6875 76.3066 30.9007 76.1277C30.1139 75.9487 29.3271 75.7697 28.5402 75.6981C26.9666 75.5192 25.3572 75.4834 23.7478 75.555C22.1384 75.6266 20.5647 75.9129 19.0268 76.3066C17.4889 76.7362 15.8795 77.0225 14.3059 77.0583C12.6965 77.1299 11.0871 77.1299 9.51342 76.9151C8.72659 76.8078 7.93977 76.6646 7.15295 76.4856C6.36612 76.3066 5.61506 76.0919 4.82824 75.9129C3.25459 75.5908 1.68095 75.4834 0.0715332 75.4834V75.4118Z" fill="#1A2328"></path></g></g><path d="M47.0077 41.5768L44.2674 34.9999V31.4453H45.2049C45.7226 31.4453 46.1424 31.0256 46.1424 30.5078V30.4375C46.1424 25.785 42.3573 22 37.7049 22H31.4377C26.6556 22 22.823 25.9633 23.0063 30.7598L23.6431 47.4186C23.6623 47.9221 24.0761 48.3202 24.5799 48.3202H26.3568L25.8358 52.9577C25.7779 53.4722 26.1482 53.9362 26.6627 53.994C27.1773 54.0518 27.6412 53.6815 27.699 53.1671L28.2436 48.3202H34.4548C35.0422 48.3202 35.4856 47.7851 35.3758 47.2077L33.9383 39.6444C33.855 39.2059 33.474 38.887 33.0277 38.8821C32.0226 38.8709 31.2048 38.0442 31.2048 37.0391C31.2048 36.0339 32.0225 35.2072 33.0277 35.1961C33.2727 35.1934 33.507 35.0947 33.6803 34.9214L37.1557 31.4453H42.3923C42.4163 35.3536 42.3377 35.2441 42.4644 35.548L44.7347 40.9966C42.0267 40.9904 42.9458 40.9921 42.75 40.9921C42.2332 40.9921 41.8125 41.4111 41.8125 41.9296V46.4896L37.7025 46.4999C37.2451 46.5011 36.8553 46.8321 36.7801 47.2833L35.8426 52.9083C35.7474 53.4797 36.188 54 36.7685 54C37.2185 54 37.6157 53.675 37.6921 53.2164L38.4994 48.3729L42.7524 48.3622C43.2692 48.3609 43.6875 47.9416 43.6875 47.4247V42.8692L46.1402 42.8749C46.8136 42.8749 47.264 42.1919 47.0077 41.5768ZM36.7674 29.5703C36.5187 29.5703 36.2802 29.6691 36.1044 29.845L32.6023 33.3477C30.7644 33.5702 29.3299 35.1482 29.3299 37.0391C29.3299 38.7979 30.5712 40.286 32.2236 40.6643L33.3224 46.4453H25.4823L24.8799 30.6881C24.7379 26.9714 27.7044 23.875 31.4377 23.875H37.7049C41.0295 23.875 43.7846 26.3602 44.2103 29.5703H36.7674Z" fill="#FFB800"></path><path d="M54.0625 45.497H53.6354L52.0021 41.4027C51.6616 40.5494 50.4166 40.6479 50.2162 41.5461L48.9961 47.0189L48.2522 45.1529C48.1101 44.7964 47.7651 44.5626 47.3813 44.5626H46.5C45.9822 44.5626 45.5625 44.9824 45.5625 45.5001C45.5625 46.0179 45.9822 46.4376 46.5 46.4376H46.7457L48.3791 50.5347C48.7194 51.3882 49.9647 51.2899 50.165 50.3916L51.3855 44.9176L52.1292 46.7818C52.2713 47.1382 52.6162 47.3719 52.9999 47.3719H54.0624C54.5802 47.3719 54.9999 46.9522 54.9999 46.4344C54.9999 45.9167 54.5802 45.497 54.0625 45.497Z" fill="#FFB800"></path></svg> 