<svg xmlns="http://www.w3.org/2000/svg" viewBox="0 0 91.23 91.24"><defs><style>.cls-1{fill:#4d4d4d;}.cls-2{fill:#0099dc;}</style></defs><title>Asset 27</title><g id="Layer_2" data-name="Layer 2"><g id="Layer_1-2" data-name="Layer 1"><path class="cls-1" d="M50.15,0A40.9,40.9,0,0,0,12,25.82L.19,55.36A2.68,2.68,0,0,0,0,56.64a2.54,2.54,0,0,0,.44,1.22,2.86,2.86,0,0,0,1,.87A2.76,2.76,0,0,0,2.68,59H21.47V77.82A13.42,13.42,0,0,0,34.88,91.24H51a2.68,2.68,0,0,0,1.89-4.58A2.68,2.68,0,0,0,51,85.87H34.88a8.06,8.06,0,0,1-8.05-8.05V56.35a2.73,2.73,0,0,0-.2-1,2.55,2.55,0,0,0-.58-.87,2.85,2.85,0,0,0-.87-.59,2.82,2.82,0,0,0-1-.2H6.64L17,27.82A35.72,35.72,0,0,1,85.87,41.08V88.56a2.68,2.68,0,0,0,5.36,0V41.08A41.12,41.12,0,0,0,50.15,0Z"/><path class="cls-2" d="M56,30.94H51.56A8.07,8.07,0,0,0,43.51,39v4.41a8.06,8.06,0,0,0,8.05,8.05H56A8.06,8.06,0,0,0,64,43.41V39A8.07,8.07,0,0,0,56,30.94Zm2.68,12.47a2.68,2.68,0,0,1-.79,1.89,2.64,2.64,0,0,1-1.89.79H51.56a2.66,2.66,0,0,1-1.9-.79,2.72,2.72,0,0,1-.79-1.89V39a2.7,2.7,0,0,1,2.69-2.69H56A2.7,2.7,0,0,1,58.66,39Z"/><path class="cls-1" d="M75.23,33.79a2.69,2.69,0,1,0,0-5.37H72.66a8,8,0,0,0-2.16-4,8.21,8.21,0,0,0-4-2.17V19.73a2.68,2.68,0,0,0-.79-1.89,2.69,2.69,0,0,0-4.58,1.89V22.1H56.45V19.73a2.68,2.68,0,0,0-.79-1.89,2.69,2.69,0,0,0-4.58,1.89V22.1H46.35V19.73a2.68,2.68,0,0,0-.79-1.89A2.69,2.69,0,0,0,41,19.73V22.3A8.21,8.21,0,0,0,37,24.47a8.12,8.12,0,0,0-2.17,4H32.3a2.68,2.68,0,0,0-1.9.78,2.68,2.68,0,0,0,0,3.8,2.69,2.69,0,0,0,1.9.79h2.36v4.73H32.3a2.68,2.68,0,0,0-1.9.78,2.68,2.68,0,0,0,0,3.8,2.69,2.69,0,0,0,1.9.79h2.36v4.73H32.3a2.68,2.68,0,0,0-1.9.78,2.68,2.68,0,0,0,0,3.8,2.69,2.69,0,0,0,1.9.79h2.56A8.13,8.13,0,0,0,37,57.93,8,8,0,0,0,41,60.1v2.57a2.69,2.69,0,0,0,4.58,1.9,2.72,2.72,0,0,0,.79-1.9V60.3h4.73v2.37a2.69,2.69,0,0,0,4.58,1.9,2.72,2.72,0,0,0,.79-1.9V60.3h4.73v2.37a2.69,2.69,0,0,0,4.58,1.9,2.72,2.72,0,0,0,.79-1.9V60.1A8,8,0,0,0,72.66,54h2.57a2.69,2.69,0,1,0,0-5.37H72.86V43.89h2.37a2.69,2.69,0,1,0,0-5.37H72.86V33.79ZM67.5,52.25a2.77,2.77,0,0,1-.79,1.9,2.69,2.69,0,0,1-1.9.78H42.72a2.68,2.68,0,0,1-1.9-.78,2.72,2.72,0,0,1-.79-1.9V30.15a2.68,2.68,0,0,1,.79-1.89,2.65,2.65,0,0,1,1.9-.79H64.81a2.66,2.66,0,0,1,1.9.79,2.72,2.72,0,0,1,.79,1.89Z"/></g></g></svg>