<svg xmlns="http://www.w3.org/2000/svg" viewBox="0 0 89.78 92.73"><defs><style>.cls-1{fill:#4d4d4d;}.cls-2{fill:#0099dc;}</style></defs><title>Asset 29</title><g id="Layer_2" data-name="Layer 2"><g id="Layer_1-2" data-name="Layer 1"><path class="cls-1" d="M51.43,63.75l-1-.14a1.46,1.46,0,1,0-.29,2.9l1,.14h.14a1.55,1.55,0,0,0,1.47-1.3A1.7,1.7,0,0,0,51.43,63.75Z"/><path class="cls-1" d="M58.63,51.44a1.6,1.6,0,0,0-2.06-.15,1.55,1.55,0,0,0-.14,2l.59.73a1.44,1.44,0,0,0,2,0,1.54,1.54,0,0,0,.15-2Z"/><path class="cls-1" d="M57.16,42.74l1.62-1.16a1.53,1.53,0,0,0,.29-2,1.58,1.58,0,0,0-2-.29L55.4,40.43a1.53,1.53,0,0,0-.3,2A1.59,1.59,0,0,0,57.16,42.74Z"/><path class="cls-1" d="M51.87,24.92H50.26a1.45,1.45,0,1,0,0,2.9h1.61a1.45,1.45,0,1,0,0-2.9Z"/><path class="cls-2" d="M44,30.43V62.22s-15.31-.13-16.34-15.7C27.61,46.52,27.36,31.2,44,30.43Z"/><path class="cls-1" d="M84.64,59.12a3.91,3.91,0,0,0-3.08,1.45l-2.5-.87a14.86,14.86,0,0,0,.88-25.07l2.94-1.3a4.25,4.25,0,0,0,2.94,1.3,3.91,3.91,0,1,0,0-7.82,4.1,4.1,0,0,0-4,3.76L79.2,31.73a13.21,13.21,0,0,0-7.78-15.07l7.93-4.34A1.73,1.73,0,0,0,80.09,11V7.53a3.93,3.93,0,0,0,2.49-3.62,4,4,0,0,0-7.93,0,3.94,3.94,0,0,0,2.5,3.62v2.61l-7.79,4.2C69.51,3.62,56.87-3.33,47.61,3.48H37a1.43,1.43,0,0,0-1.47,1.16l-1.32,7.53a41.34,41.34,0,0,0-8.67,3.48L19.25,11.3a1.57,1.57,0,0,0-1.91.15L8.08,20.72a1.49,1.49,0,0,0-.14,1.88l4.4,6.23a33,33,0,0,0-3.52,8.55L1.18,38.69A1.41,1.41,0,0,0,0,40.14V53a1.41,1.41,0,0,0,1.18,1.45l7.49,1.3a38.61,38.61,0,0,0,3.53,8.55L7.79,70.56a1.55,1.55,0,0,0,.29,1.74l9.41,9.13a1.57,1.57,0,0,0,1.91.15l6.32-4.35a35,35,0,0,0,8.67,3.48l1.32,7.53a1.42,1.42,0,0,0,1.47,1.16h11.9A13.62,13.62,0,0,0,68.77,82l3.67,2V85.2a4,4,0,1,0,2.94,0V83.31a1.51,1.51,0,0,0-.73-1.3l-3.38-1.88a13.42,13.42,0,0,0,7.35-17.54l2.35.73a4,4,0,0,0,4,3.48,3.92,3.92,0,0,0,4-3.92A4.39,4.39,0,0,0,84.64,59.12Zm-6-56.22a1,1,0,0,1,1,1,1,1,0,1,1-1-1ZM73.77,89.83a1,1,0,1,1,1-1A1,1,0,0,1,73.77,89.83ZM85.67,29.7a1,1,0,1,1-1,1A1.24,1.24,0,0,1,85.67,29.7ZM42.17,60.86a14.41,14.41,0,0,1,0-28.69Zm-4,25.79L36.88,79.4a1.57,1.57,0,0,0-1.17-1.16,32.88,32.88,0,0,1-9.55-3.91,1.62,1.62,0,0,0-1.62,0l-6,4.2L11,71.14l4.26-5.94a1.52,1.52,0,0,0,0-1.59,28.21,28.21,0,0,1-4-9.42A1.57,1.57,0,0,0,10.14,53l-7.2-1.3V41.29L10.29,40a1.59,1.59,0,0,0,1.17-1.16,31,31,0,0,1,4-9.42,1.56,1.56,0,0,0,0-1.59L11,21.88l7.64-7.54,6,4.21a1.6,1.6,0,0,0,1.61,0,33.13,33.13,0,0,1,9.55-3.92A1.59,1.59,0,0,0,37,13.48l1.32-7.25h6.47C41,11.45,42.61,15.5,42.17,29.12a17.37,17.37,0,0,0,0,34.63c.59,10.87-1.76,17.25,3.24,22.9Zm31.15-9A13.59,13.59,0,0,0,55.69,64.48a1.45,1.45,0,1,0,0,2.9,10.53,10.53,0,0,1,10,14.2h0A10.73,10.73,0,0,1,50,86.79c-6.17-3.91-4.85-1.59-4.85-72.45C45.11,4.49,57.9,0,64.22,7.82c5.43,6.81.44,17-8.38,17a1.45,1.45,0,1,0,0,2.89,13.49,13.49,0,0,0,12.78-9,10.07,10.07,0,0,1,6.76,5.36,9.73,9.73,0,0,1,.44,8.55,15.16,15.16,0,0,0-15.13,3.62,1.39,1.39,0,0,0,0,2,1.44,1.44,0,0,0,2.06,0c7.78-7.68,21.45-1.88,20.72,9.28C82.88,58,70,62.45,62.75,55.2a1.44,1.44,0,0,0-2.06,0,1.39,1.39,0,0,0,0,2,15.11,15.11,0,0,0,10.73,4.35,23.07,23.07,0,0,0,3.08-.29A10.61,10.61,0,0,1,69.36,77.66ZM84.64,63.9a1,1,0,1,1,1-1A1,1,0,0,1,84.64,63.9Z"/></g></g></svg>