<svg xmlns="http://www.w3.org/2000/svg" viewBox="0 0 78.72 78.8"><defs><style>.cls-1{fill:#fff;}</style></defs><title>Asset 32</title><g id="Layer_2" data-name="Layer 2"><g id="Layer_1-2" data-name="Layer 1"><path class="cls-1" d="M39.36,27.9A11.53,11.53,0,1,0,50.89,39.43,11.54,11.54,0,0,0,39.36,27.9Zm0,18.44a6.92,6.92,0,1,1,6.92-6.91A6.92,6.92,0,0,1,39.36,46.34Z"/><path class="cls-1" d="M39.36,42.69,36.1,39.43l3.26-3.26,3.26,3.26Z"/><path class="cls-1" d="M60,54.33a66.84,66.84,0,0,0-.64-13.85A72.38,72.38,0,0,0,45.23,7.83L39.36,0,33.48,7.83A72.26,72.26,0,0,0,19.39,40.48a66.84,66.84,0,0,0-.65,13.85A22.53,22.53,0,0,0,9.38,72.61V78.8l4.79-3.51a20.58,20.58,0,0,1,7.94-3.14c.87,2.72,1.52,4.28,2.39,6.65,1.52-1,5.18-5.53,12.55-6.41v6.39h4.61V72.39c7.4.88,11.05,5.41,12.55,6.41.88-2.39,1.52-3.92,2.4-6.65a20.64,20.64,0,0,1,7.94,3.14l4.79,3.51V72.61A22.52,22.52,0,0,0,60,54.33ZM14.19,70a17.7,17.7,0,0,1,5.1-10.07,69.67,69.67,0,0,0,1.54,7.82A25.39,25.39,0,0,0,14.19,70ZM52,71.28a23.71,23.71,0,0,0-10.38-3.53v-12H37.05v12a23.79,23.79,0,0,0-10.38,3.53c-6.88-21-3.2-42.41,10.5-60.68l2.19-2.91,2.18,2.91C55.24,28.87,58.92,50.3,52,71.28Zm5.85-3.58a72,72,0,0,0,1.54-7.82A17.82,17.82,0,0,1,64.53,70,25.52,25.52,0,0,0,57.89,67.7Z"/><path class="cls-1" d="M0,18.67H14v4.61H0Z"/><path class="cls-1" d="M64.73,18.67h14v4.61h-14Z"/><path class="cls-1" d="M4.8,2.32,17.34,8.17l-1.95,4.18L2.85,6.5Z"/><path class="cls-1" d="M73.91,39.64,61.37,33.79l2-4.18,12.54,5.85Z"/><path class="cls-1" d="M2.85,35.46l12.54-5.85,1.95,4.18L4.8,39.64Z"/><path class="cls-1" d="M73.91,2.32l2,4.18L63.32,12.35l-2-4.18Z"/></g></g></svg>