<svg xmlns="http://www.w3.org/2000/svg" viewBox="0 0 76.8 76.8"><defs><style>.cls-1{fill:#fff;}</style></defs><title>Asset 31</title><g id="Layer_2" data-name="Layer 2"><g id="Layer_1-2" data-name="Layer 1"><path class="cls-1" d="M75.41,8.76l-9,4.5-2-4,9-4.5Z"/><path class="cls-1" d="M73.4,44.76l-9-4.5,2-4,9,4.5Z"/><path class="cls-1" d="M67.65,22.5H76.8V27H67.65Z"/><path class="cls-1" d="M3.41,4.74l9,4.5-2,4-9-4.5Z"/><path class="cls-1" d="M3.41,44.76l-2-4,9-4.5,2,4Z"/><path class="cls-1" d="M0,22.5H9.15V27H0Z"/><path class="cls-1" d="M31.65,72.3h13.5v4.5H31.65Z"/><path class="cls-1" d="M63.15,24.75a24.75,24.75,0,1,0-36,22V54h-4.5v4.5h4.5v9.3h22.5V58.5h4.5V54h-4.5V46.76A24.74,24.74,0,0,0,63.15,24.75Zm-18,38.55H31.65V58.5h13.5Zm-9-34A2.25,2.25,0,1,1,38.4,31.5,2.25,2.25,0,0,1,36.15,29.25ZM40.65,54V35.61a6.75,6.75,0,1,0-4.5,0V54h-4.5V43.87l-1.35-.59a20.25,20.25,0,1,1,16.2,0l-1.35.59V54Z"/></g></g></svg>