<svg xmlns="http://www.w3.org/2000/svg" viewBox="0 0 76.84 76.84"><defs><style>.cls-1{fill:#fff;}</style></defs><title>Asset 33</title><g id="Layer_2" data-name="Layer 2"><g id="Layer_1-2" data-name="Layer 1"><path class="cls-1" d="M76.84,72.34h-4.5v-33l4.5,4.51V18.16H51.15l8.07,8.07L51.44,34,34,21.05,4.5,42V0H0V76.84H76.84Zm-45.17-33v33H18.16V48.92Zm4.5.22L49.83,49.69V72.34H36.17ZM54.33,50.22l13.51-13.5V72.34H54.33ZM34,26.62,51.87,40,65.59,26.23,62,22.66H72.34V33l-3.57-3.57L52.28,45.9,33.88,32.21,4.5,53.1V47.56ZM4.5,58.62l9.16-6.5V72.34H4.5Z"/></g></g></svg>