<svg xmlns="http://www.w3.org/2000/svg" viewBox="0 0 79.35 79.35"><defs><style>.cls-1{fill:#fff;}</style></defs><title>Asset 35</title><g id="Layer_2" data-name="Layer 2"><g id="Layer_1-2" data-name="Layer 1"><path class="cls-1" d="M35,21.66a7,7,0,0,0-1.47-11.22L38.58,0h-26l5.05,10.44a7,7,0,0,0-1.47,11.23C3.6,31.27,0,46.48,0,62.29V74.7H41.84v4.65H79.35V32.86H44.7A36.75,36.75,0,0,0,35,21.66ZM20.92,18.91a2.33,2.33,0,0,1,0-4.65h9.3a2.33,2.33,0,1,1,0,4.65ZM31.16,4.65l-2.4,5H22.38l-2.4-5ZM4.65,70.05V62.29c0-18.94,5.54-31.62,16.93-38.73h8A32,32,0,0,1,41.84,37.45v32.6ZM74.7,74.7H46.49V65.4H74.7Zm-28.21-14v-9.3H74.7v9.3ZM74.7,37.5v9.3H46.49V37.5Z"/><path class="cls-1" d="M25.57,44.48A2.33,2.33,0,0,1,27.9,46.8h4.65a7,7,0,0,0-4.65-6.57V37.5H23.25v2.73a7,7,0,0,0,2.32,13.55,2.33,2.33,0,1,1-2.32,2.32H18.6a7,7,0,0,0,4.65,6.58V65.4H27.9V62.68a7,7,0,0,0-2.33-13.55,2.33,2.33,0,0,1,0-4.65Z"/></g></g></svg>