<svg xmlns="http://www.w3.org/2000/svg" viewBox="0 0 75.37 85.76"><defs><style>.cls-1{fill:#fff;}</style></defs><title>Asset 34</title><g id="Layer_2" data-name="Layer 2"><g id="Layer_1-2" data-name="Layer 1"><path class="cls-1" d="M63.59,20.53l3.94-3.94,3.56,3.55,3.55-3.55L64,5.93,60.43,9.48,64,13,59.7,17.31A37.2,37.2,0,0,0,45.23,11V5h5V0H25.12V5h5v6a37.24,37.24,0,0,0-14.48,6.34L11.4,13,15,9.48,11.4,5.93.74,16.59l3.55,3.55,3.55-3.55,3.95,3.94A37.42,37.42,0,0,0,0,47.9,37.69,37.69,0,1,0,63.59,20.53ZM35.18,5h5V10.3c-.83-.05-1.67-.08-2.51-.08s-1.68,0-2.51.08Zm2.51,75.71A32.75,32.75,0,1,1,70.35,47.9,32.78,32.78,0,0,1,37.69,80.73Z"/><path class="cls-1" d="M40.2,40.8V20.27h-5V40.8a7.54,7.54,0,1,0,5,0Zm-2.51,9.62A2.52,2.52,0,1,1,40.2,47.9,2.51,2.51,0,0,1,37.69,50.42Z"/><path class="cls-1" d="M35.18,70.52h5v5h-5Z"/><path class="cls-1" d="M10.05,45.39h5v5h-5Z"/><path class="cls-1" d="M60.3,45.39h5v5h-5Z"/><path class="cls-1" d="M19.92,69.22l-3.55-3.55,3.55-3.55,3.55,3.55Z"/><path class="cls-1" d="M55.45,33.69,51.9,30.14l3.55-3.55L59,30.14Z"/><path class="cls-1" d="M55.45,69.22,51.9,65.67l3.55-3.55L59,65.67Z"/><path class="cls-1" d="M19.92,33.69l-3.55-3.55,3.55-3.55,3.55,3.55Z"/></g></g></svg>