<svg xmlns="http://www.w3.org/2000/svg" viewBox="0 0 277.24 41.4"><defs><style>.cls-1{fill:#6cc5ed;}.cls-2{fill:#333;}</style></defs><title>Asset 40</title><g id="Layer_2" data-name="Layer 2"><g id="Layer_1-2" data-name="Layer 1"><path class="cls-1" d="M240.4,29.36,251.94,0h4.25l10.68,29.36h-7l-1.75-4.95h-8.85l-1.87,4.95Zm11.46-11.42h3.94l-1.87-5.19Z"/><path class="cls-1" d="M269.91,29.32V.12h6.48v29.2Z"/><path class="cls-2" d="M0,29.5V.19H6.49V29.5Z"/><path class="cls-2" d="M17.29,29.5H10.76V.15H16.2L28.44,16.39V.15H35V29.5H30.09L17.29,12.56Z"/><path class="cls-2" d="M59.27,6.73H52V29.5H45.46V6.73H38.18V.19H59.27Z"/><path class="cls-2" d="M68.85,6.57v5.09h8.42V18H68.85v5H82.66V29.5H62.48V.19H82.66V6.57Z"/><path class="cls-2" d="M87,29.5V.23h6.49V23h14.32V29.5Z"/><path class="cls-2" d="M132.08,21.67a8.21,8.21,0,0,1-4.5,6.26,13.38,13.38,0,0,1-6.5,1.57c-.51,0-1,0-1.49-.08-4.14-.39-7.74-2.35-9.58-5.17l5.36-3.52a6.41,6.41,0,0,0,4.81,2.35,7.74,7.74,0,0,0,4.34-.74c.71-.36,1.18-.86,1.22-1.29,0-.59-.16-2.55-5-3-6.93-.66-11.23-4.69-10.72-10a8.2,8.2,0,0,1,4.54-6.34,14.68,14.68,0,0,1,8-1.45c4.11.39,7.71,2.35,9.58,5.17l-5.36,3.48c-.62-1-2.34-2-4.85-2.27a8.12,8.12,0,0,0-4.34.7c-.66.39-1.13.9-1.17,1.29-.2,2,3.17,2.86,5,3v0C128.4,12.36,132.58,16.27,132.08,21.67Z"/><path class="cls-2" d="M142.44,6.57v5.09h8.41V18h-8.41v5h13.81V29.5H136.06V.19h20.19V6.57Z"/><path class="cls-2" d="M167.09,29.5h-6.54V.15H166l12.25,16.24V.15h6.53V29.5h-4.89L167.09,12.56Z"/><path class="cls-2" d="M210.87,21.67a8.21,8.21,0,0,1-4.5,6.26,13.38,13.38,0,0,1-6.5,1.57c-.51,0-1,0-1.48-.08-4.15-.39-7.75-2.35-9.59-5.17l5.36-3.52A6.41,6.41,0,0,0,199,23.08a7.79,7.79,0,0,0,4.35-.74c.7-.36,1.17-.86,1.21-1.29,0-.59-.16-2.55-5-3-6.92-.66-11.23-4.69-10.72-10a8.23,8.23,0,0,1,4.54-6.34,14.68,14.68,0,0,1,8-1.45c4.11.39,7.71,2.35,9.59,5.17l-5.36,3.48c-.63-1-2.35-2-4.86-2.27a8.14,8.14,0,0,0-4.34.7c-.66.39-1.13.9-1.17,1.29-.2,2,3.17,2.86,5,3v0C207.19,12.36,211.37,16.27,210.87,21.67Z"/><path class="cls-2" d="M221.23,6.57v5.09h8.41V18h-8.41v5H235V29.5H214.86V.19H235V6.57Z"/><path class="cls-2" d="M58.43,41.18a2.38,2.38,0,0,1-1-.58l.25-.5a2.49,2.49,0,0,0,.89.54,3.2,3.2,0,0,0,1.14.21A2,2,0,0,0,61,40.54a.93.93,0,0,0,.41-.78.78.78,0,0,0-.22-.59,1.46,1.46,0,0,0-.55-.34c-.22-.08-.52-.16-.91-.26a9.36,9.36,0,0,1-1.1-.34,1.85,1.85,0,0,1-.71-.49,1.33,1.33,0,0,1-.3-.91,1.59,1.59,0,0,1,.25-.85,1.69,1.69,0,0,1,.76-.61,3.12,3.12,0,0,1,1.26-.23,3.57,3.57,0,0,1,1,.15,3.1,3.1,0,0,1,.88.4l-.22.52a3.15,3.15,0,0,0-.83-.39,3.24,3.24,0,0,0-.86-.12,1.94,1.94,0,0,0-1.21.31,1,1,0,0,0-.41.8.81.81,0,0,0,.22.6,1.5,1.5,0,0,0,.56.34,9.33,9.33,0,0,0,.91.26,8.91,8.91,0,0,1,1.1.33,1.82,1.82,0,0,1,.7.49,1.27,1.27,0,0,1,.29.89,1.49,1.49,0,0,1-.25.85,1.61,1.61,0,0,1-.77.61,3.18,3.18,0,0,1-1.27.22A3.79,3.79,0,0,1,58.43,41.18Z"/><path class="cls-2" d="M76.59,40.79v.56H72.24V35.2h4.22v.56H72.89V38h3.18v.55H72.89v2.29Z"/><path class="cls-2" d="M92.05,35.2v6.15h-.54l-4-5v5H86.9V35.2h.54l4,5v-5Z"/><path class="cls-2" d="M103.22,41.18a2.45,2.45,0,0,1-1-.58l.25-.5a2.58,2.58,0,0,0,.89.54,3.2,3.2,0,0,0,1.14.21,2,2,0,0,0,1.24-.31.92.92,0,0,0,.42-.78.79.79,0,0,0-.23-.59,1.46,1.46,0,0,0-.55-.34c-.21-.08-.52-.16-.9-.26a9.62,9.62,0,0,1-1.11-.34,1.85,1.85,0,0,1-.71-.49,1.38,1.38,0,0,1-.29-.91,1.58,1.58,0,0,1,.24-.85,1.75,1.75,0,0,1,.76-.61,3.12,3.12,0,0,1,1.26-.23,3.63,3.63,0,0,1,1,.15,3,3,0,0,1,.87.4l-.22.52a3.24,3.24,0,0,0-.82-.39,3.31,3.31,0,0,0-.87-.12,2,2,0,0,0-1.21.31,1,1,0,0,0-.41.8.81.81,0,0,0,.22.6,1.47,1.47,0,0,0,.57.34,7.92,7.92,0,0,0,.91.26,8.69,8.69,0,0,1,1.09.33,1.85,1.85,0,0,1,.71.49,1.32,1.32,0,0,1,.29.89,1.57,1.57,0,0,1-.25.85,1.71,1.71,0,0,1-.77.61,3.23,3.23,0,0,1-1.28.22A3.88,3.88,0,0,1,103.22,41.18Z"/><path class="cls-2" d="M121.38,40.79v.56H117V35.2h4.22v.56h-3.57V38h3.18v.55h-3.18v2.29Z"/><path class="cls-2" d="M144,35.76h-2.16V35.2h5v.56h-2.17v5.59H144Z"/><path class="cls-2" d="M161.76,35.2v6.15h-.64V38.51h-3.85v2.84h-.65V35.2h.65v2.74h3.85V35.2Z"/><path class="cls-2" d="M176.9,40.79v.56h-4.35V35.2h4.22v.56H173.2V38h3.19v.55H173.2v2.29Z"/><path class="cls-2" d="M199,35.76v2.42h3.18v.56H199v2.61h-.65V35.2h4.22v.56Z"/><path class="cls-2" d="M213.28,40.72a2.75,2.75,0,0,1-.67-2V35.2h.65v3.49a2.3,2.3,0,0,0,.48,1.6,2.13,2.13,0,0,0,2.81,0,2.3,2.3,0,0,0,.48-1.6V35.2h.63v3.52a2.79,2.79,0,0,1-.66,2,2.88,2.88,0,0,1-3.72,0Z"/><path class="cls-2" d="M229.48,35.76h-2.16V35.2h5v.56h-2.16v5.59h-.65Z"/><path class="cls-2" d="M242.61,40.72a2.79,2.79,0,0,1-.67-2V35.2h.65v3.49a2.3,2.3,0,0,0,.49,1.6,2.11,2.11,0,0,0,2.8,0,2.3,2.3,0,0,0,.49-1.6V35.2H247v3.52a2.75,2.75,0,0,1-.67,2,2.48,2.48,0,0,1-1.85.68A2.52,2.52,0,0,1,242.61,40.72Z"/><path class="cls-2" d="M262,41.35l-1.41-2a3.91,3.91,0,0,1-.49,0H258.4v2h-.65V35.2h2.3a2.74,2.74,0,0,1,1.84.56,1.9,1.9,0,0,1,.67,1.55,2,2,0,0,1-.36,1.21,2.08,2.08,0,0,1-1,.72l1.5,2.11Zm-.52-2.91a1.4,1.4,0,0,0,.48-1.13,1.42,1.42,0,0,0-.48-1.15,2.12,2.12,0,0,0-1.4-.4H258.4v3.08H260A2.12,2.12,0,0,0,261.43,38.44Z"/><path class="cls-2" d="M277.24,40.79v.56h-4.35V35.2h4.22v.56h-3.57V38h3.18v.55h-3.18v2.29Z"/></g></g></svg>