<svg width="155" height="155" viewBox="0 0 155 155" fill="none" xmlns="http://www.w3.org/2000/svg">
<path d="M73.1761 2.34094C75.6852 0.892362 78.7764 0.892359 81.2854 2.34093L140.06 36.2744C142.569 37.723 144.115 40.4001 144.115 43.2973V111.164C144.115 114.061 142.569 116.739 140.06 118.187L81.2854 152.121C78.7764 153.569 75.6852 153.569 73.1762 152.121L14.4016 118.187C11.8926 116.739 10.347 114.061 10.347 111.164V43.2973C10.347 40.4001 11.8926 37.723 14.4016 36.2745L73.1761 2.34094Z" fill="#4C67F6"/>
<path d="M104.88 77.52C105.278 77.52 105.6 77.1977 105.6 76.8C105.6 76.4023 105.278 76.08 104.88 76.08H98.3999V66H102.152C102.43 66.6352 103.062 67.08 103.8 67.08C104.794 67.08 105.6 66.274 105.6 65.28C105.6 64.2858 104.794 63.48 103.8 63.48C103.062 63.48 102.43 63.9248 102.152 64.56H98.3999V58.8C98.3999 56.8151 96.7848 55.2 94.7999 55.2H89.0434V48.72C89.0434 48.3223 88.7214 48 88.3234 48C87.9254 48 87.6034 48.3223 87.6034 48.72V55.2H77.5228V48.72C77.5228 48.3223 77.2008 48 76.8033 48C76.4056 48 76.0833 48.3223 76.0833 48.72V55.2H66.0033V51.4481C66.6385 51.1702 67.0833 50.5378 67.0833 49.8C67.0833 48.8058 66.2773 48 65.2833 48C64.2891 48 63.4833 48.8058 63.4833 49.8C63.4833 50.5378 63.9281 51.1699 64.5633 51.4481L64.5631 55.2H58.8C56.8151 55.2 55.2 56.8151 55.2 58.8V64.56H48.72C48.3223 64.56 48 64.8823 48 65.28C48 65.6777 48.3223 66 48.72 66H55.2V76.08H48.72C48.3223 76.08 48 76.4023 48 76.8C48 77.1977 48.3223 77.52 48.72 77.52H55.2V87.6H51.4481C51.1702 86.9648 50.5378 86.52 49.8 86.52C48.8058 86.52 48 87.3258 48 88.32C48 89.314 48.8058 90.12 49.8 90.12C50.5378 90.12 51.1699 89.6752 51.4481 89.04H55.2V94.8C55.2 96.7849 56.8151 98.4 58.8 98.4H64.56V102.16C63.9267 102.438 63.4833 103.069 63.4833 103.806C63.4833 104.8 64.2891 105.606 65.2833 105.606C66.2773 105.606 67.0833 104.8 67.0833 103.806C67.0833 103.067 66.6371 102.433 66 102.156V98.4H76.08V104.88C76.08 105.278 76.4023 105.6 76.8 105.6C77.1977 105.6 77.52 105.278 77.52 104.88V98.4H87.6V104.88C87.6 105.278 87.922 105.6 88.32 105.6C88.718 105.6 89.04 105.278 89.04 104.88V98.4H94.8C96.7849 98.4 98.4 96.7849 98.4 94.8V89.04H104.88C105.278 89.04 105.6 88.7177 105.6 88.32C105.6 87.9223 105.278 87.6 104.88 87.6H98.4V77.52H104.88ZM96.9599 94.8C96.9599 95.9911 95.991 96.96 94.7999 96.96H58.7999C57.6088 96.96 56.6399 95.9911 56.6399 94.8V58.8C56.6399 57.6089 57.6088 56.64 58.7999 56.64H94.7999C95.991 56.64 96.9599 57.6089 96.9599 58.8V94.8Z" fill="white"/>
<path d="M74.8333 90L82.4167 73.75L90 90M77 85.6667H87.8333M64 67.7859C66.875 67.4281 69.7695 67.2492 72.6667 67.25M72.6667 67.25C74.2844 67.25 75.8921 67.3049 77.4824 67.4147M72.6667 67.25V64M77.4824 67.4147C75.8098 75.0616 70.7744 81.4489 64 84.9473M77.4824 67.4147C78.7767 67.5028 80.0608 67.627 81.3333 67.7859M74.7048 80.0564C72.3358 77.648 70.4583 74.8015 69.1769 71.6758" stroke="white" stroke-width="2" stroke-linecap="round" stroke-linejoin="round"/>
</svg>
