<svg xmlns="http://www.w3.org/2000/svg" viewBox="0 0 91.04 92.03"><defs><style>.cls-1{fill:#0099dc;}.cls-2{fill:#4d4d4d;}</style></defs><title>Asset 28</title><g id="Layer_2" data-name="Layer 2"><g id="Layer_1-2" data-name="Layer 1"><path class="cls-1" d="M64.48,7.24l1.35-2.77a46.55,46.55,0,0,0-6-2.34l-.95,2.92A43.85,43.85,0,0,1,64.48,7.24Z"/><path class="cls-1" d="M46.93,3.07a44.94,44.94,0,0,1,6,.59l.53-3A49.58,49.58,0,0,0,47,0Z"/><path class="cls-1" d="M69.75,10.15a45.87,45.87,0,0,1,4.57,3.4l2.06-2.32a49.73,49.73,0,0,0-4.9-3.64Z"/><path class="cls-1" d="M9.42,26.06a4.48,4.48,0,0,0-1.09-2.9A44.09,44.09,0,0,1,34.91,4.3h0a46,46,0,0,1,6-1l-.33-3a47.4,47.4,0,0,0-6.39,1.1h0A47.29,47.29,0,0,0,5.65,21.55a4.83,4.83,0,0,0-.94-.09,4.61,4.61,0,1,0,0,9.21A4.67,4.67,0,0,0,9.42,26.06ZM4.71,27.6a1.54,1.54,0,1,1,1.57-1.54A1.55,1.55,0,0,1,4.71,27.6Z"/><path class="cls-1" d="M14.67,80.79a45.59,45.59,0,0,0,4.89,3.64l1.74-2.56a44.65,44.65,0,0,1-4.57-3.39Z"/><path class="cls-1" d="M25.21,87.56a48,48,0,0,0,6,2.34l1-2.93a45.18,45.18,0,0,1-5.63-2.18Z"/><path class="cls-1" d="M37.56,91.39A47.61,47.61,0,0,0,44,92l.1-3.07a44.94,44.94,0,0,1-6-.59Z"/><path class="cls-1" d="M86.33,61.36A4.66,4.66,0,0,0,81.62,66a4.49,4.49,0,0,0,1.09,2.91A44,44,0,0,1,56.13,87.72h0a44.46,44.46,0,0,1-6,1l.32,3a47.82,47.82,0,0,0,6.4-1.1h0a47.25,47.25,0,0,0,28.5-20.23,4.83,4.83,0,0,0,.94.1,4.61,4.61,0,1,0,0-9.21Zm0,6.14A1.54,1.54,0,1,1,87.9,66,1.56,1.56,0,0,1,86.33,67.5Z"/><path class="cls-2" d="M83.19,46h0c0-20.31-16.9-36.83-37.67-36.83S7.85,25.7,7.85,46h0c0,20.3,16.9,36.82,37.67,36.82S83.19,66.32,83.19,46ZM45.52,12.25c17.53,0,32,12.84,34.24,29.4C74,35.79,61,24.53,45.52,24.53S17,35.79,11.29,41.65C13.49,25.09,28,12.25,45.52,12.25Zm8,17.12L50.39,34.7a12.43,12.43,0,0,0-3.3-.86V27.68l.44,0A19.29,19.29,0,0,1,53.54,29.37Zm-8,25.85A9.21,9.21,0,1,1,54.94,46,9.33,9.33,0,0,1,45.52,55.22Zm-10-16.62-5.47-3.08a18.84,18.84,0,0,1,4.72-4.62l3.16,5.35A12.48,12.48,0,0,0,35.53,38.6Zm2.41,17.18-3.16,5.34a18.8,18.8,0,0,1-4.72-4.61l5.47-3.09A12.53,12.53,0,0,0,37.94,55.78Zm17.57-2.36L61,56.51a18.64,18.64,0,0,1-4.72,4.61L53.1,55.78A12.53,12.53,0,0,0,55.51,53.42ZM53.1,36.25l3.16-5.35A18.68,18.68,0,0,1,61,35.52L55.51,38.6A12.48,12.48,0,0,0,53.1,36.25ZM44,27.68v6.16a13,13,0,0,0-3.3.86l-3.14-5.33a18.94,18.94,0,0,1,6-1.66C43.66,27.69,43.81,27.69,44,27.68ZM28.5,38.18,34,41.25a12.06,12.06,0,0,0-.88,3.23H26.76A17.89,17.89,0,0,1,28.5,38.18Zm4.57,9.37A12,12,0,0,0,34,50.77L28.5,53.85a17.89,17.89,0,0,1-1.74-6.3Zm4.44,15.1,3.14-5.32a12.61,12.61,0,0,0,3.3.85v6.17l-.43,0A19,19,0,0,1,37.51,62.65Zm9.58,1.69V58.18a12.61,12.61,0,0,0,3.3-.85l3.14,5.32a18.88,18.88,0,0,1-6,1.67ZM62.54,53.85,57.1,50.78A12.14,12.14,0,0,0,58,47.55h6.31A17.89,17.89,0,0,1,62.54,53.85ZM58,44.48a12.14,12.14,0,0,0-.87-3.23l5.44-3.07a17.89,17.89,0,0,1,1.74,6.3ZM23.55,46a21.1,21.1,0,0,0,5.07,13.72A67.27,67.27,0,0,1,11.47,46,67.18,67.18,0,0,1,28.63,32.29,21.09,21.09,0,0,0,23.55,46Zm44,0A21.07,21.07,0,0,0,62.42,32.3,67.52,67.52,0,0,1,79.57,46,67.16,67.16,0,0,1,62.41,59.74,21.13,21.13,0,0,0,67.5,46Zm-22,33.76c-17.53,0-32-12.83-34.23-29.39C17,56.23,30,67.5,45.52,67.5S74,56.23,79.76,50.38C77.56,66.94,63.05,79.77,45.52,79.77Z"/></g></g></svg>