<?xml version="1.0" encoding="UTF-8"?> <svg xmlns="http://www.w3.org/2000/svg" width="28" height="28" viewBox="0 0 28 28" fill="none"><g clip-path="url(#clip0)"><path d="M23.8995 4.10047C21.2552 1.45627 17.7395 0 14 0C10.2605 0 6.74477 1.45627 4.10047 4.10047C1.45627 6.74477 0 10.2605 0 14C0 17.7395 1.45627 21.2552 4.10047 23.8995C6.74477 26.5437 10.2605 28 14 28C17.7395 28 21.2552 26.5437 23.8995 23.8995C26.5437 21.2552 28 17.7395 28 14C28 10.2605 26.5437 6.74477 23.8995 4.10047ZM6.5625 15.3125C6.5625 16.0374 5.97488 16.625 5.25 16.625C4.52512 16.625 3.9375 16.0374 3.9375 15.3125V12.6875C3.9375 11.9626 4.52512 11.375 5.25 11.375C5.97488 11.375 6.5625 11.9626 6.5625 12.6875V15.3125ZM10.9375 17.5C10.9375 18.2249 10.3499 18.8125 9.625 18.8125C8.90012 18.8125 8.3125 18.2249 8.3125 17.5V10.5C8.3125 9.77512 8.90012 9.1875 9.625 9.1875C10.3499 9.1875 10.9375 9.77512 10.9375 10.5V17.5ZM15.3125 20.125C15.3125 20.8499 14.7249 21.4375 14 21.4375C13.2751 21.4375 12.6875 20.8499 12.6875 20.125V7.875C12.6875 7.15012 13.2751 6.5625 14 6.5625C14.7249 6.5625 15.3125 7.15012 15.3125 7.875V20.125ZM19.6875 17.5C19.6875 18.2249 19.0999 18.8125 18.375 18.8125C17.6501 18.8125 17.0625 18.2249 17.0625 17.5V10.5C17.0625 9.77512 17.6501 9.1875 18.375 9.1875C19.0999 9.1875 19.6875 9.77512 19.6875 10.5V17.5ZM22.75 16.625C22.0251 16.625 21.4375 16.0374 21.4375 15.3125V12.6875C21.4375 11.9626 22.0251 11.375 22.75 11.375C23.4749 11.375 24.0625 11.9626 24.0625 12.6875V15.3125C24.0625 16.0374 23.4749 16.625 22.75 16.625Z" fill="#1A2328"></path></g><defs><clipPath id="clip0"><rect width="28" height="28" fill="white"></rect></clipPath></defs></svg> 