<svg xmlns="http://www.w3.org/2000/svg" viewBox="0 0 15.35 17.72"><defs><style>.cls-1{fill:#6cc5ed;}</style></defs><title>Asset 45</title><g id="Layer_2" data-name="Layer 2"><g id="Layer_1-2" data-name="Layer 1"><path class="cls-1" d="M12.57,1.11A6.47,6.47,0,0,0,4,2.32a6.41,6.41,0,0,0-.61,7.26,1.65,1.65,0,0,1-.1,1.83L.33,15.29A1.53,1.53,0,0,0,.5,17.37a1.47,1.47,0,0,0,2.12-.23l3-4a1.65,1.65,0,0,1,1.72-.6A6.4,6.4,0,0,0,12.57,1.11Zm-.32,7.8a4.16,4.16,0,1,1-.79-5.83A4.16,4.16,0,0,1,12.25,8.91Z"/><path class="cls-1" d="M8.32,3.91a1.25,1.25,0,1,0,2,1.51,1.25,1.25,0,0,0-2-1.51Z"/></g></g></svg>