<svg width="155" height="155" viewBox="0 0 155 155" fill="none" xmlns="http://www.w3.org/2000/svg">
<path d="M73.1761 2.34094C75.6852 0.892362 78.7764 0.892359 81.2854 2.34093L140.06 36.2744C142.569 37.723 144.115 40.4001 144.115 43.2973V111.164C144.115 114.061 142.569 116.739 140.06 118.187L81.2854 152.121C78.7764 153.569 75.6852 153.569 73.1762 152.121L14.4016 118.187C11.8926 116.739 10.347 114.061 10.347 111.164V43.2973C10.347 40.4001 11.8926 37.723 14.4016 36.2745L73.1761 2.34094Z" fill="#0D58D3"/>
<path d="M76.9995 84.2C80.5728 84.2 83.4795 81.2928 83.4795 77.72V66.2C83.4795 62.6272 80.5728 59.72 76.9995 59.72C73.4267 59.72 70.5195 62.6272 70.5195 66.2V77.72C70.5195 81.2928 73.4267 84.2 76.9995 84.2ZM71.9595 66.2C71.9595 63.4208 74.2203 61.16 76.9995 61.16C79.7783 61.16 82.0395 63.4208 82.0395 66.2V77.72C82.0395 80.4992 79.7783 82.76 76.9995 82.76C74.2203 82.76 71.9595 80.4992 71.9595 77.72V66.2Z" fill="white"/>
<path d="M86.417 77.0012C86.019 77.0012 85.697 77.3235 85.697 77.7212C85.697 82.5179 81.7946 86.4206 76.9982 86.4206C72.2017 86.4206 68.2994 82.5178 68.2994 77.7212C68.2994 77.3235 67.9771 77.0012 67.5794 77.0012C67.1816 77.0012 66.8594 77.3235 66.8594 77.7212C66.8594 83.069 71.024 87.452 76.2782 87.824V92.8397H72.6782C72.2804 92.8397 71.9582 93.1619 71.9582 93.5597C71.9582 93.9574 72.2804 94.2797 72.6782 94.2797H81.3182C81.7161 94.2797 82.0382 93.9574 82.0382 93.5597C82.0382 93.1619 81.7161 92.8397 81.3182 92.8397H77.7182V87.824C82.9726 87.4521 87.137 83.069 87.137 77.7212C87.137 77.3235 86.8149 77.0012 86.417 77.0012Z" fill="white"/>
<path d="M105.079 77.72C105.477 77.72 105.799 77.3977 105.799 77C105.799 76.6022 105.477 76.28 105.079 76.28H98.5991V66.2H102.351C102.629 66.8351 103.261 67.28 103.999 67.28C104.993 67.28 105.799 66.4739 105.799 65.48C105.799 64.4858 104.993 63.68 103.999 63.68C103.261 63.68 102.629 64.1248 102.351 64.76H98.5991V59C98.5991 57.015 96.984 55.4 94.9991 55.4H89.2426V48.92C89.2426 48.5222 88.9206 48.2 88.5226 48.2C88.1247 48.2 87.8026 48.5222 87.8026 48.92V55.4H77.722V48.92C77.722 48.5222 77.4 48.2 77.0025 48.2C76.6048 48.2 76.2825 48.5222 76.2825 48.92V55.4H66.2025V51.6481C66.8377 51.3701 67.2825 50.7378 67.2825 50C67.2825 49.0058 66.4765 48.2 65.4825 48.2C64.4883 48.2 63.6825 49.0058 63.6825 50C63.6825 50.7378 64.1274 51.3699 64.7625 51.6481L64.7623 55.4H58.9992C57.0143 55.4 55.3992 57.015 55.3992 59V64.76H48.9192C48.5215 64.76 48.1992 65.0822 48.1992 65.48C48.1992 65.8777 48.5215 66.2 48.9192 66.2H55.3992V76.28H48.9192C48.5215 76.28 48.1992 76.6022 48.1992 77C48.1992 77.3977 48.5215 77.72 48.9192 77.72H55.3992V87.8H51.6474C51.3694 87.1648 50.737 86.72 49.9992 86.72C49.005 86.72 48.1992 87.5258 48.1992 88.52C48.1992 89.5139 49.005 90.32 49.9992 90.32C50.737 90.32 51.3691 89.8751 51.6474 89.24H55.3992V95C55.3992 96.9849 57.0143 98.6 58.9992 98.6H64.7592V102.36C64.1259 102.638 63.6825 103.269 63.6825 104.006C63.6825 105 64.4883 105.806 65.4825 105.806C66.4765 105.806 67.2825 105 67.2825 104.006C67.2825 103.267 66.8363 102.633 66.1992 102.356V98.6H76.2792V105.08C76.2792 105.478 76.6015 105.8 76.9992 105.8C77.397 105.8 77.7192 105.478 77.7192 105.08V98.6H87.7992V105.08C87.7992 105.478 88.1213 105.8 88.5192 105.8C88.9172 105.8 89.2392 105.478 89.2392 105.08V98.6H94.9992C96.9841 98.6 98.5992 96.9849 98.5992 95V89.24H105.079C105.477 89.24 105.799 88.9177 105.799 88.52C105.799 88.1222 105.477 87.8 105.079 87.8H98.5992V77.72H105.079ZM97.1591 95C97.1591 96.1911 96.1902 97.16 94.9991 97.16H58.9991C57.808 97.16 56.8391 96.1911 56.8391 95V59C56.8391 57.8088 57.808 56.84 58.9991 56.84H94.9991C96.1902 56.84 97.1591 57.8088 97.1591 59V95Z" fill="white"/>
</svg>
