<svg xmlns="http://www.w3.org/2000/svg" viewBox="0 0 61.39 53.24"><defs><style>.cls-1{fill:none;stroke:#fff;stroke-miterlimit:10;fill-rule:evenodd;}</style></defs><title>Asset 14</title><g id="Layer_2" data-name="Layer 2"><g id="Layer_1-2" data-name="Layer 1"><path class="cls-1" d="M31.38,11.93H53.05a2.75,2.75,0,0,1,2.75,2.75V44.22H11.55V31.31A17,17,0,0,0,31.38,11.93ZM10.91,1A14,14,0,1,1,1,18.18,14,14,0,0,1,10.91,1ZM6.83,16.61a1,1,0,0,1-2,.53A10,10,0,0,1,12,4.86a1,1,0,0,1,.53,2,8,8,0,0,0-5.65,9.78Zm6.58-6.31a4.39,4.39,0,1,1-3.11,5.38A4.39,4.39,0,0,1,13.41,10.3ZM6.46,46.51H60.89v1.65a4.59,4.59,0,0,1-4.58,4.58H11.05a4.6,4.6,0,0,1-4.59-4.58V46.51Zm7.72-33.32a1.4,1.4,0,1,0,1.72,1,1.41,1.41,0,0,0-1.72-1Z"/></g></g></svg>