<svg xmlns="http://www.w3.org/2000/svg" viewBox="0 0 48.32 44.68"><defs><style>.cls-1{fill:#fff;}</style></defs><title>Asset 11</title><g id="Layer_2" data-name="Layer 2"><g id="Layer_1-2" data-name="Layer 1"><path class="cls-1" d="M25.94,35.39h7.85l-3.93-6.67Zm2.54-1.45,1.39-2.35,1.38,2.35Z"/><polygon class="cls-1" points="23.64 35.55 21.37 35.55 21.37 36.97 19.94 36.97 19.94 39.25 21.37 39.25 21.37 40.68 23.64 40.68 23.64 39.25 25.07 39.25 25.07 36.97 23.64 36.97 23.64 35.55"/><path class="cls-1" d="M14.2,27.28H30.81A2.18,2.18,0,0,0,33,25.11V14a2.18,2.18,0,0,0-2.18-2.18H14.2A2.18,2.18,0,0,0,12,14V25.11A2.18,2.18,0,0,0,14.2,27.28ZM13.48,14a.73.73,0,0,1,.72-.73H30.81a.73.73,0,0,1,.73.73V25.11a.73.73,0,0,1-.73.72H14.2a.72.72,0,0,1-.72-.72Z"/><path class="cls-1" d="M17.15,21.27h1.1a1.19,1.19,0,0,0,1.2-1.19V19a1.19,1.19,0,0,0-1.2-1.19h-1.1A1.19,1.19,0,0,0,16,19v1.1A1.19,1.19,0,0,0,17.15,21.27Z"/><path class="cls-1" d="M26.76,21.27h1.1a1.19,1.19,0,0,0,1.2-1.19V19a1.19,1.19,0,0,0-1.2-1.19h-1.1A1.19,1.19,0,0,0,25.57,19v1.1A1.19,1.19,0,0,0,26.76,21.27Z"/><path class="cls-1" d="M15.35,29.19a3.22,3.22,0,1,0,3.21,3.22A3.22,3.22,0,0,0,15.35,29.19Zm0,5a1.77,1.77,0,1,1,1.76-1.77A1.77,1.77,0,0,1,15.35,34.18Z"/><path class="cls-1" d="M44.74,5.05,42.61,3.61l1.45-2.13L41.93,0,40.48,2.16,39,4.29l2.13,1.45.17.12a1.79,1.79,0,0,0-.28.2A4.38,4.38,0,0,0,39.45,9.2,9.06,9.06,0,0,0,41,14l1.6,2.76C43.56,18.31,44.41,20,44,21.4a3.75,3.75,0,0,1-2.35,2.25,10.2,10.2,0,0,1-3.08.55V12a5.32,5.32,0,0,0-5.32-5.32H11.76A5.32,5.32,0,0,0,6.44,12V23.15A5,5,0,0,1,3.7,20.27a10.19,10.19,0,0,1,.14-8.17c.18-.38.4-.75.62-1.15A9.58,9.58,0,0,0,5.69,8.13a4.55,4.55,0,0,0-.17-3H7.73V0H5.15V2.57H2.57V0H0V5.15H2.32l-.08.12.25.17c.91.62,1.13.77.83,2.19a7.57,7.57,0,0,1-1,2.11c-.24.43-.49.87-.71,1.34a12.62,12.62,0,0,0-.18,10.13c.86,2.05,2.71,4.07,5,4.42V39.37a5.32,5.32,0,0,0,5.32,5.31H33.25a5.32,5.32,0,0,0,5.32-5.31V26.62a12.52,12.52,0,0,0,4-.72,6.15,6.15,0,0,0,3.81-3.83c.67-2.34-.47-4.61-1.59-6.55l-1.6-2.76a6.74,6.74,0,0,1-1.27-3.45A1.94,1.94,0,0,1,42.56,8a.84.84,0,0,1,.67-.21l.1-.53,2.1,1.42L46.87,6.5l1.45-2.13L46.19,2.92ZM36.15,39.37a2.9,2.9,0,0,1-2.9,2.89H11.76a2.9,2.9,0,0,1-2.9-2.89V12a2.9,2.9,0,0,1,2.9-2.9H33.25a2.9,2.9,0,0,1,2.9,2.9Z"/></g></g></svg>