<svg xmlns="http://www.w3.org/2000/svg" viewBox="0 0 52.13 44.06"><defs><style>.cls-1{fill:#fff;}</style></defs><title>Asset 12</title><g id="Layer_2" data-name="Layer 2"><g id="Layer_1-2" data-name="Layer 1"><path class="cls-1" d="M26.07,0C11.69,0,0,9.39,0,20.93A18.67,18.67,0,0,0,6.53,34.79c-.94,4-2.06,5.35-2.66,5.81L2,42.06a1,1,0,0,0-.35,1.11,1,1,0,0,0,.9.71L4.9,44s.46,0,1.23,0c2.43,0,8.34-.31,12.12-3.15a32.2,32.2,0,0,0,7.82,1c14.37,0,26.06-9.39,26.06-20.93S40.44,0,26.07,0Zm0,39.83a30.1,30.1,0,0,1-7.79-1,1,1,0,0,0-.92.2c-3.23,2.72-8.93,3-11.23,3h-.8c1.4-1.24,2.52-3.71,3.31-7.37a1,1,0,0,0-.33-1A16.85,16.85,0,0,1,2,20.93C2,10.51,12.81,2,26.07,2s24,8.48,24,18.9S39.32,39.83,26.07,39.83Zm9.2-19.61H17.84a1,1,0,0,0,0,2H35.27a1,1,0,1,0,0-2Z"/></g></g></svg>