<svg xmlns="http://www.w3.org/2000/svg" viewBox="0 0 39.31 39.31"><defs><style>.cls-1{fill:#6cc5ed;}.cls-2{fill:#fff;fill-rule:evenodd;}</style></defs><title>Blue Icon YTAsset 12</title><g id="Layer_2" data-name="Layer 2"><g id="Layer_1-2" data-name="Layer 1"><circle class="cls-1" cx="19.65" cy="19.65" r="19.65"/><path class="cls-2" d="M11.45,26.47a2.38,2.38,0,0,1-1.59-1.54C9.17,23,9,15.14,10.29,13.58A2.55,2.55,0,0,1,12,12.67c3.56-.39,14.58-.33,15.85.12a2.52,2.52,0,0,1,1.56,1.5c.75,2,.78,9.06-.1,10.94a2.45,2.45,0,0,1-1.12,1.13C26.88,27.06,13.2,27.05,11.45,26.47Zm5.66-3.7,6.42-3.33-6.42-3.35Z"/></g></g></svg>