<svg xmlns="http://www.w3.org/2000/svg" viewBox="0 0 39.53 39.53"><defs><style>.cls-1{fill:#6cc5ed;}.cls-2{fill:#fff;fill-rule:evenodd;}</style></defs><title>Blue IconAsset 11</title><g id="Layer_2" data-name="Layer 2"><g id="Layer_1-2" data-name="Layer 1"><circle class="cls-1" cx="19.76" cy="19.76" r="19.76"/><path class="cls-2" d="M22.3,12.42c.72,0,1.44,0,2.16,0h.3V8.68c-.39,0-.79-.1-1.19-.11-.74,0-1.47-.07-2.21-.06a5.46,5.46,0,0,0-3.13,1,4.7,4.7,0,0,0-1.87,3.12,9.63,9.63,0,0,0-.13,1.61c0,.83,0,1.67,0,2.51V17H12.64v4.17H16.2v10.5h4.35V21.23h3.54c.19-1.39.36-2.76.55-4.2H20.52s0-2.07,0-3C20.59,12.84,21.32,12.46,22.3,12.42Z"/></g></g></svg>