<svg xmlns="http://www.w3.org/2000/svg" viewBox="0 0 39.49 39.49"><defs><style>.cls-1{fill:#6cc5ed;}.cls-2{fill:#fff;}</style></defs><title>Blue Icon LIAsset 13</title><g id="Layer_2" data-name="Layer 2"><g id="Layer_1-2" data-name="Layer 1"><circle class="cls-1" cx="19.74" cy="19.74" r="19.74" transform="translate(-6.24 29.98) rotate(-66.5)"/><path class="cls-2" d="M11.3,15.61h4V28.49h-4Zm2-6.39A2.32,2.32,0,1,1,11,11.53a2.32,2.32,0,0,1,2.33-2.31"/><path class="cls-2" d="M17.82,15.61h3.84v1.76h.05a4.22,4.22,0,0,1,3.79-2.08c4.05,0,4.8,2.67,4.8,6.14v7.06h-4V22.23c0-1.5,0-3.42-2.08-3.42s-2.4,1.63-2.4,3.31v6.37h-4Z"/></g></g></svg>