<svg xmlns="http://www.w3.org/2000/svg" viewBox="0 0 40.49 40.49"><defs><style>.cls-1{fill:none;stroke:#fff;stroke-miterlimit:10;}.cls-2{fill:#fff;}</style></defs><title>White LogoAsset 8</title><g id="Layer_2" data-name="Layer 2"><g id="Layer_1-2" data-name="Layer 1"><circle class="cls-1" cx="20.24" cy="20.24" r="19.74" transform="translate(-6.39 30.73) rotate(-66.5)"/><path class="cls-2" d="M11.8,16.11h4V29h-4Zm2-6.39A2.32,2.32,0,1,1,11.48,12a2.32,2.32,0,0,1,2.33-2.31"/><path class="cls-2" d="M18.32,16.11h3.84v1.76h.05A4.22,4.22,0,0,1,26,15.79c4.05,0,4.8,2.67,4.8,6.14V29h-4V22.73c0-1.5,0-3.42-2.08-3.42s-2.4,1.63-2.4,3.31V29h-4Z"/></g></g></svg>