<svg xmlns="http://www.w3.org/2000/svg" viewBox="0 0 40.31 40.31"><defs><style>.cls-1{fill:none;stroke:#fff;stroke-miterlimit:10;}.cls-2{fill:#fff;fill-rule:evenodd;}</style></defs><title>White LogoAsset 7</title><g id="Layer_2" data-name="Layer 2"><g id="Layer_1-2" data-name="Layer 1"><circle class="cls-1" cx="20.15" cy="20.15" r="19.65"/><path class="cls-2" d="M12,27a2.38,2.38,0,0,1-1.59-1.54c-.69-1.89-.89-9.79.43-11.35a2.55,2.55,0,0,1,1.73-.91c3.56-.39,14.58-.33,15.85.12a2.52,2.52,0,0,1,1.56,1.5c.75,2,.78,9.06-.1,10.94a2.45,2.45,0,0,1-1.12,1.13C27.38,27.56,13.7,27.55,12,27Zm5.66-3.7L24,19.94l-6.42-3.35Z"/></g></g></svg>