<svg xmlns="http://www.w3.org/2000/svg" viewBox="0 0 40.53 40.53"><defs><style>.cls-1{fill:none;stroke:#fff;stroke-miterlimit:10;}.cls-2{fill:#fff;fill-rule:evenodd;}</style></defs><title>White LogoAsset 6</title><g id="Layer_2" data-name="Layer 2"><g id="Layer_1-2" data-name="Layer 1"><circle class="cls-1" cx="20.26" cy="20.26" r="19.76"/><path class="cls-2" d="M22.8,12.92c.72,0,1.44,0,2.16,0h.3V9.18c-.39,0-.79-.1-1.19-.11C23.33,9,22.6,9,21.86,9a5.46,5.46,0,0,0-3.13,1,4.7,4.7,0,0,0-1.87,3.12,9.63,9.63,0,0,0-.13,1.61c0,.83,0,1.67,0,2.51v.32H13.14v4.17H16.7v10.5h4.35V21.73h3.54c.19-1.39.36-2.76.55-4.2H21s0-2.07,0-3C21.09,13.34,21.82,13,22.8,12.92Z"/></g></g></svg>