<svg xmlns="http://www.w3.org/2000/svg" viewBox="0 0 73.99 59.96"><defs><style>.cls-1{fill:#fff;}</style></defs><title>Research 1Asset 6</title><g id="Layer_2" data-name="Layer 2"><g id="Guides"><path class="cls-1" d="M22.09,60a.75.75,0,0,1-.26-.05.7.7,0,0,1-.43-.54L19.6,47.71c-.46-.37-.89-.71-1.31-1a.7.7,0,1,1,.84-1.12c.5.38,1,.79,1.57,1.25a.72.72,0,0,1,.24.43L22.61,58l5.75-4.33a.69.69,0,0,1,1,.14.7.7,0,0,1-.14,1l-6.69,5A.71.71,0,0,1,22.09,60Zm9.67-7.28a.69.69,0,0,1-.56-.28.7.7,0,0,1,.14-1l3-2.23a.72.72,0,0,1,.49-.13c3.29.32,5.84.47,7.78.47,4.92,0,6-.94,8-2.63.38-.32.78-.66,1.24-1A.7.7,0,1,1,52.7,47c-.44.35-.83.68-1.19,1-2.86,2.42-4.36,3.68-16.58,2.52l-2.75,2.06A.65.65,0,0,1,31.76,52.68ZM55.35,45a.7.7,0,0,1-.35-1.3,40.2,40.2,0,0,1,5.31-2.51C66.61,38.74,70.54,35.31,72,31a.69.69,0,0,1,.88-.44.69.69,0,0,1,.44.88c-1.58,4.69-5.77,8.4-12.48,11.05A37.94,37.94,0,0,0,55.7,45,.73.73,0,0,1,55.35,45Zm-39.74-.27a.71.71,0,0,1-.34-.08,11,11,0,0,0-5.74-1.61C6.25,43,5.12,42.4.91,30a.7.7,0,1,1,1.33-.45c4.08,12,5,12.06,7.33,12.13A12.52,12.52,0,0,1,16,43.46a.7.7,0,0,1-.34,1.31ZM1.14,29a.69.69,0,0,1-.67-.53A15.85,15.85,0,0,1,0,24.73c0-5.8,3.58-11.16,10.34-15.48a.7.7,0,1,1,.75,1.18C4.66,14.54,1.4,19.35,1.4,24.73a14.46,14.46,0,0,0,.42,3.41.69.69,0,0,1-.51.85Zm72.15-.71h0a.7.7,0,0,1-.68-.72c0-.14,0-.27,0-.41C72.6,21.52,68.83,14.7,62.52,9a.7.7,0,1,1,.94-1C70.06,13.93,74,21.13,74,27.17v.45A.71.71,0,0,1,73.29,28.3ZM14,8.68a.7.7,0,0,1-.33-1.32A70,70,0,0,1,35.18.72a.69.69,0,0,1,.79.59.69.69,0,0,1-.59.8A68.54,68.54,0,0,0,14.28,8.6.79.79,0,0,1,14,8.68ZM60.12,6.73a.65.65,0,0,1-.42-.14,25.43,25.43,0,0,0-8.38-4.48,38.71,38.71,0,0,0-12.26-.45A.69.69,0,0,1,38.29,1a.71.71,0,0,1,.63-.76C40.84.09,42.68,0,44.4,0a29.77,29.77,0,0,1,7.28.75,27,27,0,0,1,8.87,4.73.7.7,0,0,1-.43,1.25Z"/><path class="cls-1" d="M12.17,22.69a.71.71,0,0,1-.7-.7V15.3a.7.7,0,0,1,1.4,0V22A.7.7,0,0,1,12.17,22.69Z"/><path class="cls-1" d="M18.75,22.64a4,4,0,1,1,4-4A4,4,0,0,1,18.75,22.64Zm0-6.59a2.6,2.6,0,1,0,2.58,2.59A2.59,2.59,0,0,0,18.75,16.05Z"/><path class="cls-1" d="M25.28,22.69a.7.7,0,0,1-.7-.7V15.3a.7.7,0,0,1,1.4,0V22A.7.7,0,0,1,25.28,22.69Z"/><path class="cls-1" d="M31.85,22.64a4,4,0,1,1,4-4A4,4,0,0,1,31.85,22.64Zm0-6.59a2.6,2.6,0,1,0,2.59,2.59A2.59,2.59,0,0,0,31.85,16.05Z"/><path class="cls-1" d="M38.38,22.69a.71.71,0,0,1-.7-.7V15.3a.7.7,0,0,1,1.4,0V22A.7.7,0,0,1,38.38,22.69Z"/><path class="cls-1" d="M45,22.64a4,4,0,1,1,4-4A4,4,0,0,1,45,22.64Zm0-6.59a2.6,2.6,0,1,0,2.59,2.59A2.59,2.59,0,0,0,45,16.05Z"/><path class="cls-1" d="M51.48,22.69a.71.71,0,0,1-.7-.7V15.3a.7.7,0,0,1,1.4,0V22A.7.7,0,0,1,51.48,22.69Z"/><path class="cls-1" d="M58.06,22.64a4,4,0,1,1,4-4A4,4,0,0,1,58.06,22.64Zm0-6.59a2.6,2.6,0,1,0,2.59,2.59A2.59,2.59,0,0,0,58.06,16.05Z"/><path class="cls-1" d="M61.34,34a.7.7,0,0,1-.7-.7V26.64a.7.7,0,1,1,1.4,0v6.68A.7.7,0,0,1,61.34,34Z"/><path class="cls-1" d="M54.78,34a4,4,0,1,1,4-4A4,4,0,0,1,54.78,34Zm0-6.58A2.59,2.59,0,1,0,57.36,30,2.6,2.6,0,0,0,54.78,27.39Z"/><path class="cls-1" d="M48.24,34a.7.7,0,0,1-.7-.7V26.64a.7.7,0,1,1,1.4,0v6.68A.7.7,0,0,1,48.24,34Z"/><path class="cls-1" d="M41.67,34a4,4,0,1,1,4-4A4,4,0,0,1,41.67,34Zm0-6.58A2.59,2.59,0,1,0,44.26,30,2.6,2.6,0,0,0,41.67,27.39Z"/><path class="cls-1" d="M35.14,34a.7.7,0,0,1-.7-.7V26.64a.7.7,0,1,1,1.4,0v6.68A.7.7,0,0,1,35.14,34Z"/><path class="cls-1" d="M28.56,34a4,4,0,1,1,4-4A4,4,0,0,1,28.56,34Zm0-6.58A2.59,2.59,0,1,0,31.16,30,2.59,2.59,0,0,0,28.56,27.39Z"/><path class="cls-1" d="M22,34a.7.7,0,0,1-.7-.7V26.64a.7.7,0,0,1,1.4,0v6.68A.7.7,0,0,1,22,34Z"/><path class="cls-1" d="M15.47,34a4,4,0,1,1,4-4A4,4,0,0,1,15.47,34Zm0-6.58A2.59,2.59,0,1,0,18.06,30,2.6,2.6,0,0,0,15.47,27.39Z"/><path class="cls-1" d="M41.69,44.8a.7.7,0,0,1-.7-.7V37.41a.7.7,0,1,1,1.4,0V44.1A.7.7,0,0,1,41.69,44.8Z"/><path class="cls-1" d="M35.12,44.75a4,4,0,1,1,4-4A4,4,0,0,1,35.12,44.75Zm0-6.59a2.6,2.6,0,1,0,2.59,2.59A2.59,2.59,0,0,0,35.12,38.16Z"/><path class="cls-1" d="M28.58,44.8a.71.71,0,0,1-.7-.7V37.41a.7.7,0,1,1,1.4,0V44.1A.7.7,0,0,1,28.58,44.8Z"/></g></g></svg>