<svg xmlns="http://www.w3.org/2000/svg" viewBox="0 0 79.31 58.66"><defs><style>.cls-1{fill:#fff;}</style></defs><title>Research 1Asset 4</title><g id="Layer_2" data-name="Layer 2"><g id="Guides"><path class="cls-1" d="M70.43,48h-24a.75.75,0,0,1,0-1.5h24a.75.75,0,0,1,0,1.5Zm-28,0h-24a.75.75,0,0,1,0-1.5h24a.75.75,0,0,1,0,1.5Zm-28,0H5.91a.75.75,0,0,1-.75-.75V31.75a.75.75,0,0,1,1.5,0V46.48h7.77a.75.75,0,0,1,0,1.5Zm59-1a.75.75,0,0,1-.75-.75v-24a.75.75,0,1,1,1.5,0v24A.74.74,0,0,1,73.39,46.94ZM5.91,28.5a.76.76,0,0,1-.75-.75V4.19a4.9,4.9,0,0,1,0-.54A.74.74,0,0,1,6,3a.75.75,0,0,1,.65.84,2,2,0,0,0,0,.34V27.75A.75.75,0,0,1,5.91,28.5Zm67.48-9.56a.75.75,0,0,1-.75-.75v-14A2.69,2.69,0,0,0,70,1.5H65.36a.75.75,0,0,1,0-1.5H70a4.2,4.2,0,0,1,4.19,4.19v14A.74.74,0,0,1,73.39,18.94ZM8.41,1.63a.74.74,0,0,1-.72-.54A.75.75,0,0,1,8.2.16,4.45,4.45,0,0,1,9.36,0h24a.76.76,0,0,1,.75.75.76.76,0,0,1-.75.75h-24a2.65,2.65,0,0,0-.74.11A.75.75,0,0,1,8.41,1.63Zm53-.13h-24a.75.75,0,0,1,0-1.5h24a.76.76,0,0,1,.75.75A.76.76,0,0,1,61.36,1.5Z"/><path class="cls-1" d="M76.06,58.66H59.25a.75.75,0,0,1,0-1.5H76.06a1.76,1.76,0,0,0,1.75-1.75V52.14a.75.75,0,1,1,1.5,0v3.27A3.26,3.26,0,0,1,76.06,58.66Zm-20.81,0h-24a.75.75,0,0,1,0-1.5h24a.75.75,0,0,1,0,1.5Zm-28,0h-24A3.26,3.26,0,0,1,0,55.41v-.76a.76.76,0,0,1,.75-.75.76.76,0,0,1,.75.75v.76a1.76,1.76,0,0,0,1.75,1.75h24a.75.75,0,0,1,0,1.5ZM.75,51.4A.75.75,0,0,1,0,50.65v-.93a3.25,3.25,0,0,1,3.25-3.24H22.4a.75.75,0,0,1,0,1.5H3.25A1.75,1.75,0,0,0,1.5,49.72v.93A.75.75,0,0,1,.75,51.4ZM78.07,49a.75.75,0,0,1-.6-.31A1.78,1.78,0,0,0,76.06,48H54.4a.75.75,0,0,1,0-1.5H76.06a3.24,3.24,0,0,1,2.61,1.32.75.75,0,0,1-.15,1.05A.76.76,0,0,1,78.07,49ZM50.4,48h-24a.75.75,0,0,1,0-1.5h24a.75.75,0,0,1,0,1.5Z"/><path class="cls-1" d="M49.07,58.66H30.24a.76.76,0,0,1-.75-.75V51.27a.76.76,0,0,1,.75-.75H46.53a.75.75,0,0,1,0,1.5H31v5.14H48.32V52.73a.75.75,0,0,1,1.5,0v5.18A.76.76,0,0,1,49.07,58.66Z"/><path class="cls-1" d="M69.15,48H62.56a.75.75,0,0,1,0-1.5H68.4V29.82a.75.75,0,1,1,1.5,0V47.23A.75.75,0,0,1,69.15,48ZM58.56,48h-24a.75.75,0,0,1,0-1.5h24a.75.75,0,0,1,0,1.5Zm-28,0H10.16a.75.75,0,0,1-.75-.75v-3.6a.75.75,0,0,1,1.5,0v2.85H30.56a.75.75,0,0,1,0,1.5Zm-20.4-7.6a.76.76,0,0,1-.75-.75v-24a.75.75,0,1,1,1.5,0v24A.75.75,0,0,1,10.16,40.38Zm59-13.81a.75.75,0,0,1-.75-.75V5.55H66.16a.75.75,0,0,1,0-1.5h3a.76.76,0,0,1,.75.75v21A.76.76,0,0,1,69.15,26.57Zm-59-14.19a.76.76,0,0,1-.75-.75V4.8a.76.76,0,0,1,.75-.75h24a.75.75,0,0,1,0,1.5H10.91v6.08A.75.75,0,0,1,10.16,12.38Zm52-6.83h-24a.75.75,0,0,1,0-1.5h24a.75.75,0,0,1,0,1.5Z"/><path class="cls-1" d="M17,19.38a.75.75,0,0,1-.75-.75V12.46a.75.75,0,0,1,1.5,0v6.17A.76.76,0,0,1,17,19.38Z"/><path class="cls-1" d="M23,19.34a3.79,3.79,0,1,1,3.78-3.8A3.8,3.8,0,0,1,23,19.34Zm0-6.08a2.29,2.29,0,1,0,2.28,2.28A2.29,2.29,0,0,0,23,13.26Z"/><path class="cls-1" d="M29.05,19.38a.76.76,0,0,1-.75-.75V12.46a.75.75,0,0,1,1.5,0v6.17A.76.76,0,0,1,29.05,19.38Z"/><path class="cls-1" d="M35.12,19.34a3.79,3.79,0,1,1,3.79-3.8A3.8,3.8,0,0,1,35.12,19.34Zm0-6.08a2.29,2.29,0,1,0,2.29,2.28A2.28,2.28,0,0,0,35.12,13.26Z"/><path class="cls-1" d="M41.16,19.38a.75.75,0,0,1-.75-.75V12.46a.75.75,0,0,1,1.5,0v6.17A.76.76,0,0,1,41.16,19.38Z"/><path class="cls-1" d="M47.22,19.34A3.79,3.79,0,1,1,51,15.54,3.8,3.8,0,0,1,47.22,19.34Zm0-6.08a2.29,2.29,0,1,0,2.29,2.28A2.29,2.29,0,0,0,47.22,13.26Z"/><path class="cls-1" d="M53.26,19.38a.75.75,0,0,1-.75-.75V12.46a.75.75,0,0,1,1.5,0v6.17A.76.76,0,0,1,53.26,19.38Z"/><path class="cls-1" d="M59.32,19.34a3.79,3.79,0,1,1,3.79-3.8A3.8,3.8,0,0,1,59.32,19.34Zm0-6.08a2.29,2.29,0,1,0,2.29,2.28A2.29,2.29,0,0,0,59.32,13.26Z"/><path class="cls-1" d="M62.36,29.85a.76.76,0,0,1-.75-.75V22.93a.75.75,0,1,1,1.5,0V29.1A.75.75,0,0,1,62.36,29.85Z"/><path class="cls-1" d="M56.29,29.81a3.79,3.79,0,1,1,3.8-3.8A3.79,3.79,0,0,1,56.29,29.81Zm0-6.08A2.29,2.29,0,1,0,58.59,26,2.28,2.28,0,0,0,56.29,23.73Z"/><path class="cls-1" d="M50.26,29.85a.76.76,0,0,1-.75-.75V22.93a.75.75,0,0,1,1.5,0V29.1A.76.76,0,0,1,50.26,29.85Z"/><path class="cls-1" d="M44.19,29.81A3.79,3.79,0,1,1,48,26,3.8,3.8,0,0,1,44.19,29.81Zm0-6.08A2.29,2.29,0,1,0,46.48,26,2.28,2.28,0,0,0,44.19,23.73Z"/><path class="cls-1" d="M38.16,29.85a.76.76,0,0,1-.75-.75V22.93a.75.75,0,0,1,1.5,0V29.1A.76.76,0,0,1,38.16,29.85Z"/><path class="cls-1" d="M32.09,29.81A3.79,3.79,0,1,1,35.88,26,3.8,3.8,0,0,1,32.09,29.81Zm0-6.08A2.29,2.29,0,1,0,34.38,26,2.29,2.29,0,0,0,32.09,23.73Z"/><path class="cls-1" d="M26.05,29.85a.76.76,0,0,1-.75-.75V22.93a.75.75,0,0,1,1.5,0V29.1A.75.75,0,0,1,26.05,29.85Z"/><path class="cls-1" d="M20,29.81A3.79,3.79,0,1,1,23.78,26,3.8,3.8,0,0,1,20,29.81Zm0-6.08A2.29,2.29,0,1,0,22.28,26,2.29,2.29,0,0,0,20,23.73Z"/><path class="cls-1" d="M17,40.32a.75.75,0,0,1-.75-.75V33.4a.75.75,0,0,1,1.5,0v6.17A.76.76,0,0,1,17,40.32Z"/><path class="cls-1" d="M23,40.27a3.79,3.79,0,1,1,3.78-3.78A3.79,3.79,0,0,1,23,40.27Zm0-6.08a2.29,2.29,0,1,0,2.28,2.3A2.3,2.3,0,0,0,23,34.19Z"/><path class="cls-1" d="M29.05,40.32a.76.76,0,0,1-.75-.75V33.4a.75.75,0,0,1,1.5,0v6.17A.76.76,0,0,1,29.05,40.32Z"/><path class="cls-1" d="M35.12,40.27a3.79,3.79,0,1,1,3.79-3.78A3.79,3.79,0,0,1,35.12,40.27Zm0-6.08a2.29,2.29,0,1,0,2.29,2.3A2.29,2.29,0,0,0,35.12,34.19Z"/><path class="cls-1" d="M41.16,40.32a.75.75,0,0,1-.75-.75V33.4a.75.75,0,0,1,1.5,0v6.17A.76.76,0,0,1,41.16,40.32Z"/><path class="cls-1" d="M47.22,40.27A3.79,3.79,0,1,1,51,36.49,3.79,3.79,0,0,1,47.22,40.27Zm0-6.08a2.29,2.29,0,1,0,2.29,2.3A2.3,2.3,0,0,0,47.22,34.19Z"/><path class="cls-1" d="M53.26,40.32a.75.75,0,0,1-.75-.75V33.4a.75.75,0,0,1,1.5,0v6.17A.76.76,0,0,1,53.26,40.32Z"/><path class="cls-1" d="M59.32,40.27a3.79,3.79,0,1,1,3.79-3.78A3.79,3.79,0,0,1,59.32,40.27Zm0-6.08a2.29,2.29,0,1,0,2.29,2.3A2.3,2.3,0,0,0,59.32,34.19Z"/><path class="cls-1" d="M75,53.32h-17a.75.75,0,0,1,0-1.5H75a.75.75,0,0,1,0,1.5Z"/><path class="cls-1" d="M21.23,53.32H4.28a.75.75,0,0,1,0-1.5h17a.75.75,0,0,1,0,1.5Z"/></g></g></svg>